<svg width="302" height="65" viewBox="0 0 302 65" fill="none" xmlns="http://www.w3.org/2000/svg">
<g opacity="0.2">
<g opacity="0.2">
<path opacity="0.2" d="M42.83 57.9762C41.9436 57.9762 41.1163 57.3809 40.8799 56.5476C40.5254 55.4762 41.1163 54.2857 42.2391 53.9285C42.3572 53.869 54.1168 50.0595 60.3807 41.369C61.858 39.3452 62.8035 38.0357 63.5127 37.1428C64.2809 36.1905 65.4036 34.7619 67.0582 35.4167C68.7129 36.1309 68.4765 37.7976 68.2401 39.3452C68.0628 40.5357 67.7674 42.2024 67.8856 43.869C67.9447 44.9405 67.9446 46.0714 67.9446 47.0238C67.9446 47.9166 67.9447 49.1666 68.0628 49.9405C68.5947 49.7024 69.4811 49.1666 71.0175 47.8571C75.5677 44.1071 78.4633 40.5952 79.9997 38.0952C79.4088 37.6786 78.936 37.2619 78.6405 36.8452C77.7541 35.7143 77.5178 34.4047 77.9905 33.2738C78.4633 32.1428 79.586 31.3095 80.9452 31.1309C82.4816 30.9524 84.018 31.6071 84.9044 32.7976C85.6136 33.75 85.7317 35.0595 85.259 36.6667C88.9228 39.1071 93.8275 42.8571 91.7593 47.8571C91.3456 48.8095 90.932 49.5833 90.4592 50.2976C91.1092 50.0595 91.8184 49.7619 92.7638 49.4047L103.696 44.5238C104.76 44.0476 105.942 44.5238 106.414 45.5952C106.887 46.6666 106.414 47.8571 105.351 48.3333L94.4185 53.2143C89.3955 55.4762 86.9727 55.2381 84.7862 54.1071C83.0134 54.4047 81.1225 54.1666 79.2906 53.75C77.3996 53.3333 76.7496 52.3214 76.5132 51.5476C76.2177 50.5357 76.5723 49.4643 77.3996 48.6905C78.286 47.7976 79.9997 47.1428 81.5952 47.6785C83.2498 48.2143 84.4317 48.9881 85.3181 49.5833C86.3818 49.0476 87.15 48.0357 87.8591 46.3095C88.5682 44.5238 86.2636 42.5 83.368 40.5357C83.1907 40.7738 83.0135 41.0714 82.8362 41.3095C80.5906 44.5833 77.2814 48.0952 73.5585 51.1905C70.9584 53.3333 68.2401 55.119 65.9946 54.0476C63.749 52.9762 63.749 50.119 63.749 47.0833C63.749 46.1309 63.749 45.119 63.6899 44.1666C63.6899 44.0476 63.6899 43.9285 63.6899 43.8095C56.5987 53.6309 44.0119 57.7381 43.4209 57.9166C43.2436 57.9762 43.0073 57.9762 42.83 57.9762Z" fill="#00006B"/>
</g>
</g>
<g opacity="0.25">
<g opacity="0.25">
<path opacity="0.25" d="M42.83 57.6786C42.0618 57.6786 41.3527 57.2024 41.1163 56.4286C40.8208 55.4762 41.3527 54.4643 42.2981 54.1667C42.4163 54.1071 54.235 50.2976 60.6171 41.4881C62.0944 39.4643 63.0399 38.1548 63.6899 37.3214C64.4581 36.369 65.4627 35.119 66.881 35.7143C68.3583 36.3095 68.1219 37.8571 67.8856 39.2857C67.7083 40.4762 67.4128 42.1428 67.531 43.869C67.5901 44.9405 67.5901 46.0119 67.5901 47.0238C67.5901 48.0952 67.5901 49.6428 67.7674 50.3571C68.2401 50.1786 69.1856 49.7024 71.1357 48.0952C75.8631 44.2262 78.7587 40.5952 80.2951 38.0357C79.6451 37.5595 79.1133 37.1428 78.7587 36.6667C77.9314 35.6548 77.695 34.4048 78.1087 33.3928C78.5223 32.3214 79.586 31.6071 80.827 31.4286C82.2452 31.25 83.6635 31.8452 84.5499 32.9762C85.259 33.9286 85.259 35.2381 84.7862 36.7857C88.3318 39.1667 93.3548 42.8571 91.3456 47.7381C90.8138 48.9881 90.2228 50 89.5728 50.8333C90.4001 50.5952 91.4047 50.2381 92.7047 49.6428L103.637 44.7619C104.523 44.3452 105.587 44.7619 106.001 45.6548C106.414 46.5476 106.001 47.619 105.114 48.0357L94.1821 52.9167C89.1591 55.1786 86.8545 54.9405 84.668 53.75C82.8952 54.0476 81.0043 53.8095 79.2315 53.4524C77.5178 53.0952 76.9268 52.2024 76.6905 51.4881C76.4541 50.5952 76.7495 49.6429 77.4587 48.9286C78.286 48.0952 79.8815 47.4405 81.3588 47.9762C83.0725 48.5714 84.2544 49.3452 85.1999 49.9405C86.3818 49.4048 87.2682 48.3333 88.0364 46.4286C88.8637 44.4048 86.3818 42.2619 83.1907 40.119C80.8861 43.869 76.8677 48.0357 73.263 50.9524C69.8356 53.75 67.7083 54.5833 65.9946 53.8095C63.9263 52.7976 63.9263 50.1786 63.9263 47.0833C63.9263 46.1309 63.9263 45.119 63.8672 44.1667C63.8672 43.75 63.8081 43.3333 63.8081 42.9762C63.6308 43.2143 63.4536 43.4524 63.2763 43.6905C56.2442 53.4524 43.7164 57.5 43.1845 57.6786C43.1845 57.6786 43.0073 57.6786 42.83 57.6786Z" fill="#00006B"/>
</g>
</g>
<g opacity="0.3">
<g opacity="0.3">
<path opacity="0.3" d="M42.83 57.3809C42.18 57.3809 41.6481 56.9643 41.4118 56.369C41.1754 55.5952 41.589 54.7619 42.3573 54.5238C42.4754 54.4643 54.4123 50.5952 60.7944 41.7262C62.2717 39.7024 63.2172 38.3928 63.8672 37.5595C64.6354 36.6071 65.5218 35.5357 66.7037 36.0119C67.9447 36.5476 67.7674 37.7976 67.531 39.2857C67.3537 40.5357 67.0583 42.2024 67.1764 43.9286C67.2355 45 67.2355 46.0714 67.2355 47.0833C67.2355 48.3333 67.2355 50.2381 67.531 50.7738C67.8265 50.7143 68.8311 50.4167 71.313 48.3929C76.0995 44.4643 79.1724 40.6548 80.7088 38.0357C79.9406 37.5 79.4088 37.0238 78.9951 36.5476C77.9905 35.2381 78.1678 34.1071 78.4042 33.5714C78.8178 32.619 79.7633 31.9047 80.8861 31.7857C82.1861 31.6071 83.5453 32.1428 84.3135 33.2143C84.9635 34.1071 84.9635 35.4167 84.4317 36.9643C88.0955 39.4048 93.0593 42.9167 91.1092 47.6786C90.4592 49.2857 89.691 50.4762 88.8046 51.369C89.8092 51.25 91.0501 50.8333 92.882 50L103.814 45.119C104.583 44.7619 105.41 45.119 105.764 45.8928C106.119 46.6667 105.764 47.5 104.996 47.8571L94.0639 52.7381C89.1001 54.9405 86.8545 54.7024 84.7272 53.5119C82.9544 53.8095 81.0634 53.6309 79.2906 53.2143C77.695 52.8571 77.1632 52.0833 76.9859 51.4286C76.7496 50.6548 77.045 49.8214 77.695 49.1667C78.4633 48.3928 79.9406 47.7976 81.2997 48.2738C83.0134 48.869 84.1953 49.6428 85.1408 50.2381C85.1408 50.2381 85.1999 50.2381 85.1999 50.2976C86.5 49.7619 87.5045 48.6309 88.3318 46.5476C89.2773 44.2262 86.4999 41.9643 83.0725 39.7024C81.0043 43.2143 77.1632 47.3809 73.0858 50.7143C69.7765 53.4524 67.7674 54.2857 66.1719 53.5119C64.2809 52.619 64.2809 50.0595 64.2218 47.0833C64.2218 46.1309 64.2218 45.119 64.1627 44.1667C64.1036 43.4524 64.1036 42.6786 64.1627 42.0238C63.8081 42.5595 63.3945 43.0357 63.0399 43.5119C56.0669 53.2143 43.5982 57.2024 43.1255 57.3809C43.1255 57.3809 42.9482 57.3809 42.83 57.3809ZM81.3588 34.7024C81.477 34.8214 81.6543 35 81.9498 35.1786C81.9498 35.0595 81.9498 34.9405 81.9498 34.8809C81.8316 34.7619 81.7134 34.7024 81.5361 34.7024C81.477 34.7024 81.4179 34.7024 81.3588 34.7024Z" fill="#00006B"/>
</g>
</g>
<path d="M42.83 57.0833C42.3573 57.0833 41.8845 56.7857 41.7072 56.25C41.53 55.5952 41.8845 54.9405 42.4754 54.7619C42.5936 54.7024 54.5896 50.8333 61.0898 41.8452C65.1082 36.3095 65.5218 35.7143 66.7037 36.25C67.7674 36.6666 67.5901 37.7381 67.3537 39.1666C67.1764 40.4166 66.881 42.0833 66.9992 43.869C67.0583 44.9405 67.0583 45.9524 67.0583 46.9643C67.0583 48.3333 67.0583 50.6547 67.4719 51.0119C67.4719 51.0119 68.2992 51.25 71.5494 48.5714C76.5132 44.5238 79.6451 40.5357 81.1225 37.9166C80.2952 37.3214 79.6451 36.8452 79.2315 36.369C78.286 35.1786 78.4633 34.1666 78.6997 33.6905C79.0542 32.8571 79.9406 32.2024 80.9452 32.0833C82.1862 31.9047 83.368 32.4405 84.0771 33.3928C84.7272 34.2262 84.6681 35.5357 84.0771 37.0833C87.6818 39.4643 92.7048 42.9762 90.8138 47.5595C90.0456 49.4643 89.041 50.7738 87.9773 51.6667C89.1001 51.6667 90.5774 51.3095 93.0002 50.2381L103.932 45.3571C104.523 45.0595 105.233 45.3571 105.469 45.9524C105.705 46.5476 105.469 47.2619 104.878 47.5L93.9457 52.3809C88.9228 54.5833 86.8545 54.2857 84.7863 53.1548C83.0726 53.5119 81.1816 53.2738 79.3497 52.8571C77.9314 52.5595 77.3996 51.8452 77.2814 51.3095C77.1041 50.6547 77.3405 49.8809 77.9314 49.3452C78.6997 48.6309 80.0588 48.0952 81.2407 48.5119C82.9544 49.1071 84.0771 49.8214 85.0226 50.4762C85.0817 50.5357 85.1408 50.5357 85.1999 50.5952C86.6182 50.0595 87.7409 48.869 88.6864 46.6667C89.7501 44.1071 86.7363 41.6667 83.0726 39.2857C81.0634 42.7976 77.1632 47.0833 73.0267 50.5357C69.7766 53.2143 67.8856 53.9881 66.4082 53.2738C64.6354 52.4405 64.6354 49.9405 64.6354 47.0833C64.6354 46.1309 64.6354 45.119 64.5763 44.1071C64.5173 42.9762 64.5763 41.9047 64.6354 40.9524C64.0445 41.7262 63.4536 42.5595 62.9217 43.3333C56.0078 52.9167 43.6573 56.9643 43.1255 57.0833C43.0664 57.0833 42.9482 57.0833 42.83 57.0833ZM80.9452 34.5833C80.9452 34.5833 81.0043 34.7024 81.1225 34.8809C81.2998 35.119 81.6543 35.4167 82.1271 35.7143C82.2452 35.2976 82.3043 34.9405 82.1862 34.7619C81.9498 34.4643 81.5952 34.4047 81.3589 34.4047C81.1816 34.4047 81.0043 34.5238 80.9452 34.5833Z" fill="#00006B"/>
<path d="M42.83 56.8452C42.4163 56.8452 42.0618 56.6071 41.9436 56.1905C41.7663 55.6548 42.0618 55.119 42.5936 55C42.7118 54.9405 54.7668 51.0119 61.3262 42.0238C65.2263 36.6071 65.64 36.0714 66.6446 36.4881C67.531 36.8452 67.3537 37.7381 67.1764 39.1667C66.9991 40.4167 66.7037 42.1429 66.8219 43.9286C66.8809 45 66.8809 46.0119 66.8809 47.0238C66.8809 48.631 66.8809 51.0119 67.4128 51.25C67.4719 51.3095 68.3583 51.5476 71.7857 48.75C76.9859 44.4643 80.0588 40.4762 81.5361 37.7976C80.6497 37.2024 79.9406 36.6667 79.5269 36.1905C78.6405 35.119 78.8178 34.1667 78.9951 33.75C79.2905 32.9762 80.1179 32.381 81.0633 32.2619C82.1861 32.0833 83.3089 32.619 84.018 33.5119C84.6089 34.3452 84.5498 35.5952 83.9589 37.1429C87.5045 39.4643 92.5865 42.9167 90.7546 47.4405C89.8682 49.5833 88.8046 50.9524 87.5045 51.8452C88.7455 52.0238 90.341 51.7262 93.1775 50.4167L104.11 45.5357C104.582 45.2976 105.173 45.5357 105.351 46.0119C105.587 46.4881 105.351 47.0833 104.878 47.2619L93.9457 52.1429C88.9818 54.3452 86.9727 54.0476 84.9044 52.8571C83.1907 53.2143 81.3588 52.9762 79.4678 52.619C78.4041 52.3809 77.7541 51.9048 77.5768 51.1905C77.3996 50.5952 77.6359 49.9405 78.1678 49.4643C78.8769 48.8095 80.1769 48.3333 81.2406 48.6905C82.8952 49.2262 84.018 50 84.9635 50.5952C85.0817 50.6548 85.1408 50.7143 85.259 50.7738C86.7954 50.2381 87.9773 48.9881 88.9227 46.6667C90.1637 43.6905 86.2045 40.9524 83.0725 38.869C81.1224 42.381 77.1632 46.7262 72.9085 50.2381C69.7765 52.7976 67.8855 53.631 66.5264 52.9762C64.9309 52.2024 64.9309 49.9405 64.8718 47.0238C64.8718 46.0714 64.8718 45.0595 64.8127 44.0476C64.6945 42.619 64.8718 41.25 64.99 40.119C64.2808 41.0119 63.5126 42.1429 62.8035 43.1548C55.8896 52.6786 43.6573 56.6667 43.1254 56.8452C43.0072 56.8452 42.9482 56.8452 42.83 56.8452ZM79.7042 50.7143C79.7633 50.7143 79.8224 50.7143 79.8815 50.7738C80.5906 50.9524 81.2997 51.0714 81.9497 51.1309C81.5361 50.9524 81.1224 50.7738 80.6497 50.5952C80.3542 50.4167 79.9997 50.5357 79.7042 50.7143ZM81.4179 34.1667C81.3588 34.1667 81.2997 34.1667 81.2406 34.1667C80.9452 34.2262 80.7088 34.3452 80.7088 34.4643C80.6497 34.5238 80.7088 34.7619 80.9452 35C81.1815 35.2976 81.6543 35.6548 82.2452 36.0714C82.4816 35.3571 82.5407 34.881 82.4225 34.6429C82.127 34.2262 81.7134 34.1667 81.4179 34.1667Z" fill="#00006B"/>
<path d="M42.83 56.6667C42.5345 56.6667 42.2391 56.4881 42.1209 56.131C42.0027 55.7143 42.2391 55.2976 42.5936 55.1786C42.7118 55.1191 54.826 51.1905 61.3853 42.0833C65.2264 36.7857 65.64 36.25 66.4673 36.6071C67.1765 36.9048 67.0583 37.619 66.8219 39.0476C66.6446 40.2976 66.3491 42.0238 66.4673 43.869C66.5264 44.9405 66.5264 45.9524 66.5264 46.9643C66.5264 48.8095 66.5264 51.0714 67.1765 51.3691C67.4719 51.4881 68.4765 51.5476 71.7266 48.869C76.9269 44.6429 80.1179 40.4762 81.6543 37.6786C80.7088 37.0238 79.9406 36.4881 79.527 36.0119C78.7587 35 78.8769 34.1667 79.0542 33.75C79.3497 33.0357 80.0588 32.5595 80.9452 32.4405C82.0089 32.3214 83.0726 32.7381 83.6635 33.5714C84.2544 34.3452 84.1362 35.6547 83.4862 37.1428C86.9727 39.4048 92.1729 42.8571 90.341 47.2619C89.3955 49.5833 88.2137 51.0119 86.7954 51.8452C88.0955 52.2024 89.8092 52.0238 93.1184 50.5357L104.051 45.6548C104.405 45.4762 104.878 45.6548 104.996 46.0119C105.173 46.3691 104.996 46.8452 104.642 46.9643L93.7093 51.8452C88.8046 54.0476 86.7954 53.6905 84.8454 52.5595C83.2498 52.9167 81.4179 52.7381 79.4088 52.3214C78.4042 52.1429 77.8133 51.7262 77.636 51.0714C77.5178 50.5357 77.6951 50 78.1678 49.5238C78.8178 48.9286 79.9997 48.4524 81.0634 48.8095C82.718 49.3452 83.7817 50.0595 84.7272 50.7143C84.8454 50.7738 84.9635 50.8929 85.0817 50.9524C86.7363 50.4167 87.9773 49.1667 88.9819 46.6667C90.2819 43.4524 86.0863 40.5952 82.8362 38.4524C80.8861 41.9643 76.8678 46.4881 72.613 49.9405C69.5993 52.4405 67.7083 53.2143 66.4673 52.6191C64.99 51.9048 64.99 49.7024 64.99 46.8452C64.99 45.8929 64.99 44.881 64.9309 43.869C64.8127 42.0833 65.0491 40.3571 65.2264 39.1071C64.4582 40.119 63.3945 41.5476 62.5081 42.7976C55.6533 52.2619 43.48 56.25 42.9482 56.4286C42.9482 56.6667 42.8891 56.6667 42.83 56.6667ZM79.2906 50.7738C79.3497 50.8333 79.527 50.8929 79.8815 50.9524C81.0043 51.1905 82.0089 51.3095 82.9544 51.3691C82.3634 51.0119 81.5952 50.6548 80.7088 50.3571C80.177 50.1786 79.4679 50.5357 79.2906 50.7738ZM81.4179 33.9881C81.3588 33.9881 81.2407 33.9881 81.2407 33.9881C80.8861 34.0476 80.5906 34.2262 80.5315 34.4047C80.4724 34.5833 80.5315 34.8809 80.7679 35.1786C81.0043 35.4762 81.6543 35.9524 82.3634 36.4286C82.718 35.4762 82.8362 34.8214 82.5998 34.5238C82.2452 34.0476 81.7725 33.9881 81.4179 33.9881Z" fill="#00006B"/>
<path d="M42.83 56.369C42.5936 56.369 42.4163 56.25 42.3572 56.0119C42.2981 55.7738 42.4163 55.4762 42.6527 55.4166C42.7709 55.3571 55.0032 51.4286 61.6216 42.2619C65.4036 37.0238 65.7582 36.6071 66.4082 36.9047C66.94 37.1428 66.8219 37.6786 66.6446 39.1071C66.4673 40.2976 66.1718 42.1428 66.29 43.9881C66.3491 45 66.3491 46.0714 66.3491 47.0833C66.3491 49.1666 66.3491 51.369 67.1764 51.7262C67.7083 51.9643 68.9492 51.7262 72.0221 49.1666C77.2814 44.8809 80.5906 40.5952 82.0679 37.6786C81.0633 37.0238 80.236 36.4286 79.8224 35.8928C79.1133 35 79.2314 34.2262 79.4087 33.9286C79.6451 33.3333 80.2951 32.8571 81.1224 32.7381C82.0679 32.619 83.0725 33.0357 83.6043 33.8095C84.1362 34.5238 84.018 35.7738 83.3089 37.3214L83.368 37.3809C86.7954 39.6428 91.9956 43.0357 90.2819 47.2619C89.2182 49.7619 87.9182 51.25 86.3226 51.9643C87.7409 52.619 89.5137 52.5595 93.4138 50.8333L104.346 45.9524C104.582 45.8333 104.878 45.9524 104.996 46.1905C105.114 46.4285 104.996 46.7262 104.76 46.8452L93.8275 51.7262C88.7455 53.9881 86.9136 53.5119 85.0817 52.3809C83.4862 52.7381 81.7134 52.5595 79.6451 52.1428C78.7587 51.9643 78.2269 51.6071 78.1087 51.0714C77.9905 50.6547 78.1678 50.1786 78.5814 49.8214C79.1723 49.2857 80.2951 48.869 81.1815 49.1666C82.777 49.7024 83.8407 50.4166 84.7862 51.0119C84.9635 51.1309 85.0817 51.25 85.259 51.3095C86.9727 50.7738 88.3909 49.4643 89.4546 46.8452C90.8728 43.3928 86.3226 40.3571 82.9543 38.2143C81.1815 41.5476 77.3996 46.0119 72.6721 49.8809C69.7174 52.3214 67.9446 53.0952 66.8219 52.5595C65.4627 51.9047 65.4627 49.7619 65.4627 47.0238C65.4627 46.0119 65.4627 45 65.4036 43.9881C65.2854 42.0238 65.5809 40.1786 65.7582 38.9286C65.7582 38.75 65.8173 38.5714 65.8173 38.3928C65.0491 39.2857 63.6899 41.1905 62.508 42.8571C55.7123 52.2619 43.1845 56.3095 43.0663 56.369C42.9482 56.369 42.8891 56.369 42.83 56.369ZM80.4133 50C79.9406 50 79.4087 50.2381 79.1723 50.4762C78.9951 50.6547 78.9951 50.7143 78.9951 50.7738C78.9951 50.8333 79.1724 51.0119 79.8224 51.1309C81.2997 51.4285 82.6589 51.6071 83.7816 51.4881C83.0134 50.9524 82.0679 50.4166 80.7679 50C80.6497 50.0595 80.5315 50 80.4133 50ZM81.4179 33.6905C81.3588 33.6905 81.2406 33.6905 81.1815 33.6905C80.7088 33.75 80.3542 33.9881 80.236 34.2857C80.1178 34.6428 80.2951 35 80.5315 35.2976C80.827 35.7143 81.5361 36.1905 82.4225 36.7857C82.9543 35.5952 83.0134 34.7619 82.777 34.4047C82.4816 33.869 81.8906 33.6905 81.4179 33.6905Z" fill="#00006B"/>
<path d="M42.83 56.0714C42.7709 56.0714 42.6527 56.0119 42.6527 55.9524C42.5936 55.8333 42.6527 55.7143 42.7709 55.7143C42.8891 55.6548 55.1805 51.6667 61.858 42.4405C65.3445 37.619 65.8764 36.9643 66.29 37.1429C66.5855 37.2619 66.5264 37.7976 66.3491 38.9881C66.1718 40.1786 65.8764 42.0238 65.9946 43.9286C66.0537 44.9405 66.0536 46.0119 66.0536 46.9643C66.0536 49.3452 66.0537 51.4286 66.9991 51.9048C67.8265 52.3214 69.5402 51.4881 72.1403 49.3452C75.745 46.369 78.8769 43.0357 81.0043 39.9405C81.5952 39.1071 82.0679 38.2738 82.4225 37.5595C81.3588 36.8452 80.4724 36.25 80.0588 35.7143C79.4678 34.9405 79.5269 34.4048 79.6451 34.0476C79.8815 33.5119 80.4133 33.1548 81.1224 33.0357C82.0088 32.9167 82.8361 33.2738 83.368 33.9881C83.8407 34.6429 83.6635 35.8333 82.9543 37.4405C83.0725 37.5 83.1316 37.5595 83.2498 37.619C86.7954 39.9405 91.6411 43.0952 90.0455 47.1429C88.9228 49.881 87.4454 51.3095 85.6135 51.9048C87.2681 52.8571 88.9819 53.1548 93.532 51.1309L104.464 46.25C104.582 46.1905 104.701 46.25 104.701 46.369C104.76 46.4881 104.701 46.6071 104.582 46.6071L93.6502 51.4881C88.6273 53.75 86.8545 53.2143 85.0226 52.0833C83.4271 52.4405 81.6543 52.3214 79.6451 51.9048C78.8769 51.7262 78.4041 51.4286 78.286 51.0714C78.1678 50.7738 78.3451 50.4167 78.6405 50.119C79.1724 49.6429 80.1179 49.2262 80.9452 49.5238C82.5407 50.0595 83.5453 50.7738 84.4908 51.369C84.668 51.4881 84.9044 51.6071 85.0817 51.7262C86.9727 51.1905 88.45 49.8214 89.5728 47.0833C91.1092 43.3929 86.3818 40.2976 82.9543 38.0357C82.8952 37.9762 82.7771 37.9167 82.718 37.8571C81.1224 41.0714 77.4587 45.5357 72.3766 49.7619C69.5402 52.0833 67.8264 52.8571 66.8219 52.381C65.64 51.8452 65.64 49.7619 65.64 47.1429C65.64 46.131 65.64 45.119 65.5809 44.1071C65.4627 42.2024 65.7582 40.3571 65.9355 39.1071C66.0537 38.5119 66.1127 37.9167 66.1127 37.6786C65.64 37.9762 63.8672 40.4167 62.1535 42.7976C55.4169 52.0238 43.0073 56.0714 42.83 56.0714C42.83 56.0714 42.8891 56.0714 42.83 56.0714ZM80.4133 49.7024C79.8815 49.7024 79.2906 49.9405 78.936 50.2976C78.6996 50.4762 78.6405 50.7143 78.6996 50.8929C78.7587 51.131 79.1133 51.369 79.7633 51.4881C81.5952 51.8452 83.1907 52.0238 84.609 51.7857C84.4908 51.7262 84.4317 51.6667 84.3135 51.6071C83.4271 51.0119 82.4225 50.3571 80.8861 49.8214C80.7679 49.7619 80.5906 49.7024 80.4133 49.7024ZM81.4179 33.3929C81.3588 33.3929 81.2406 33.3929 81.1815 33.3929C80.6497 33.4524 80.177 33.75 79.9997 34.1667C79.8224 34.5238 79.9406 35 80.3542 35.4762C80.7088 35.9524 81.5952 36.5476 82.5998 37.2024C83.2498 35.7738 83.4271 34.7024 83.0725 34.1667C82.5998 33.6309 81.9497 33.3929 81.4179 33.3929Z" fill="#00006B"/>
<g opacity="0.2">
<g opacity="0.2">
<path opacity="0.2" d="M69.4811 33.3929C69.422 33.3929 69.422 33.3929 69.4811 33.3929C67.3537 33.3929 65.6991 31.9643 65.6991 30.119C65.6991 29.1071 66.0537 28.2738 66.8219 27.6786C68.181 26.6071 70.1311 27.0238 70.8993 27.2619C71.4311 27.4405 71.8448 27.7381 72.0812 28.1548C72.7903 28.5119 73.3221 29.2857 73.263 30.119C73.0857 32.0238 71.5493 33.3929 69.4811 33.3929Z" fill="#00006B"/>
</g>
</g>
<g opacity="0.25">
<g opacity="0.25">
<path opacity="0.25" d="M69.4811 33.0952C69.4811 33.0952 69.422 33.0952 69.4811 33.0952C67.4719 33.0952 65.9946 31.8452 65.9946 30.119C65.9946 29.2262 66.3491 28.4524 66.9992 27.9167C68.2992 26.9048 70.2493 27.3809 70.7811 27.5595C71.2539 27.6786 71.6084 28.0357 71.8448 28.4524C72.4948 28.75 72.9676 29.4048 72.9676 30.1786C72.8494 31.8452 71.3721 33.0952 69.4811 33.0952Z" fill="#00006B"/>
</g>
</g>
<g opacity="0.3">
<g opacity="0.3">
<path opacity="0.3" d="M69.4811 32.7976C69.4811 32.7976 69.422 32.7976 69.4811 32.7976C67.6492 32.7976 66.29 31.6667 66.29 30.119C66.29 29.3452 66.5855 28.6309 67.1764 28.1548C68.3583 27.2619 70.1902 27.6786 70.722 27.8571C71.1357 27.9762 71.4902 28.2738 71.6675 28.6905C72.2585 28.869 72.7312 29.4643 72.6721 30.1786C72.5539 31.6667 71.1948 32.7976 69.4811 32.7976Z" fill="#00006B"/>
</g>
</g>
<path d="M69.4811 32.5C69.4811 32.5 69.422 32.5 69.4811 32.5C67.8265 32.5 66.5855 31.4881 66.5855 30.119C66.5855 29.4048 66.8219 28.8095 67.3537 28.3928C68.4174 27.5595 70.1311 27.9762 70.6038 28.0952C70.9584 28.2143 71.2539 28.5119 71.3721 28.869C71.963 28.9881 72.3767 29.5238 72.3176 30.119C72.2585 31.4881 71.0766 32.5 69.4811 32.5Z" fill="#00006B"/>
<path d="M69.481 32.2619C69.481 32.2619 69.422 32.2619 69.481 32.2619C67.9446 32.2619 66.8218 31.3095 66.7628 30.119C66.7628 29.4643 66.9991 28.9286 67.4719 28.6309C68.4765 27.8571 70.072 28.2738 70.5447 28.3928C70.8993 28.5119 71.1357 28.8095 71.1947 29.1667C71.7266 29.2262 72.1402 29.6428 72.0811 30.1786C72.0221 31.369 70.9584 32.2619 69.481 32.2619ZM68.7128 30.119C68.7719 30.2381 69.0674 30.3571 69.422 30.3571C69.5992 30.3571 69.8356 30.2976 69.9538 30.2381C69.5401 30.119 69.0083 30.0595 68.7128 30.119Z" fill="#00006B"/>
<path d="M69.4811 32.0238C69.4811 32.0238 69.422 32.0238 69.4811 32.0238C68.0628 32.0238 66.9991 31.1905 66.9991 30.0595C66.9991 29.3452 67.2946 28.9286 67.5901 28.75C68.5356 28.0357 70.1311 28.4524 70.4857 28.5714C70.8402 28.6905 71.0766 28.9881 71.0175 29.3452C71.0766 29.3452 71.1357 29.3452 71.1948 29.3452C71.6084 29.3452 71.9039 29.7024 71.9039 30.119C71.8448 31.25 70.8402 32.0238 69.4811 32.0238ZM69.0083 29.8809C68.7719 29.8809 68.5356 29.9405 68.4765 30C68.4765 30 68.4765 30.0595 68.4765 30.119C68.4765 30.4167 69.0083 30.5952 69.4811 30.5952C69.8356 30.5952 70.4266 30.4762 70.4266 30.119C70.4266 30.119 70.4266 30.119 70.4266 30.0595C70.3084 30.0595 70.1902 30.0595 70.072 30.0595C69.6583 29.8809 69.3038 29.8809 69.0083 29.8809Z" fill="#00006B"/>
<path d="M69.4811 31.7857C69.4811 31.7857 69.422 31.7857 69.4811 31.7857C68.3583 31.7857 67.2946 31.1905 67.2355 30.119C67.2355 29.5238 67.4719 29.1667 67.7083 28.9881C68.5356 28.3333 70.1902 28.75 70.3675 28.8095C70.6039 28.869 70.7811 29.1667 70.722 29.4048C70.663 29.6429 70.3675 29.8214 70.1311 29.7619C69.5993 29.5833 68.6538 29.5238 68.3583 29.7619C68.2992 29.8214 68.2401 29.8809 68.2401 30.0595C68.2401 30.5357 68.8901 30.7738 69.4811 30.7738C69.9538 30.7738 70.6629 30.6548 70.6629 30.0595C70.6629 29.7619 70.8993 29.5833 71.1948 29.5833C71.4903 29.5833 71.6675 29.8214 71.6675 30.119C71.5493 31.1309 70.6629 31.7857 69.4811 31.7857Z" fill="#00006B"/>
<path d="M69.4811 31.4881C69.4811 31.4881 69.422 31.4881 69.4811 31.4881C68.5356 31.4881 67.5901 31.0119 67.531 30.0595C67.531 29.7024 67.6492 29.4048 67.8856 29.1667C68.6538 28.5714 70.1902 29.0476 70.2493 29.0476C70.3675 29.0476 70.4266 29.1667 70.3675 29.2857C70.3675 29.4048 70.2493 29.4643 70.1311 29.4048C69.7175 29.2857 68.5947 29.0476 68.0628 29.4643C67.8856 29.5833 67.8265 29.7619 67.8265 30.0595C67.8265 30.7143 68.5947 31.0714 69.3629 31.0714C70.072 31.0714 70.7811 30.7738 70.8402 30.0595C70.8402 29.9405 70.9584 29.8809 71.0175 29.8809C71.1357 29.8809 71.1948 30 71.1948 30.0595C71.2539 31.0714 70.3084 31.4881 69.4811 31.4881Z" fill="#00006B"/>
<g opacity="0.2">
<g opacity="0.2">
<path opacity="0.2" d="M11.9833 64.0476C11.5696 64.0476 11.156 63.9286 10.8014 63.6905C9.32407 62.6786 4.6557 59.1667 5.42391 55.6548C5.83756 53.6905 7.61036 52.4405 10.6832 51.9643C11.7469 51.7857 12.9288 51.7857 14.2288 51.8452L32.3114 11.369C32.7841 10.2976 34.0251 9.88095 35.0297 10.2976C36.0933 10.7738 36.507 12.0238 36.0933 13.0357L18.6017 52.2619C28.1157 53.3929 40.939 54.2857 50.453 28.75C54.5305 17.7381 52.2258 9.88095 44.0118 6.60714C38.0434 4.22619 29.8885 4.70238 22.2655 7.91667C13.7561 11.4286 7.37399 17.619 4.18295 25.3571C3.7693 26.4286 2.52834 26.9048 1.46466 26.4881C0.400979 26.0714 -0.0717683 24.8214 0.341885 23.75C3.94658 15.0595 11.0969 8.03571 20.5518 4.10714C29.1794 0.47619 38.4571 2.22532e-06 45.4301 2.7381C55.8305 6.84524 59.0806 17.1429 54.235 30.2381C43.3618 59.4643 27.0521 57.5 17.3608 56.369C17.1835 56.369 16.9471 56.3095 16.7698 56.3095L13.8743 62.8571C13.6379 63.3928 13.1651 63.869 12.5742 63.9881C12.3969 63.9881 12.2196 64.0476 11.9833 64.0476ZM9.56044 56.6071C9.73772 57.0833 10.3877 57.8571 11.2151 58.6309L12.3969 55.9524C12.0424 55.9524 11.6878 56.0119 11.3923 56.0714C10.2696 56.1905 9.79681 56.4881 9.56044 56.6071Z" fill="#00006B"/>
</g>
</g>
<g opacity="0.25">
<g opacity="0.25">
<path opacity="0.25" d="M11.9833 63.75C11.6287 63.75 11.2742 63.6309 10.9787 63.4524C9.56046 62.5 5.01027 59.0476 5.77849 55.7143C6.19214 53.869 7.84675 52.7381 10.8014 52.2619C11.9242 52.0833 13.1652 52.0833 14.4652 52.2024L32.6069 11.4286C33.0205 10.5357 34.0842 10.119 34.9706 10.5357C35.857 10.9524 36.2706 12.0238 35.857 12.9167L18.1881 52.5C27.8794 53.6309 40.9981 54.9405 50.7485 28.8095C54.885 17.619 52.5804 9.64285 44.13 6.30952C38.1025 3.86904 29.8295 4.40475 22.1473 7.61904C13.6379 11.1905 7.19672 17.4405 4.00569 25.1786C3.65113 26.0714 2.58744 26.5476 1.70104 26.1309C0.814645 25.7738 0.3419 24.7024 0.755553 23.8095C4.30115 15.1786 11.4514 8.21428 20.8473 4.28571C29.4158 0.714278 38.6344 0.178564 45.4892 2.91666C55.7123 6.96428 58.9034 17.1428 54.1168 30C43.3027 59.0476 27.8203 57.1428 17.5381 55.9524C17.2426 55.8928 17.0062 55.8929 16.7107 55.8333L13.6379 62.6786C13.4015 63.1548 12.9879 63.5119 12.5151 63.6905C12.3378 63.6905 12.1606 63.75 11.9833 63.75ZM9.26499 56.4881C9.26499 56.9643 10.0923 58.0357 11.3333 59.1667L12.8697 55.6548C12.3378 55.6548 11.806 55.6548 11.3333 55.7738C9.79683 56.0119 9.32408 56.369 9.26499 56.4881Z" fill="#00006B"/>
</g>
</g>
<g opacity="0.3">
<g opacity="0.3">
<path opacity="0.3" d="M11.9833 63.4524C11.6878 63.4524 11.3923 63.3929 11.156 63.2143C9.79683 62.2619 5.36483 58.9286 6.07395 55.7738C6.42851 54.1071 8.02403 52.9762 10.8605 52.5595C11.9833 52.381 13.2833 52.381 14.6425 52.5L32.9023 11.6071C33.2569 10.8333 34.0842 10.5357 34.8524 10.8333C35.6206 11.1905 35.9161 12.0238 35.6206 12.7976L17.7744 52.7976C17.8335 52.7976 17.8335 52.7976 17.8926 52.7976C27.7021 53.9881 41.1163 55.5952 51.044 28.9881C55.1805 17.7976 52.7577 9.46429 44.2482 6.07143C38.1025 3.63096 29.8295 4.10715 22.0291 7.38095C13.4606 11.0119 6.96035 17.2619 3.71022 25.119C3.41475 25.8929 2.52835 26.25 1.76014 25.8929C0.991925 25.5952 0.637363 24.7024 0.991923 23.9286C4.53752 15.3571 11.6287 8.51191 20.9064 4.58334C29.3567 1.01191 38.5162 0.535717 45.3119 3.21429C55.3578 7.20238 58.5488 17.2024 53.7623 29.9405C43.0073 58.75 27.7021 56.9048 17.479 55.6548C17.1244 55.5952 16.7698 55.5952 16.4744 55.5357L13.4015 62.5C13.2242 62.9167 12.8697 63.2143 12.456 63.3333C12.2787 63.3929 12.1606 63.4524 11.9833 63.4524ZM12.8106 55.3571C12.2787 55.3571 11.7469 55.4167 11.2742 55.4762C9.44227 55.7738 8.96952 56.25 8.91043 56.4286C8.79224 56.9643 9.91502 58.3929 11.3923 59.6429L13.2833 55.3571C13.1651 55.3571 12.9879 55.3571 12.8106 55.3571Z" fill="#00006B"/>
</g>
</g>
<path d="M11.9832 63.1548C11.7469 63.1548 11.5105 63.0953 11.3332 62.9762C10.3877 62.3215 5.66026 58.9286 6.36938 55.8334C6.72394 54.2857 8.26037 53.2738 10.9196 52.7976C12.1014 52.6191 13.4015 52.6191 14.8788 52.7381L33.1977 11.6667C33.4932 11.0714 34.1432 10.7738 34.7342 11.0714C35.3251 11.3691 35.6206 12.0238 35.3251 12.6191L17.3016 52.9762C17.4789 52.9762 17.6562 53.0357 17.8335 53.0357C27.7612 54.2262 41.2935 55.8334 51.2803 28.9881C55.535 17.6191 52.994 9.16668 44.3073 5.7143C31.484 0.595247 10.3877 8.03572 3.41472 24.9405C3.17835 25.5357 2.46922 25.8333 1.87829 25.5953C1.28736 25.3572 0.991893 24.6429 1.22827 24.0476C8.67402 5.95239 31.3658 -1.96428 45.1937 3.51191C55.0623 7.44048 58.1942 17.2619 53.4667 29.8214C42.8299 58.3929 27.5839 56.6072 17.538 55.3572C17.1244 55.2976 16.7107 55.2381 16.2971 55.2381L13.106 62.381C12.9878 62.6786 12.6924 62.9167 12.3378 63.0357C12.2196 63.1548 12.1014 63.1548 11.9832 63.1548ZM12.8106 55.0595C12.2196 55.0595 11.7469 55.1191 11.2741 55.1786C9.50133 55.4762 8.73311 55.9524 8.67402 56.3691C8.49674 57.1429 9.91498 58.8095 11.5105 60.1786L13.756 55.1191C13.4606 55.0595 13.1651 55.0595 12.8106 55.0595Z" fill="#00006B"/>
<path d="M11.9833 62.9167C11.806 62.9167 11.6287 62.8572 11.4514 62.7381C10.5059 62.0834 5.89664 58.75 6.54667 55.8334C6.84214 54.4048 8.31947 53.3929 10.9196 52.9762C12.1014 52.7976 13.4606 52.7976 14.9379 52.9167L33.3159 11.7262C33.5523 11.25 34.0842 11.0119 34.5569 11.25C35.0297 11.4881 35.266 12.0238 35.0296 12.5L16.888 53.0953C17.1835 53.1548 17.4198 53.1548 17.7153 53.2143C27.7021 54.4048 41.3526 56.0714 51.3985 29.0476C55.6532 17.5595 53.1122 8.9881 44.3073 5.47619C31.3659 0.35714 10.1514 7.79762 3.11926 24.8214C2.94198 25.2976 2.35104 25.5357 1.8783 25.3572C1.40555 25.1786 1.16918 24.5833 1.34646 24.1072C8.85131 6.19048 31.3659 -1.72619 45.0755 3.75C54.8259 7.61905 57.8988 17.381 53.2304 29.8214C42.6527 58.2143 27.5248 56.4286 17.538 55.2381C17.0653 55.1786 16.5925 55.1191 16.1198 55.0595L12.8697 62.381C12.7515 62.6191 12.5151 62.8572 12.2787 62.9167C12.1605 62.9167 12.1014 62.9167 11.9833 62.9167ZM12.8106 54.8214C12.2196 54.8214 11.6878 54.881 11.215 54.9405C9.56043 55.2381 8.55584 55.7143 8.43766 56.3095C8.20128 57.3214 9.97408 59.1667 11.6287 60.4762L14.1106 54.881C13.697 54.8214 13.2242 54.8214 12.8106 54.8214Z" fill="#00006B"/>
<path d="M11.9833 62.6786C11.8651 62.6786 11.6878 62.619 11.5696 62.5595C11.0378 62.2024 6.13304 58.75 6.78306 55.8929C7.07853 54.5238 8.49677 53.631 10.9196 53.2143C12.1606 53.0357 13.5197 53.0357 15.0561 53.2143L33.4932 11.8452C33.6705 11.4881 34.0842 11.3095 34.4978 11.4881C34.8524 11.6667 35.0297 12.0833 34.8524 12.5L16.5926 53.3929C16.9471 53.4524 17.3017 53.4524 17.7153 53.5119C27.7612 54.7024 41.5299 56.369 51.6349 29.2262C55.9487 17.619 53.3486 8.92858 44.4255 5.35715C31.425 0.178575 10.0332 7.67857 2.942 24.8214C2.76472 25.1786 2.35106 25.3571 1.9965 25.2381C1.64194 25.0595 1.46466 24.6429 1.58285 24.2857C8.96951 6.42857 31.3659 -1.42857 44.9573 3.9881C54.7077 7.85714 57.6624 17.2619 52.994 29.7619C42.4754 58.0357 27.4657 56.1905 17.538 55C17.0062 54.9405 16.4744 54.8809 15.9425 54.8214L12.6333 62.2619C12.5151 62.4405 12.3969 62.6191 12.1606 62.6786C12.1606 62.6786 12.1015 62.6786 11.9833 62.6786ZM12.8106 54.5833C12.2196 54.5833 11.6878 54.6429 11.156 54.7024C9.38317 55 8.31949 55.5357 8.2013 56.1905C7.96493 57.381 9.91501 59.4048 11.6878 60.7738L14.4061 54.6429C13.8743 54.6429 13.3424 54.5833 12.8106 54.5833Z" fill="#00006B"/>
<path d="M11.9833 62.4405C11.8651 62.4405 11.806 62.4405 11.6878 62.381C11.156 62.0238 6.42851 58.6905 7.01944 56.0119C7.31491 54.7619 8.61496 53.9286 10.9787 53.5714C12.2197 53.3929 13.6379 53.3929 15.2334 53.5714L33.7887 12.0833C33.9069 11.8452 34.2024 11.7262 34.4387 11.8452C34.6751 11.9643 34.7933 12.2619 34.6751 12.5L16.2971 53.6905C16.7698 53.75 17.2426 53.8095 17.7744 53.869C27.3475 55 41.7663 56.7262 51.9304 29.4048C56.3033 17.619 53.6441 8.80952 44.6028 5.2381C31.4841 1.66928e-06 9.91502 7.61905 2.82382 24.8214C2.70563 25.0595 2.41016 25.1786 2.17379 25.0595C1.93742 24.9405 1.81923 24.6429 1.93742 24.4048C9.26499 6.66667 31.4841 -1.13095 45.0164 4.28572C49.5666 6.07143 59.4352 12.2024 52.9349 29.7024C42.4754 57.7976 27.5839 56.0119 17.7153 54.8214C17.1244 54.7619 16.5335 54.7024 15.9425 54.6429L12.456 62.1429C12.3969 62.2619 12.2787 62.3809 12.1606 62.4405C12.1015 62.4405 12.0424 62.4405 11.9833 62.4405ZM12.8106 54.3452C12.2197 54.3452 11.6287 54.4048 11.156 54.4643C9.85592 54.7024 8.20131 55.1786 7.96494 56.1905C7.61038 57.7381 10.3287 60.119 11.806 61.1905L14.8198 54.4048C14.1106 54.4048 13.4606 54.3452 12.8106 54.3452Z" fill="#00006B"/>
<path d="M11.9833 62.1429C11.9242 62.1429 11.9242 62.1429 11.8651 62.0833C11.6287 61.9643 6.72396 58.5119 7.3149 56.0119C7.55127 54.881 8.79223 54.1667 11.0378 53.75C12.2787 53.5714 13.7561 53.631 15.4107 53.75L34.0251 12.0238C34.0842 11.9048 34.2024 11.9048 34.2615 11.9048C34.3796 11.9643 34.3796 12.0833 34.3796 12.1429L15.8243 53.75C16.4153 53.8095 17.0653 53.8691 17.6562 53.9881C27.2884 55.1191 41.8845 56.9048 52.1667 29.3452C58.4897 12.381 49.0348 6.54762 44.6619 4.76191C31.425 -0.535714 9.67863 7.14286 2.46924 24.5238C2.41015 24.6429 2.29197 24.6429 2.23287 24.6429C2.11469 24.5833 2.11469 24.4643 2.11469 24.4048C9.38316 6.78572 31.425 -0.892861 44.7801 4.40476C49.2712 6.19047 58.9625 12.2024 52.5213 29.4643C42.1209 57.3214 27.4066 55.5357 17.5971 54.4048C16.888 54.3452 16.238 54.2262 15.6471 54.1667L12.1605 62.0238C12.1605 62.0833 12.1015 62.1429 11.9833 62.1429C12.0424 62.1429 12.0424 62.1429 11.9833 62.1429ZM12.8106 54.0476C12.2196 54.0476 11.6287 54.1072 11.0969 54.1667C9.0286 54.5238 7.90583 55.1786 7.66946 56.131C7.19671 58.1548 10.9787 61.0119 11.9242 61.6667L15.2334 54.1667C14.4061 54.1072 13.5788 54.0476 12.8106 54.0476Z" fill="#00006B"/>
<g opacity="0.2">
<g opacity="0.2">
<path opacity="0.2" d="M199.664 33.0952C198.659 33.0952 197.773 32.3809 197.595 31.3095C197.418 30.1786 198.186 29.1071 199.309 28.9286C201.555 28.5714 204.214 27.4405 204.45 26.4286C204.687 25.2976 205.75 24.5833 206.873 24.8214C207.996 25.0595 208.705 26.131 208.469 27.2619C208.291 28.0357 207.169 31.9643 199.9 33.0952C199.841 33.0952 199.782 33.0952 199.664 33.0952Z" fill="#00006B"/>
</g>
</g>
<g opacity="0.25">
<g opacity="0.25">
<path opacity="0.25" d="M199.664 32.7976C198.777 32.7976 198.068 32.1429 197.891 31.3095C197.714 30.3571 198.423 29.4048 199.368 29.2857C201.436 28.9286 204.509 27.7976 204.746 26.5476C204.923 25.5952 205.868 24.9405 206.814 25.1191C207.759 25.2976 208.409 26.25 208.232 27.2024C207.405 31.4881 200.668 32.6786 199.9 32.7976C199.841 32.7976 199.723 32.7976 199.664 32.7976Z" fill="#00006B"/>
</g>
</g>
<g opacity="0.3">
<g opacity="0.3">
<path opacity="0.3" d="M199.664 32.5C198.954 32.5 198.304 31.9643 198.186 31.25C198.068 30.4167 198.6 29.7024 199.427 29.5238C201.496 29.1667 204.746 28.0357 205.041 26.5476C205.218 25.7143 205.987 25.2381 206.755 25.3572C207.582 25.5357 208.055 26.3095 207.937 27.0833C207.109 31.1905 200.609 32.3214 199.9 32.4405C199.782 32.5 199.723 32.5 199.664 32.5Z" fill="#00006B"/>
</g>
</g>
<path d="M199.664 32.2024C199.073 32.2024 198.6 31.7857 198.482 31.1905C198.364 30.5357 198.836 29.9405 199.486 29.8214C201.259 29.5238 204.982 28.3929 205.337 26.6071C205.455 25.9524 206.105 25.5357 206.755 25.6548C207.405 25.7738 207.819 26.4286 207.7 27.0833C206.932 31.0119 200.609 32.0833 199.9 32.2024C199.782 32.2024 199.723 32.2024 199.664 32.2024Z" fill="#00006B"/>
<path d="M199.664 31.9643C199.191 31.9643 198.777 31.6071 198.718 31.131C198.659 30.5952 199.014 30.119 199.545 30C200.964 29.7619 205.159 28.6905 205.573 26.6071C205.691 26.0714 206.164 25.7738 206.696 25.8333C207.228 25.9524 207.582 26.4286 207.464 26.9643C206.696 30.7143 200.55 31.7857 199.841 31.9048C199.782 31.9643 199.723 31.9643 199.664 31.9643Z" fill="#00006B"/>
<path d="M199.664 31.7857C199.309 31.7857 199.014 31.5476 198.954 31.1309C198.895 30.7143 199.191 30.3571 199.545 30.2976C201.141 30.0595 205.337 28.9286 205.75 26.7262C205.809 26.3095 206.223 26.0714 206.637 26.1309C207.05 26.1905 207.287 26.6071 207.228 27.0238C206.518 30.6548 200.491 31.6667 199.782 31.7857C199.723 31.7857 199.723 31.7857 199.664 31.7857Z" fill="#00006B"/>
<path d="M199.664 31.4881C199.427 31.4881 199.191 31.3095 199.191 31.0714C199.132 30.7738 199.309 30.5357 199.605 30.5357C201.259 30.2976 205.573 29.1071 206.046 26.7857C206.105 26.5476 206.341 26.3691 206.637 26.4286C206.873 26.4881 207.05 26.7262 206.991 27.0238C206.282 30.5357 200.018 31.5476 199.723 31.5476C199.723 31.4881 199.664 31.4881 199.664 31.4881Z" fill="#00006B"/>
<path d="M199.664 31.1905C199.545 31.1905 199.486 31.131 199.486 31.0119C199.486 30.8929 199.545 30.8333 199.664 30.7738C199.723 30.7738 205.75 29.8214 206.341 26.7857C206.341 26.6667 206.459 26.6071 206.577 26.6071C206.696 26.6071 206.755 26.7262 206.755 26.8452C206.046 30.1786 199.959 31.1905 199.664 31.1905Z" fill="#00006B"/>
<g opacity="0.2">
<g opacity="0.2">
<path opacity="0.2" d="M106.828 54.7024C104.996 54.7024 103.932 53.8095 103.401 53.1548C101.273 50.5357 102.573 45.6548 104.051 41.9643C104.228 41.4881 108.542 30.9524 113.328 30.3571C114.392 30.2381 115.397 30.5952 116.165 31.3095C117.878 32.9167 117.76 36.1309 117.701 37.0238C117.642 38.1548 116.638 39.0476 115.515 38.9286C114.392 38.869 113.506 37.8571 113.624 36.7262C113.683 36.0714 113.624 35.2381 113.506 34.7024C112.028 35.7738 108.837 40.3571 107.183 45.6548C106.178 48.8691 106.533 50.2381 106.651 50.4762C106.651 50.4762 106.71 50.4762 106.828 50.4762C106.946 50.4762 107.064 50.4762 107.301 50.4167C115.81 48.8095 121.07 43.4524 121.129 43.3929C121.897 42.5595 123.256 42.5595 124.024 43.3333C124.851 44.1071 124.851 45.4762 124.083 46.25C123.847 46.4881 117.878 52.6191 108.069 54.4643C107.596 54.7024 107.242 54.7024 106.828 54.7024Z" fill="#00006B"/>
</g>
</g>
<g opacity="0.25">
<g opacity="0.25">
<path opacity="0.25" d="M106.828 54.4048C105.233 54.4048 104.228 53.6905 103.696 52.9762C101.687 50.4762 102.987 45.6548 104.405 42.0833C105.942 38.3333 109.783 31.0714 113.446 30.6548C114.392 30.5357 115.337 30.8333 115.987 31.4881C117.583 33.0357 117.465 36.0714 117.406 36.9643C117.347 37.9762 116.46 38.6905 115.515 38.631C114.51 38.5714 113.801 37.6786 113.86 36.7262C113.919 35.8333 113.801 34.7619 113.624 34.2857C111.26 35.2976 105.41 45.8333 106.237 50.1786C106.355 50.7143 106.355 50.8929 107.36 50.7143C115.987 49.1072 121.247 43.6905 121.306 43.631C122.015 42.9167 123.079 42.9167 123.788 43.5714C124.497 44.2857 124.497 45.3572 123.847 46.0714C123.611 46.3095 117.701 52.381 108.01 54.2262C107.596 54.4048 107.183 54.4048 106.828 54.4048Z" fill="#00006B"/>
</g>
</g>
<g opacity="0.3">
<g opacity="0.3">
<path opacity="0.3" d="M106.828 54.1071C105.292 54.1071 104.405 53.4524 103.873 52.7976C101.923 50.4167 103.223 45.7143 104.642 42.2024C106.119 38.5119 109.901 31.369 113.446 30.9524C114.333 30.8333 115.16 31.131 115.751 31.7262C117.288 33.2143 117.11 36.369 117.11 36.9643C117.051 37.7976 116.342 38.3929 115.515 38.3333C114.687 38.2738 114.096 37.5595 114.156 36.7262C114.215 35.5952 114.037 34.2262 113.742 33.869C112.856 34.0476 109.842 37.0833 107.36 43.2738C105.587 47.6786 105.646 50.2381 106.178 50.8333C106.414 51.1309 106.946 51.0714 107.36 51.0119C116.106 49.3452 121.424 43.869 121.483 43.8095C122.074 43.2143 122.96 43.2143 123.551 43.75C124.142 44.3452 124.142 45.2381 123.611 45.8333C123.374 46.0714 117.524 52.0833 107.892 53.869C107.537 54.1071 107.183 54.1071 106.828 54.1071Z" fill="#00006B"/>
</g>
</g>
<path d="M106.828 53.8095C105.41 53.8095 104.582 53.2143 104.11 52.619C102.16 50.2381 103.755 45.1786 104.878 42.3809C106.592 38.1548 110.255 31.7262 113.446 31.3095C114.274 31.1905 114.983 31.4286 115.515 32.0238C116.933 33.3928 116.815 36.4286 116.756 37.0238C116.697 37.6786 116.165 38.1548 115.515 38.0952C114.865 38.0357 114.392 37.5 114.451 36.8452C114.51 35.6547 114.333 34.1071 113.919 33.75C113.86 33.6905 113.86 33.6905 113.742 33.6905C112.56 33.8095 109.369 37.619 107.064 43.2738C105.351 47.5595 105.233 50.2976 105.942 51.1309C106.06 51.25 106.296 51.6071 107.419 51.369C116.224 49.7024 121.66 44.1666 121.72 44.1071C122.192 43.6309 122.901 43.6309 123.374 44.1071C123.847 44.5833 123.847 45.2976 123.374 45.7738C123.138 46.0119 117.347 51.9643 107.833 53.75C107.478 53.8095 107.183 53.8095 106.828 53.8095Z" fill="#00006B"/>
<path d="M106.828 53.631C105.528 53.631 104.76 53.0357 104.287 52.5C102.396 50.1786 103.992 45.2381 105.114 42.4405C106.828 38.2738 110.433 31.9048 113.506 31.5476C114.215 31.4881 114.924 31.6667 115.397 32.2024C116.756 33.5119 116.637 36.4881 116.578 37.0238C116.519 37.5595 116.047 37.9762 115.574 37.9167C115.042 37.8571 114.628 37.4405 114.687 36.9048C114.747 35.8929 114.628 34.1071 114.096 33.631C114.037 33.5714 113.919 33.5119 113.742 33.5119C112.324 33.6905 109.074 37.8571 106.887 43.2143C105.351 47.0833 104.878 50.2381 105.764 51.3095C105.883 51.4286 106.237 51.9048 107.478 51.6667C116.342 50 121.838 44.4048 121.897 44.3452C122.251 43.9881 122.901 43.9286 123.256 44.3452C123.61 44.7619 123.67 45.3572 123.256 45.7143C123.02 45.9524 117.288 51.8452 107.833 53.631C107.478 53.5714 107.123 53.631 106.828 53.631Z" fill="#00006B"/>
<path d="M106.828 53.3929C105.587 53.3929 104.878 52.8571 104.464 52.381C102.691 50.1786 104.228 45.2976 105.351 42.5595C107.36 37.5595 110.905 32.0833 113.565 31.7857C114.215 31.7262 114.806 31.9048 115.278 32.3809C116.578 33.6905 116.401 36.7262 116.401 37.0238C116.342 37.4405 115.987 37.7381 115.633 37.7381C115.219 37.6786 114.924 37.3809 114.924 36.9643C114.983 36.0714 114.924 34.1071 114.274 33.5119C114.096 33.3928 113.978 33.3333 113.742 33.3333C112.205 33.5119 108.955 37.619 106.71 43.1548C105.114 47.0833 104.701 50.3571 105.646 51.4881C105.764 51.6667 106.178 52.1429 107.537 51.9048C116.46 50.2381 122.015 44.5833 122.074 44.5238C122.37 44.2262 122.842 44.2262 123.138 44.5238C123.433 44.8214 123.433 45.2976 123.138 45.5952C122.901 45.8333 117.228 51.6667 107.833 53.4524C107.478 53.3333 107.123 53.3929 106.828 53.3929Z" fill="#00006B"/>
<path d="M106.828 53.1548C105.883 53.1548 105.173 52.8572 104.701 52.2024C102.928 50 104.76 44.7619 105.587 42.6191C107.596 37.6786 111.083 32.3214 113.624 32.0238C114.215 31.9643 114.747 32.1429 115.16 32.5C116.401 33.6905 116.224 36.6072 116.224 36.9643C116.224 37.2619 115.987 37.4405 115.692 37.4405C115.397 37.4405 115.219 37.2024 115.219 36.9048C115.278 36.131 115.278 33.9881 114.451 33.2143C114.274 33.0357 114.037 32.9762 113.683 32.9762C111.851 33.2143 108.542 37.7381 106.473 42.9762C104.819 47.0238 104.405 50.2976 105.41 51.5476C105.823 52.0833 106.533 52.2619 107.537 52.0238C116.578 50.3572 122.133 44.5833 122.192 44.5238C122.37 44.3453 122.665 44.3453 122.901 44.5238C123.079 44.7024 123.079 45 122.901 45.2381C122.665 45.4762 117.051 51.25 107.714 52.9762C107.419 53.0953 107.123 53.1548 106.828 53.1548Z" fill="#00006B"/>
<path d="M106.828 52.8572C106.001 52.8572 105.351 52.5595 104.878 52.0238C103.223 49.9405 104.996 44.881 105.823 42.7381C107.833 37.7976 111.26 32.5595 113.624 32.3214C114.156 32.2619 114.569 32.381 114.924 32.7381C116.106 33.8691 115.869 36.8453 115.869 36.9643C115.869 37.0833 115.751 37.1429 115.692 37.1429C115.574 37.1429 115.515 37.0238 115.515 36.9643C115.515 36.9643 115.692 34.0476 114.687 33.0357C114.392 32.7976 114.096 32.6786 113.683 32.7381C111.733 32.9762 108.424 37.5595 106.237 42.9167C104.523 47.1429 104.169 50.4762 105.232 51.7857C105.705 52.381 106.533 52.6191 107.655 52.381C116.756 50.6548 122.429 44.881 122.488 44.8214C122.547 44.7619 122.665 44.7619 122.783 44.8214C122.842 44.881 122.842 45 122.783 45.1191C122.724 45.1786 116.992 51.0714 107.773 52.7976C107.419 52.7976 107.123 52.8572 106.828 52.8572Z" fill="#00006B"/>
<g opacity="0.2">
<g opacity="0.2">
<path opacity="0.2" d="M149.907 54.8214C148.607 54.8214 147.425 54.5833 146.421 53.9881C144.943 53.1548 143.348 51.25 143.998 47.2619C144.411 44.4643 146.775 42.2619 148.607 40.4762C148.784 40.2976 148.962 40.119 149.139 39.9405C147.484 39.6429 146.066 39.2262 144.884 38.8095C142.875 41.1309 139.329 43.5714 134.956 44.5238C134.897 45.4167 134.779 46.369 134.543 47.2024C133.361 51.8452 130.17 54.7024 126.211 54.7024C123.256 54.7024 121.66 53.3333 120.892 52.1428C119.533 50.1786 119.415 47.2024 120.597 44.1667C121.72 41.25 124.201 39.4643 124.615 39.1667C124.852 38.6905 125.265 38.2143 125.738 37.8571C127.038 36.8452 129.402 36.3095 132.12 37.7976C133.125 38.3333 133.834 39.2857 134.306 40.3571C137.497 39.6429 139.92 37.9167 141.339 36.4881C141.043 36.1309 140.866 35.7143 140.748 35.2976C140.511 34.2857 140.807 33.2143 141.634 32.5595C142.58 31.7857 143.998 31.7262 145.239 32.3809C146.007 32.7976 146.775 33.631 146.716 34.9405C147.662 35.2381 148.962 35.5952 150.793 35.8929C151.503 36.0119 153.63 36.369 154.162 38.2143C154.753 40.1786 153.216 41.6667 151.384 43.3929C150.025 44.6429 148.193 46.4286 148.016 47.7976C147.898 48.75 147.839 49.9405 148.43 50.2976C150.971 51.7857 160.721 47.3809 165.153 43.869C166.04 43.1548 167.34 43.3333 168.049 44.2262C168.758 45.119 168.581 46.4286 167.694 47.1429C165.212 49.2857 156.171 54.8214 149.907 54.8214ZM125.797 43.6905C125.324 44.2262 124.792 44.8809 124.497 45.6548C123.847 47.3214 123.788 48.9286 124.379 49.7619C124.497 49.9405 124.852 50.4762 126.27 50.4762C129.284 50.4762 130.347 47.1429 130.584 46.1309C130.702 45.7143 130.761 45.2976 130.82 44.8809C129.874 44.8809 128.929 44.7619 127.983 44.5833C127.038 44.4048 126.329 44.1071 125.797 43.6905Z" fill="#00006B"/>
</g>
</g>
<g opacity="0.25">
<g opacity="0.25">
<path opacity="0.25" d="M149.966 54.5238C148.666 54.5238 147.543 54.2857 146.598 53.75C145.239 52.9167 143.702 51.1905 144.293 47.3214C144.707 44.6429 147.012 42.4405 148.843 40.7143C149.139 40.4167 149.493 40.119 149.789 39.7619C147.839 39.4048 146.184 38.9881 144.884 38.4524C142.934 40.8333 139.27 43.3929 134.72 44.2857C134.72 45.2381 134.543 46.25 134.306 47.1429C133.184 51.6071 130.111 54.4048 126.27 54.4048C123.433 54.4048 121.956 53.0952 121.188 52.0238C119.888 50.119 119.769 47.2619 120.892 44.3452C122.015 41.4286 124.556 39.7024 124.852 39.4643C124.852 39.4643 124.852 39.4643 124.911 39.4643C125.147 38.9881 125.502 38.5119 125.974 38.1548C127.215 37.2024 129.402 36.7262 132.061 38.1548C133.125 38.75 133.775 39.6429 134.247 40.7738C137.793 40.0595 140.452 38.0952 141.87 36.6071C141.516 36.1905 141.279 35.7738 141.161 35.3571C140.925 34.4643 141.22 33.5119 141.929 32.9762C142.816 32.2619 144.057 32.2024 145.239 32.7976C145.948 33.1548 146.657 34.0476 146.539 35.2976C147.484 35.6548 148.903 36.0119 150.853 36.369C151.503 36.4881 153.512 36.8452 153.985 38.5119C154.516 40.2976 153.039 41.7262 151.266 43.3333C149.848 44.7024 148.016 46.4286 147.78 47.9167C147.543 49.4048 147.721 50.3571 148.371 50.7143C151.089 52.3214 160.898 47.8571 165.39 44.2857C166.158 43.6905 167.281 43.8095 167.871 44.5833C168.462 45.3571 168.344 46.4881 167.576 47.0833C165.094 49.0476 156.053 54.5238 149.966 54.5238ZM125.797 43.3333C125.265 43.869 124.615 44.6429 124.261 45.5952C123.611 47.3809 123.551 49.0476 124.142 50C124.261 50.2381 124.733 50.8333 126.329 50.8333C129.52 50.8333 130.702 47.3214 130.938 46.25C131.056 45.6548 131.174 45.119 131.174 44.6429C130.17 44.6429 129.106 44.5238 128.043 44.3452C127.038 44.1071 126.27 43.75 125.797 43.3333ZM128.633 40.7738H128.693C129.047 40.8333 129.402 40.8929 129.756 40.9524C129.284 40.7738 128.87 40.7738 128.633 40.7738Z" fill="#00006B"/>
</g>
</g>
<g opacity="0.3">
<g opacity="0.3">
<path opacity="0.3" d="M149.966 54.2262C148.666 54.2262 147.602 53.9881 146.716 53.4524C145.416 52.6786 143.998 51.0119 144.589 47.3214C145.002 44.7024 147.248 42.619 149.021 40.8928C149.434 40.4762 150.025 39.9405 150.38 39.5238C150.321 39.5238 150.321 39.5238 150.262 39.5238C148.016 39.1071 146.125 38.6309 144.766 38.0952C142.875 40.4167 139.152 43.0952 134.484 43.9881C134.484 45 134.366 46.0714 134.129 47.0238C133.006 51.369 130.052 54.0476 126.329 54.0476C123.611 54.0476 122.192 52.7976 121.483 51.7857C120.242 50 120.124 47.2024 121.247 44.4047C122.37 41.5476 124.97 39.7619 125.088 39.7024C125.147 39.7024 125.147 39.6429 125.206 39.6429C125.442 39.1667 125.797 38.75 126.211 38.3929C127.688 37.2619 129.815 37.2619 131.943 38.3929C132.947 38.9286 133.656 39.9405 134.07 41.0714C137.084 40.4762 139.329 39.0476 140.334 38.2738C141.161 37.6786 141.811 37.0833 142.225 36.5476C141.811 36.1309 141.516 35.7143 141.398 35.2381C141.22 34.4643 141.457 33.6309 142.048 33.1548C142.816 32.5595 143.998 32.5 145.061 33.0357C145.711 33.3929 146.361 34.2262 146.184 35.4762C147.189 35.8333 148.666 36.25 150.793 36.6667C151.444 36.7857 153.275 37.0833 153.689 38.5714C154.162 40.1786 152.803 41.4881 151.089 43.0952C149.612 44.5238 147.78 46.25 147.543 47.8571C147.307 49.5238 147.543 50.5357 148.252 50.9524C149.553 51.7262 152.684 51.1905 156.644 49.5833C160.248 48.0952 163.912 45.8929 165.626 44.5238C166.276 43.9881 167.221 44.1071 167.694 44.7619C168.226 45.4167 168.108 46.369 167.458 46.8452C165.626 48.3333 161.785 50.6547 157.766 52.3214C154.635 53.5714 152.034 54.2262 149.966 54.2262ZM125.797 42.9167C125.206 43.5119 124.379 44.4048 123.965 45.4762C123.256 47.3214 123.256 49.1667 123.906 50.119C124.379 50.7738 125.147 51.1309 126.329 51.1309C129.756 51.1309 130.938 47.4405 131.234 46.3095C131.411 45.5952 131.529 44.9405 131.529 44.2857C130.465 44.2857 129.284 44.2262 128.161 43.9881C126.979 43.8095 126.27 43.3928 125.797 42.9167ZM127.865 40.8333C127.983 40.8928 128.22 41.0119 128.633 41.1309C129.402 41.25 130.17 41.369 130.879 41.369C130.761 41.1905 130.643 41.0714 130.524 41.0119C129.284 40.2976 128.515 40.5357 128.22 40.5952C127.983 40.6548 127.924 40.7738 127.865 40.8333Z" fill="#00006B"/>
</g>
</g>
<path d="M149.966 53.9286C148.784 53.9286 147.78 53.6905 146.893 53.2143C145.711 52.5 144.352 50.8928 144.884 47.3809C145.239 44.8809 147.484 42.7976 149.257 41.1309C149.848 40.5952 150.616 39.8214 150.971 39.4048C150.853 39.3452 150.616 39.2857 150.38 39.2857C148.489 38.9881 146.421 38.4524 144.707 37.7976C142.875 40.1786 139.093 42.9762 134.188 43.869C134.188 44.9405 134.07 46.0714 133.834 47.0833C133.006 50.3571 130.584 53.9286 126.329 53.9286C123.729 53.9286 122.37 52.7381 121.72 51.7857C120.538 50.0595 120.479 47.3809 121.483 44.6429C122.547 41.8452 125.088 40.119 125.206 40.0595C125.265 40 125.324 40 125.383 39.9405C125.561 39.4643 125.915 39.0476 126.329 38.6905C127.688 37.619 129.756 37.619 131.765 38.6905C132.77 39.2262 133.42 40.2381 133.775 41.4881C137.32 40.8929 139.861 39.1071 140.984 38.1548C141.693 37.5595 142.166 37.0833 142.58 36.6071C142.107 36.1905 141.752 35.7143 141.634 35.2381C141.457 34.5833 141.693 33.869 142.225 33.4524C142.875 32.9167 143.939 32.8571 144.884 33.3929C145.534 33.75 146.066 34.5238 145.771 35.7738C146.775 36.1905 148.312 36.6667 150.675 37.0238C151.325 37.1429 152.921 37.4405 153.334 38.75C153.748 40.1786 152.448 41.4286 150.793 42.9762C149.257 44.4048 147.425 46.1905 147.13 47.8571C146.716 50.5357 147.662 51.0714 148.016 51.25C149.434 52.0833 152.566 51.6071 156.644 49.8809C160.248 48.3929 163.912 46.1309 165.685 44.7619C166.217 44.3452 166.926 44.4643 167.34 44.9405C167.753 45.4762 167.635 46.1905 167.162 46.6071C164.858 48.4524 155.816 53.9286 149.966 53.9286ZM125.797 42.5C125.147 43.0952 124.142 44.1071 123.67 45.3571C122.901 47.3214 122.901 49.2262 123.611 50.2976C124.142 51.0119 125.029 51.4286 126.27 51.4286C129.934 51.4286 131.174 47.5595 131.47 46.4286C131.706 45.5952 131.765 44.7619 131.765 44.0476C130.584 44.1071 129.402 43.9881 128.161 43.8095C126.92 43.5119 126.211 42.9762 125.797 42.5ZM128.811 40.1786C128.338 40.1786 127.983 40.2976 127.806 40.4762C127.629 40.5952 127.57 40.7738 127.57 40.8929C127.57 41.0119 127.806 41.25 128.633 41.4286C129.579 41.6071 130.524 41.6667 131.411 41.6667C131.234 41.25 130.938 40.8929 130.702 40.7738C129.934 40.2976 129.283 40.1786 128.811 40.1786Z" fill="#00006B"/>
<path d="M149.966 53.6905C148.843 53.6905 147.839 53.4524 147.012 52.9762C145.889 52.3214 144.589 50.7738 145.121 47.3809C145.475 44.9405 147.662 42.9167 149.434 41.25C150.084 40.5952 151.089 39.7024 151.325 39.2262C151.207 39.1667 150.912 39.0476 150.439 38.9881C148.016 38.5714 146.125 38.0357 144.707 37.4405C142.934 39.8214 139.034 42.7381 134.011 43.5714C134.07 44.7024 133.952 45.8333 133.656 46.9048C132.829 50.119 130.524 53.5714 126.388 53.5714C123.906 53.5714 122.606 52.4405 121.956 51.5476C120.833 49.8809 120.715 47.2619 121.779 44.6428C122.842 41.9048 125.324 40.2381 125.442 40.1786C125.502 40.119 125.561 40.119 125.679 40.0595C125.856 39.5833 126.152 39.1667 126.624 38.8095C127.924 37.7976 129.874 37.7976 131.825 38.869C132.829 39.4048 133.479 40.4762 133.834 41.7262C138.029 41.0714 140.925 38.6905 141.929 37.7976C142.461 37.3214 142.816 36.9047 143.17 36.4881C142.58 36.0714 142.284 35.5952 142.107 35.0595C141.929 34.4643 142.166 33.869 142.58 33.5119C143.17 33.0357 144.116 32.9762 145.002 33.4524C145.593 33.75 146.125 34.5238 145.711 35.7738C146.716 36.1905 148.371 36.7262 150.853 37.1428C151.798 37.3214 153.039 37.619 153.334 38.6905C153.748 40 152.507 41.1309 150.853 42.6786C149.316 44.1071 147.425 45.9524 147.13 47.7381C146.716 50.5357 147.721 51.1905 148.075 51.369C151.562 53.3929 162.258 47.8571 166.04 44.8809C166.453 44.5238 167.044 44.6428 167.399 45.0595C167.753 45.4762 167.635 46.0714 167.221 46.4286C164.739 48.2738 155.757 53.6905 149.966 53.6905ZM125.856 42.1429C125.206 42.7381 124.024 43.8095 123.492 45.2381C122.724 47.2619 122.724 49.2262 123.492 50.3571C124.024 51.1309 124.97 51.5476 126.329 51.5476C130.111 51.5476 131.411 47.5595 131.765 46.369C132.002 45.4762 132.12 44.5238 132.061 43.6905C130.82 43.75 129.579 43.6905 128.279 43.4524C126.92 43.2738 126.211 42.6786 125.856 42.1429ZM128.811 39.9405C128.279 39.9405 127.924 40.0595 127.629 40.2976C127.393 40.4762 127.274 40.7143 127.333 40.8928C127.393 41.1309 127.747 41.4286 128.574 41.6071C129.697 41.7857 130.702 41.9048 131.706 41.8452C131.47 41.1905 131.175 40.7143 130.761 40.5357C129.993 40.119 129.343 39.9405 128.811 39.9405Z" fill="#00006B"/>
<path d="M149.907 53.4524C148.843 53.4524 147.839 53.2738 147.13 52.7976C145.534 51.8452 144.943 50.0595 145.357 47.4405C145.711 45.119 147.839 43.0357 149.612 41.4286C150.38 40.6548 151.621 39.5238 151.621 39.1071C151.621 39.1071 151.384 38.9286 150.439 38.75C147.957 38.3333 146.007 37.7976 144.589 37.1428C142.875 39.5238 138.916 42.5595 133.716 43.3333C133.775 44.4643 133.656 45.7143 133.361 46.7857C132.593 49.9405 130.288 53.2738 126.329 53.2738C123.906 53.2738 122.724 52.2024 122.074 51.3095C120.951 49.7024 120.892 47.2024 121.897 44.5833C122.901 41.9643 125.324 40.2976 125.442 40.2381C125.502 40.1786 125.62 40.119 125.738 40.119C125.856 39.6428 126.211 39.2262 126.624 38.869C127.865 37.9167 129.697 37.9167 131.529 38.9286C132.534 39.4643 133.125 40.5357 133.479 41.8452C137.497 41.25 140.748 39.1667 142.639 37.1428C142.875 36.9048 143.111 36.6071 143.23 36.4286C142.579 36.0119 142.225 35.5357 142.107 35C141.989 34.4643 142.107 33.9881 142.52 33.6905C143.052 33.2738 143.939 33.2143 144.707 33.6309C144.943 33.75 145.771 34.2857 145.298 35.7143C145.298 35.7738 145.239 35.8333 145.239 35.8333C146.302 36.3095 147.957 36.8452 150.616 37.2619C151.503 37.3809 152.625 37.7381 152.921 38.6905C153.275 39.8809 152.094 40.9524 150.498 42.5C148.962 43.9881 147.012 45.8333 146.716 47.6786C146.421 49.7024 146.775 50.9524 147.78 51.5476C149.375 52.5 152.566 52.0238 156.821 50.2381C160.662 48.6309 164.267 46.4286 165.98 45.0595C166.276 44.8214 166.749 44.8809 167.044 45.1786C167.28 45.4762 167.221 45.9524 166.926 46.25C163.912 48.6309 155.344 53.4524 149.907 53.4524ZM125.856 41.8452C125.206 42.3809 123.847 43.5714 123.256 45.1786C122.429 47.2619 122.429 49.3452 123.256 50.5357C123.847 51.4286 124.852 51.8452 126.27 51.8452C130.229 51.8452 131.588 47.7381 131.884 46.4881C132.12 45.4762 132.238 44.4643 132.179 43.5119C130.938 43.5714 129.579 43.5119 128.22 43.2738C127.097 43.0952 126.27 42.5595 125.856 41.8452ZM128.811 39.7024C128.22 39.7024 127.806 39.8809 127.511 40.119C127.215 40.3571 127.038 40.7143 127.097 40.9524C127.215 41.369 127.688 41.6667 128.515 41.7857C129.697 42.0238 130.879 42.0833 132.002 42.0238C131.765 41.1905 131.411 40.5952 130.879 40.2976C130.052 39.8809 129.402 39.7024 128.811 39.7024ZM143.702 34.8214C143.761 34.8809 143.88 35 143.998 35.119C143.998 35.0595 143.998 35 143.998 34.9405C143.88 34.8809 143.761 34.8809 143.702 34.8214Z" fill="#00006B"/>
<path d="M149.966 53.2143C148.902 53.2143 148.016 53.0357 147.248 52.6191C145.771 51.7262 145.18 50 145.593 47.5C145.948 45.2381 148.075 43.2143 149.73 41.6071C150.675 40.7143 151.916 39.5238 151.798 39.0476C151.798 38.9881 151.621 38.6905 150.439 38.5119C147.898 38.0952 145.83 37.5 144.47 36.8452C142.875 39.2262 138.798 42.4405 133.42 43.1548C133.538 44.3452 133.42 45.5952 133.125 46.7857C132.356 49.8214 130.17 53.0952 126.329 53.0952C124.024 53.0952 122.901 52.0833 122.31 51.25C121.247 49.7024 121.188 47.2619 122.192 44.7619C123.197 42.2024 125.561 40.5952 125.679 40.5357C125.797 40.4762 125.915 40.4167 125.974 40.4762C126.092 40 126.388 39.5238 126.802 39.1667C127.983 38.2738 129.697 38.2738 131.47 39.2857C132.475 39.8214 133.065 40.9524 133.302 42.2619C138.266 41.6072 142.166 38.631 143.643 36.4881C142.934 36.0119 142.52 35.5357 142.402 35.0595C142.284 34.6429 142.402 34.2262 142.757 33.9881C143.23 33.631 143.998 33.631 144.648 33.9881C144.943 34.1072 145.534 34.5833 145.121 35.7738C145.061 35.8929 145.061 36.0119 145.002 36.131C146.066 36.6071 147.839 37.2024 150.675 37.6786C151.443 37.7976 152.566 38.0952 152.803 38.9286C153.098 39.9405 151.975 41.0119 150.439 42.4405C148.843 43.9286 146.893 45.8333 146.598 47.7381C146.302 49.8214 146.657 51.1905 147.78 51.8452C151.562 54.1071 162.612 48.2143 166.276 45.2976C166.512 45.1191 166.808 45.1786 166.985 45.3572C167.162 45.5952 167.103 45.8929 166.926 46.0714C163.794 48.3929 155.285 53.2143 149.966 53.2143ZM125.974 41.4286C125.442 41.7857 123.788 43.1548 123.02 45.1191C122.192 47.3214 122.192 49.4643 123.079 50.7143C123.729 51.6667 124.792 52.1429 126.329 52.1429C129.638 52.1429 131.529 49.2857 132.179 46.6072C132.475 45.4762 132.534 44.3453 132.475 43.3333C131.174 43.4524 129.756 43.3929 128.338 43.0952C127.097 42.7976 126.27 42.2619 125.974 41.4286ZM128.811 39.4643C128.161 39.4643 127.688 39.6429 127.333 39.881C126.92 40.1786 126.742 40.5952 126.861 41.0119C126.979 41.4881 127.57 41.9048 128.456 42.0833C129.756 42.3214 131.056 42.381 132.297 42.3214C132.061 41.3095 131.588 40.4762 130.938 40.1191C130.17 39.6429 129.402 39.4643 128.811 39.4643ZM143.584 34.5833C143.407 34.5833 143.348 34.6429 143.289 34.6429C143.289 34.6429 143.289 34.7024 143.348 34.8214C143.407 34.9405 143.584 35.1786 144.057 35.4762C144.057 35.4167 144.116 35.3571 144.116 35.2976C144.116 35.2381 144.293 34.8214 144.116 34.7024C143.939 34.6429 143.702 34.5833 143.584 34.5833Z" fill="#00006B"/>
<path d="M149.907 52.9167C148.902 52.9167 148.075 52.7381 147.366 52.3214C146.007 51.4881 145.475 49.881 145.83 47.5C146.184 45.3571 148.252 43.3929 149.907 41.7857C151.089 40.6548 152.271 39.5833 152.094 38.9286C151.975 38.5714 151.444 38.3333 150.498 38.1548C147.366 37.619 145.475 36.9643 144.352 36.369C142.875 38.75 138.679 42.2024 133.065 42.7976C133.184 43.9286 133.125 45.2976 132.77 46.6071C132.002 49.5238 129.934 52.6786 126.27 52.6786C124.556 52.6786 123.256 52.0833 122.488 50.9524C121.483 49.4643 121.424 47.1429 122.37 44.7619C123.315 42.2619 125.62 40.7143 125.738 40.6548C125.856 40.5952 125.974 40.5952 126.033 40.7143C126.092 40.8333 126.092 40.9524 125.974 41.0119C125.974 41.0119 123.67 42.5595 122.783 44.9405C121.897 47.2619 121.956 49.4048 122.842 50.7738C123.551 51.7857 124.733 52.3214 126.329 52.3214C129.815 52.3214 131.765 49.3452 132.475 46.5476C132.829 45.2381 132.888 43.9881 132.77 42.8571C131.411 42.9762 129.934 42.9167 128.397 42.6786C127.215 42.4405 126.447 41.9048 126.27 41.131C126.092 40.4762 126.388 39.8214 126.979 39.3452C127.806 38.6905 129.402 38.3929 131.293 39.4643C132.179 39.9405 132.77 41.0714 133.065 42.5C138.502 41.8452 142.639 38.5119 144.057 36.25C142.993 35.6548 142.757 35.119 142.698 34.8214C142.639 34.5238 142.698 34.2262 142.934 34.0476C143.289 33.75 143.939 33.75 144.53 34.0476C144.766 34.1667 145.18 34.5238 144.884 35.4762C144.825 35.6548 144.766 35.8333 144.648 36.0714C145.83 36.6667 147.78 37.3214 150.675 37.7976C151.798 37.9762 152.389 38.3333 152.566 38.8095C152.803 39.6429 151.68 40.7143 150.321 42.0238C148.725 43.5714 146.716 45.4762 146.361 47.5C146.007 49.7024 146.48 51.1905 147.721 51.9048C151.68 54.2262 162.73 48.3929 166.512 45.3571C166.571 45.2976 166.69 45.2976 166.808 45.4167C166.867 45.4762 166.867 45.5952 166.749 45.7143C163.38 48.3333 154.989 52.9167 149.907 52.9167ZM128.811 39.1667C128.102 39.1667 127.57 39.4048 127.156 39.6429C126.683 40 126.447 40.5357 126.565 41.0714C126.742 41.6667 127.393 42.1429 128.397 42.3214C129.874 42.5595 131.293 42.619 132.652 42.5C132.415 41.1905 131.884 40.2381 131.115 39.7619C130.229 39.3452 129.461 39.1667 128.811 39.1667ZM143.584 34.2857C143.407 34.2857 143.23 34.3452 143.111 34.4048C142.993 34.4643 142.993 34.6429 142.993 34.7619C143.052 35.119 143.466 35.4762 144.175 35.9524C144.293 35.7738 144.352 35.5952 144.411 35.4167C144.53 35.0595 144.589 34.6429 144.293 34.4643C144.057 34.3452 143.761 34.2857 143.584 34.2857Z" fill="#00006B"/>
<g opacity="0.2">
<g opacity="0.2">
<path opacity="0.2" d="M168.994 54.7024C167.694 54.7024 166.571 54.2857 165.744 53.631C163.321 51.7857 162.908 48.2738 164.68 44.7024C167.34 39.3452 173.544 39.7024 177.385 40.8929C179.217 36.6667 180.754 31.6667 182.054 27.5C184.654 19.2857 185.481 16.9048 187.668 16.5476C188.495 16.4286 189.322 16.7262 189.854 17.381C191.095 18.9286 190.445 21.0119 186.663 30.9524C184.358 36.9643 181.522 44.4643 181.463 47.5C181.463 48.4524 181.522 50.0595 182.349 50.3572C183.768 50.9524 187.254 49.5238 190.681 47.0833C190.8 43.2143 192.809 38.8691 195.586 36.9643C199.25 34.5238 201.082 35.2976 201.968 36.3691C204.391 39.3453 199.486 44.7619 197.95 46.3095C197.241 47.0238 196.236 47.9167 194.995 48.9286C195.35 49.881 195.882 50 196.177 50.0595C198.186 50.5952 201.496 48.75 206.991 45.7143C208.705 44.7619 210.655 43.6905 212.901 42.5C213.905 41.9643 215.146 42.381 215.678 43.3929C216.21 44.4048 215.796 45.6548 214.792 46.1905C212.605 47.381 210.655 48.3929 208.941 49.3452C202.323 52.9762 198.718 55 195.113 54.0476C193.577 53.631 192.336 52.6786 191.568 51.3095C187.963 53.631 183.768 55.3572 180.695 54.0476C179.395 53.5119 177.858 52.2024 177.385 49.2857C176.795 50.0595 176.204 50.7738 175.554 51.4286C173.131 53.8095 170.885 54.7024 168.994 54.7024ZM172.599 44.2857C170.885 44.2857 169.172 44.7619 168.344 46.5476C167.458 48.3929 167.576 49.8214 168.167 50.2976C168.876 50.8333 170.708 50.4167 172.717 48.5119C173.663 47.6191 174.608 46.3095 175.495 44.7024C174.726 44.5238 173.663 44.2857 172.599 44.2857Z" fill="#00006B"/>
</g>
</g>
<g opacity="0.25">
<g opacity="0.25">
<path opacity="0.25" d="M168.994 54.4048C167.753 54.4048 166.69 53.9881 165.921 53.3929C163.617 51.6667 163.203 48.2738 164.917 44.8214C167.517 39.5238 173.781 40 177.563 41.25C179.454 36.9643 181.049 31.8452 182.349 27.6191C184.89 19.5238 185.718 17.2024 187.727 16.9048C188.436 16.7857 189.204 17.0833 189.618 17.6191C190.741 19.0476 190.091 21.0714 186.368 30.8929C184.063 36.9643 181.167 44.4643 181.108 47.5C181.108 48.75 181.286 50.2381 182.172 50.6548C183.827 51.3691 187.49 49.7024 190.918 47.2619C190.977 43.4524 192.986 39.1071 195.704 37.2619C198.482 35.3571 200.55 35.1786 201.732 36.6072C204.037 39.4048 199.25 44.6429 197.714 46.1905C196.768 47.1429 195.763 48.0357 194.641 48.9286C194.995 50.1786 195.763 50.3572 196.118 50.4762C198.245 51.0119 201.614 49.1667 207.169 46.131C208.882 45.1786 210.832 44.1071 213.078 42.9167C213.964 42.4405 215.028 42.7976 215.501 43.6905C215.973 44.5833 215.619 45.6548 214.732 46.131C212.546 47.3214 210.596 48.3929 208.882 49.2857C202.323 52.9167 198.718 54.881 195.232 53.9881C193.636 53.5714 192.454 52.5595 191.686 51.131C191.036 51.5476 190.386 51.9643 189.736 52.3214C186.013 54.4048 182.999 55 180.813 54.0476C179.454 53.4524 177.858 52.0833 177.622 48.75C176.913 49.8214 176.145 50.7143 175.376 51.4286C173.013 53.5714 170.826 54.4048 168.994 54.4048ZM172.599 43.9881C169.29 43.9881 168.403 45.7738 168.108 46.3691C167.103 48.4524 167.34 50 168.049 50.4762C168.876 51.0714 170.767 50.7738 172.953 48.6905C174.017 47.6786 175.022 46.25 175.967 44.4643C175.199 44.2262 174.194 44.0476 173.131 43.9881C172.953 44.0476 172.776 43.9881 172.599 43.9881ZM198.186 39.881C198.009 40 197.891 40.0595 197.714 40.1786C196.768 40.8333 195.882 42.0833 195.291 43.5714C196.768 42.0833 197.714 40.8333 198.186 39.881Z" fill="#00006B"/>
</g>
</g>
<g opacity="0.3">
<g opacity="0.3">
<path opacity="0.3" d="M168.994 54.1072C167.812 54.1072 166.808 53.75 166.099 53.1548C163.912 51.4881 163.558 48.2738 165.212 44.9405C167.812 39.7024 174.135 40.3572 177.74 41.6072C179.69 37.2619 181.286 32.0238 182.645 27.6786C185.068 19.881 185.954 17.4405 187.786 17.1429C188.436 17.0238 189.027 17.2619 189.44 17.7976C190.445 19.1072 189.795 21.25 186.131 30.7738C183.827 36.8453 180.931 44.4048 180.872 47.5C180.872 49.4048 181.286 50.5952 182.113 50.9524C183.886 51.7262 187.727 50 191.272 47.4405C191.272 43.6905 193.222 39.3453 195.941 37.5C198.6 35.7143 200.491 35.4762 201.555 36.7857C203.268 38.8691 200.609 42.8572 197.595 45.9524C196.709 46.8453 195.586 47.8572 194.404 48.8095C194.818 50.4167 195.763 50.6548 196.118 50.7143C198.364 51.3095 201.555 49.5238 207.346 46.3095C209.059 45.3572 211.01 44.2857 213.255 43.0952C213.964 42.7381 214.851 42.9762 215.264 43.6905C215.619 44.4048 215.382 45.2976 214.673 45.7143C212.487 46.9048 210.537 47.9762 208.823 48.8691C202.323 52.4405 198.777 54.4048 195.409 53.5119C193.813 53.0952 192.632 52.0238 191.922 50.5357C188.2 53.0357 183.945 54.8214 181.049 53.5714C179.631 52.9762 177.976 51.4286 177.976 47.6191C177.149 48.9881 176.204 50.1191 175.258 51.0714C172.894 53.2738 170.767 54.1072 168.994 54.1072ZM172.599 43.75C170.708 43.75 168.817 44.2857 167.812 46.3095C166.69 48.5714 167.044 50.1786 167.812 50.7738C168.758 51.4881 170.767 51.1905 173.131 48.9286C174.254 47.8572 175.376 46.25 176.381 44.3453C175.494 44.0476 174.076 43.75 172.599 43.75ZM198.895 39.1667C198.541 39.3452 198.127 39.5833 197.536 39.9405C196.236 40.8333 195.173 42.6786 194.582 44.6429C194.877 44.3453 195.173 44.1072 195.409 43.8095C197.477 41.7857 198.482 40.1191 198.895 39.1667Z" fill="#00006B"/>
</g>
</g>
<path d="M168.994 53.8095C167.871 53.8095 166.926 53.4524 166.276 52.9167C164.208 51.369 163.912 48.2738 165.449 45.0595C167.99 39.8809 174.372 40.7143 177.858 41.9643C179.867 37.5595 181.522 32.1429 182.881 27.7381C185.245 20.2381 186.131 17.6786 187.786 17.381C188.318 17.3214 188.85 17.5 189.145 17.9167C190.091 19.0476 189.322 21.369 185.777 30.5952C183.472 36.6667 180.577 44.2857 180.517 47.4405C180.458 49.4643 180.99 50.7143 181.936 51.1309C183.886 51.9643 187.845 50.1786 191.509 47.5C191.45 43.8095 193.4 39.4048 196.059 37.6786C198.541 36.0119 200.314 35.7143 201.259 36.9048C202.855 38.8095 200.077 42.8571 197.3 45.6548C196.354 46.6071 195.232 47.619 193.991 48.5714C194.404 50.4762 195.586 50.8333 195.941 50.8928C198.305 51.4881 201.555 49.7024 207.405 46.4881C209.119 45.5357 211.069 44.4643 213.314 43.2738C213.905 42.9762 214.614 43.2143 214.91 43.75C215.205 44.2857 214.969 45.0595 214.437 45.3571C212.251 46.5476 210.3 47.619 208.587 48.5119C202.205 52.0238 198.659 53.9881 195.409 53.1548C193.754 52.7381 192.632 51.6071 191.982 50C188.259 52.5595 183.945 54.4643 181.049 53.2143C179.69 52.619 178.095 51.1309 178.154 47.2619C178.154 46.9643 178.154 46.6667 178.213 46.3095C177.208 48.0952 176.145 49.5833 174.963 50.7143C172.717 53.0357 170.649 53.8095 168.994 53.8095ZM172.599 43.4524C170.649 43.4524 168.581 44.0476 167.576 46.1905C166.571 48.2738 166.571 50.2381 167.694 51.0714C168.699 51.8452 170.885 51.5476 173.367 49.2262C174.608 48.0357 175.731 46.3095 176.854 44.2262C175.967 43.869 174.313 43.4524 172.599 43.4524ZM199.368 38.6905C199.014 38.8095 198.423 39.0476 197.359 39.7024C195.823 40.7143 194.523 43.1548 194.05 45.5357C194.582 45.0595 195.113 44.5833 195.645 44.0476C198.245 41.4286 199.191 39.5238 199.368 38.6905Z" fill="#00006B"/>
<path d="M168.994 53.5714C167.931 53.5714 167.044 53.2738 166.394 52.7381C164.444 51.25 164.149 48.2738 165.626 45.1786C168.167 40.0595 174.608 40.9524 177.976 42.2619C179.986 37.7976 181.699 32.3214 183.117 27.8572C185.422 20.4762 186.309 17.9167 187.845 17.6786C188.318 17.6191 188.731 17.7976 188.968 18.0952C189.795 19.1667 189.027 21.5476 185.599 30.5357C183.236 36.6667 180.34 44.2262 180.34 47.4405C180.281 49.5833 180.813 50.8929 181.936 51.3691C183.945 52.2619 188.081 50.3572 191.804 47.6786C191.686 44.0476 193.636 39.6429 196.236 37.9167C198.6 36.3095 200.314 36.0119 201.141 37.0833C202.618 38.8691 199.959 42.7976 197.182 45.5357C196.177 46.5476 194.995 47.5595 193.754 48.5119C193.991 49.9405 194.759 50.8333 195.882 51.131C198.304 51.7857 201.614 49.9405 207.523 46.6667C209.237 45.7143 211.187 44.6429 213.432 43.4524C213.905 43.2143 214.496 43.3929 214.732 43.8691C214.969 44.3453 214.792 44.9405 214.319 45.1786C212.132 46.3691 210.182 47.4405 208.469 48.3333C202.086 51.8453 198.6 53.75 195.409 52.9762C193.754 52.5595 192.632 51.3691 192.041 49.7024C191.154 50.3572 190.209 50.8929 189.322 51.4286C185.836 53.3929 183.058 53.9286 181.108 53.0953C179.217 52.3214 178.331 50.3572 178.39 47.381C178.39 46.7857 178.508 46.0119 178.626 45.1786C177.445 47.4405 176.204 49.3452 174.785 50.6548C172.599 52.7976 170.649 53.5714 168.994 53.5714ZM172.599 43.2143C170.59 43.2143 168.462 43.8095 167.34 46.0714C166.276 48.2738 166.335 50.2976 167.517 51.1905C168.521 51.9643 170.708 51.9048 173.485 49.3453C174.785 48.0953 175.967 46.25 177.09 44.0476C176.322 43.75 174.49 43.2143 172.599 43.2143ZM199.605 38.3929C199.368 38.3929 198.659 38.5714 197.241 39.5238C195.527 40.6548 194.109 43.5119 193.754 46.0714C194.463 45.4762 195.173 44.8214 195.823 44.1667C198.836 41.1905 199.605 39.0476 199.605 38.3929Z" fill="#00006B"/>
<path d="M168.994 53.3333C167.99 53.3333 167.162 53.0357 166.512 52.5595C164.621 51.131 164.385 48.2738 165.862 45.2976C168.344 40.2381 174.904 41.25 178.095 42.5595C180.163 38.0357 181.936 32.4405 183.354 27.9167C185.659 20.5357 186.545 18.0952 187.904 17.9167C188.259 17.8572 188.613 17.9762 188.85 18.2738C189.618 19.2262 188.85 21.6071 185.422 30.5357C183.058 36.6667 180.163 44.2857 180.104 47.5C180.045 49.7619 180.636 51.131 181.817 51.6071C183.413 52.2619 187.431 51.1905 191.981 47.8571C191.804 44.2857 193.695 39.881 196.295 38.0952C198.6 36.5476 200.136 36.25 200.905 37.2619C202.205 38.8691 199.841 42.5 196.945 45.4167C195.941 46.4286 194.759 47.5 193.459 48.4524V48.5119C193.695 50.0595 194.523 51.0714 195.763 51.3691C198.304 52.0238 201.555 50.1786 207.582 46.9048C209.296 45.9524 211.246 44.881 213.491 43.6905C213.846 43.5119 214.319 43.631 214.496 43.9881C214.673 44.3452 214.555 44.8214 214.201 45C212.014 46.1905 210.064 47.2619 208.35 48.2143C202.027 51.6667 198.6 53.631 195.468 52.7976C193.813 52.381 192.691 51.131 192.218 49.3452C188.377 52.0238 183.945 54.0476 181.227 52.8571C179.454 52.0833 178.567 50.2381 178.626 47.3214C178.626 46.3095 178.922 44.881 179.336 43.3333C177.976 46.3095 176.44 48.8095 174.667 50.4762C172.54 52.6191 170.59 53.3333 168.994 53.3333ZM172.599 42.9762C169.999 42.9762 168.167 43.9881 167.221 45.9524C166.099 48.2143 166.217 50.4167 167.458 51.3691C168.521 52.2024 170.826 52.2024 173.722 49.4643C175.081 48.1548 176.322 46.1905 177.504 43.8691C176.913 43.631 175.199 43.0952 173.308 42.9762C173.013 42.9762 172.776 42.9762 172.599 42.9762ZM199.664 38.2143C199.368 38.2143 198.659 38.3333 197.123 39.3452C195.173 40.6548 193.695 43.8095 193.459 46.6667C194.286 45.9524 195.113 45.2381 195.941 44.3452C199.25 40.9524 200.018 38.5714 199.782 38.1548C199.782 38.2143 199.782 38.2143 199.664 38.2143ZM187.313 20.7738C186.722 22.2024 185.954 24.4048 185.245 26.7262C186.072 24.4643 186.899 22.2619 187.313 20.7738Z" fill="#00006B"/>
<path d="M168.994 53.0953C168.049 53.0953 167.281 52.7976 166.69 52.381C164.917 51.0119 164.68 48.3333 166.099 45.4167C169.172 39.1667 178.036 42.7976 178.154 42.8572C178.213 42.8572 178.213 42.8572 178.272 42.9167C180.399 38.3333 182.172 32.6191 183.649 28.0357C185.718 21.3691 186.722 18.3929 187.963 18.1548C188.259 18.0952 188.495 18.2143 188.672 18.4524C189.381 19.3452 188.259 22.4405 185.245 30.4762C182.763 36.9643 179.986 44.2857 179.927 47.5595C179.867 49.9405 180.517 51.3691 181.818 51.9048C184.181 52.9167 188.613 50.7738 192.336 47.9762C192.159 44.4643 193.991 40.1191 196.532 38.3929C199.191 36.6072 200.373 36.9048 200.846 37.5C201.85 38.75 200.255 41.9643 196.945 45.3572C195.941 46.3691 194.7 47.4405 193.341 48.5119C193.341 48.5714 193.341 48.6905 193.4 48.75C193.577 49.881 194.168 51.3691 195.882 51.8452C198.482 52.5 201.85 50.7143 207.878 47.381C209.591 46.4286 211.541 45.3572 213.728 44.1667C213.964 44.0476 214.26 44.1072 214.378 44.3453C214.496 44.5833 214.437 44.881 214.201 45C212.014 46.1905 210.064 47.2619 208.35 48.2143C202.087 51.6667 198.659 53.5714 195.645 52.7976C193.991 52.381 192.868 51.0714 192.454 49.1667C188.613 51.9643 184.122 54.0476 181.404 52.8572C179.749 52.1429 178.922 50.3572 178.922 47.5595C178.981 44.1072 181.817 36.6667 184.299 30.1191C185.895 25.8929 187.904 20.6548 187.904 19.2857C187.136 20.1191 185.718 24.4643 184.536 28.3333C182.172 35.9524 178.922 46.3095 174.549 50.4167C172.422 52.381 170.531 53.0953 168.994 53.0953ZM172.599 42.7381C170.412 42.7381 168.167 43.3929 166.926 45.8333C165.744 48.2738 165.862 50.5357 167.221 51.5476C168.403 52.4405 170.826 52.4405 173.781 49.6429C175.199 48.2738 176.558 46.1905 177.74 43.75H177.681C177.681 43.75 175.258 42.7381 172.599 42.7381ZM199.664 37.9167C199.25 37.9167 198.423 38.1548 197.004 39.1072C194.877 40.5357 193.282 44.1072 193.223 47.1429C194.286 46.3095 195.291 45.3572 196.177 44.5238C199.545 41.131 200.432 38.5119 200.018 38.0357C199.959 37.9762 199.841 37.9167 199.664 37.9167Z" fill="#00006B"/>
<path d="M168.935 52.7976C168.167 52.7976 167.458 52.619 166.867 52.1429C165.212 50.8929 164.976 48.3333 166.335 45.5357C169.29 39.5238 177.917 43.0952 177.976 43.0952C178.095 43.1548 178.095 43.2738 178.095 43.3333C178.036 43.4524 177.917 43.4524 177.858 43.4524C177.799 43.3929 169.467 40 166.69 45.6548C165.449 48.2143 165.567 50.6548 167.103 51.7857C168.758 53.0357 171.476 52.2619 174.076 49.881C178.331 45.8929 181.522 35.5952 183.886 28.0952C185.836 21.8452 186.9 18.631 187.963 18.4524C188.14 18.4524 188.318 18.4524 188.377 18.631C189.027 19.4048 187.55 23.3929 184.89 30.3572C182.408 36.8452 179.572 44.2262 179.572 47.5595C179.513 50.0595 180.222 51.6071 181.64 52.2024C184.24 53.3333 188.79 50.9524 192.572 48.1548C192.277 44.7024 194.109 40.3571 196.65 38.631C198.6 37.3214 200.018 36.9643 200.55 37.6786C201.436 38.8095 199.841 41.9048 196.65 45.1191C195.645 46.131 194.345 47.2619 192.986 48.3333C192.986 48.4524 193.045 48.631 193.045 48.75C193.282 50 193.873 51.5476 195.764 52.0833C198.482 52.7976 201.85 50.9524 207.937 47.5595C209.65 46.6071 211.601 45.5357 213.787 44.3452C213.905 44.2857 214.023 44.3452 214.023 44.4048C214.082 44.5238 214.023 44.6429 213.964 44.6429C211.778 45.8333 209.828 46.9048 208.114 47.8571C201.909 51.25 198.541 53.1548 195.645 52.381C193.991 51.9643 192.986 50.7143 192.632 48.75C192.632 48.6905 192.632 48.5714 192.572 48.5119C188.731 51.3691 184.122 53.631 181.404 52.5C179.867 51.8452 179.099 50.1786 179.099 47.5C179.158 44.1072 181.995 36.7262 184.477 30.1786C186.486 24.9405 188.554 19.5238 188.022 18.8691C188.022 18.8691 188.022 18.8691 187.963 18.8691C187.077 18.9881 185.659 23.5119 184.181 28.2738C181.817 35.8333 178.567 46.1905 174.254 50.2381C172.835 51.5476 170.767 52.7976 168.935 52.7976ZM199.664 37.6191C199.014 37.6191 198.068 38.0357 196.827 38.8691C194.523 40.4167 192.75 44.5238 192.927 47.7381C194.227 46.7262 195.409 45.7143 196.354 44.7024C199.605 41.4286 200.905 38.5714 200.255 37.7976C200.136 37.6786 199.9 37.6191 199.664 37.6191Z" fill="#00006B"/>
<g opacity="0.2">
<g opacity="0.2">
<path opacity="0.2" d="M254.325 54.881C252.198 54.881 250.661 54.4048 249.479 53.4524C247.175 51.5476 247.411 48.5714 247.588 46.1905C247.647 45.2976 247.766 43.6905 247.529 43.3333C247.529 43.3333 247.47 43.2738 247.234 43.2738C243.511 42.6191 241.206 50.8333 240.793 53.0952C240.674 53.6905 240.32 54.2262 239.788 54.5238C239.256 54.8214 238.606 54.881 238.015 54.6429C236.656 54.1072 234.706 52.1429 237.07 45.0595C238.311 41.25 237.897 38.9881 237.542 38.6905C237.542 38.6905 236.183 38.2738 232.106 41.5476C229.978 43.2738 228.147 44.4048 226.61 45.1191C226.492 46.3095 226.197 47.5595 225.606 48.8095C223.951 52.5595 220.583 54.9405 217.333 54.6429C214.792 54.4643 212.841 52.7381 212.132 50.0595C210.655 44.5238 215.264 40.7143 218.337 39.2262C218.455 38.9881 218.573 38.8095 218.751 38.5714C219.814 37.0833 221.765 36.7857 223.419 37.7381C224.483 38.3333 225.369 39.3452 225.901 40.7143C226.906 40.1786 228.087 39.3452 229.506 38.2143C231.219 36.8452 236.361 32.6786 239.906 35.1786C241.738 36.4286 242.152 38.75 242.034 41.0119C243.629 39.5238 245.579 38.6905 247.943 39.1071C252.257 39.8214 251.902 43.9881 251.725 46.4881C251.607 47.9762 251.488 49.7024 252.138 50.2381C252.493 50.5357 254.148 51.3691 260.471 49.6429C279.026 44.5833 298.172 31.6071 298.349 31.4881C299.295 30.8333 300.595 31.0714 301.245 32.0238C301.895 32.9762 301.659 34.2857 300.713 34.9405C299.886 35.4762 280.799 48.3929 261.593 53.631C258.58 54.4643 256.216 54.881 254.325 54.881ZM218.278 44.0476C216.919 45.1191 215.501 46.7262 216.032 48.9286C216.269 49.881 216.801 50.3571 217.569 50.4167C218.81 50.5357 220.642 49.5238 221.765 47.0238C221.942 46.6667 222.06 46.3691 222.119 46.0119C220.464 45.9524 219.46 45.2381 218.869 44.7619C218.692 44.5833 218.455 44.3452 218.278 44.0476Z" fill="#00006B"/>
</g>
</g>
<g opacity="0.25">
<g opacity="0.25">
<path opacity="0.25" d="M254.325 54.5834C252.316 54.5834 250.779 54.1072 249.716 53.2143C247.529 51.4286 247.766 48.5119 247.943 46.1905C248.179 43.2143 247.943 43.0357 247.352 42.9167C243.452 42.2619 241.088 50.1191 240.556 52.9762C240.438 53.5119 240.143 53.9286 239.67 54.2262C239.197 54.4643 238.665 54.5238 238.133 54.3453C237.129 53.9286 235.001 52.2024 237.365 45.1191C238.547 41.4881 238.311 38.8691 237.72 38.3929C237.365 38.1548 235.711 38.2143 231.929 41.3095C229.742 43.0953 227.91 44.2262 226.315 44.881C226.256 46.0714 225.901 47.3215 225.369 48.6905C223.774 52.3215 220.524 54.6429 217.392 54.3453C214.969 54.1667 213.137 52.5 212.487 50C211.069 44.5834 215.619 40.8929 218.633 39.4643C218.751 39.2262 218.869 38.9881 219.046 38.8095C220.051 37.4405 221.765 37.1429 223.36 38.0953C224.424 38.75 225.31 39.8214 225.842 41.1905C226.906 40.5953 228.206 39.7619 229.742 38.5119C231.397 37.2024 236.42 33.0953 239.788 35.4762C241.738 36.8453 241.974 39.4643 241.738 41.8453C243.393 40.0595 245.461 38.9881 247.943 39.4643C251.961 40.1786 251.666 44.1072 251.488 46.4881C251.37 48.1548 251.252 49.881 252.02 50.4762C252.493 50.8929 254.384 51.6667 260.589 49.9405C279.144 44.881 298.349 31.9048 298.527 31.7857C299.354 31.25 300.418 31.4286 301.009 32.2619C301.54 33.0953 301.363 34.1667 300.536 34.7619C299.709 35.2976 280.681 48.2143 261.534 53.4524C258.521 54.1667 256.157 54.5834 254.325 54.5834ZM218.396 43.631C216.86 44.7024 215.146 46.5476 215.796 49.0476C216.092 50.1191 216.683 50.7143 217.569 50.7738C218.869 50.8929 220.878 49.8215 222.06 47.2024C222.296 46.7262 222.415 46.25 222.533 45.8334C220.701 45.8334 219.696 45.1786 219.105 44.6429C218.81 44.3453 218.573 43.9881 218.396 43.631ZM221.587 41.25C221.41 41.6072 221.41 41.9048 221.587 42.0238C221.705 42.1429 221.942 42.2024 222.355 42.2024C222.355 42.1429 222.296 42.1429 222.296 42.0834C222.06 41.6667 221.765 41.3691 221.587 41.25Z" fill="#00006B"/>
</g>
</g>
<g opacity="0.3">
<g opacity="0.3">
<path opacity="0.3" d="M254.266 54.2857C252.316 54.2857 250.897 53.869 249.834 52.9762C247.766 51.25 248.002 48.4524 248.179 46.1905C248.416 43.2143 248.179 42.7976 247.352 42.619C243.215 41.9048 240.733 50 240.202 52.9166C240.142 53.3333 239.847 53.75 239.492 53.9286C239.079 54.1666 238.665 54.1667 238.252 53.9881C237.306 53.6309 235.356 52.0238 237.661 45.119C238.842 41.4881 238.724 38.6309 237.897 38.0952C237.779 37.9762 236.42 37.2619 231.751 41.0119C229.506 42.8571 227.615 43.9881 226.019 44.6429C225.96 45.8333 225.665 47.1428 225.074 48.5119C223.537 52.0238 220.405 54.2857 217.392 53.9881C215.087 53.8095 213.373 52.2619 212.723 49.8214C211.364 44.5238 215.855 40.9524 218.81 39.5833C218.928 39.3452 219.105 39.1071 219.283 38.869C220.169 37.619 221.764 37.3809 223.183 38.2143C224.246 38.869 225.192 40 225.665 41.4881C226.846 40.8929 228.265 40 229.919 38.6309C234.292 35.119 237.424 34.1071 239.611 35.5952C241.679 37.0238 241.738 40.119 241.324 42.6786C242.92 40.5952 245.047 39.1071 247.943 39.6429C251.725 40.2976 251.429 43.9286 251.252 46.369C251.134 48.0952 251.016 49.8809 251.843 50.6547C252.493 51.1905 254.561 51.9048 260.707 50.1786C279.321 45.0595 298.527 32.0833 298.763 31.9643C299.413 31.4881 300.359 31.6667 300.831 32.381C301.304 33.0357 301.127 33.9881 300.418 34.4643C299.59 35 280.621 47.8571 261.475 53.0952C258.461 53.869 256.157 54.2857 254.266 54.2857ZM218.514 43.2143C216.86 44.2857 214.791 46.3095 215.501 49.1667C215.796 50.3571 216.505 51.0119 217.569 51.1309C218.987 51.25 221.114 50.119 222.355 47.3809C222.651 46.7262 222.828 46.1309 222.946 45.5357C221.055 45.6548 219.933 44.9405 219.401 44.4048C218.987 44.0476 218.692 43.6309 218.514 43.2143ZM221.469 40.8333C221.114 41.369 221.055 41.9643 221.351 42.2619C221.587 42.5 222.06 42.619 222.71 42.5595C222.592 42.2024 222.415 41.9048 222.355 41.7857C222.06 41.1309 221.646 40.8929 221.469 40.8333Z" fill="#00006B"/>
</g>
</g>
<path d="M254.325 53.9881C252.434 53.9881 251.016 53.5714 250.07 52.7381C248.12 51.131 248.297 48.5119 248.475 46.1905C248.711 43.2143 248.475 42.5 247.352 42.3214C242.152 41.4286 239.906 52.7381 239.906 52.8572C239.847 53.2143 239.611 53.5119 239.315 53.6905C239.02 53.8691 238.665 53.8691 238.311 53.75C237.424 53.3929 235.651 51.9048 237.838 45.2976C239.138 41.3691 238.902 38.5714 237.956 37.9167C237.188 37.381 235.12 37.8572 231.456 40.8333C230.392 41.6667 228.088 43.4524 225.606 44.4643C225.547 45.8929 225.192 47.3214 224.719 48.3929C223.183 51.8452 220.228 53.9881 217.333 53.75C215.146 53.5714 213.551 52.0833 212.901 49.8214C211.541 44.7024 216.092 41.1905 218.928 39.881C219.046 39.5833 219.224 39.3452 219.401 39.1072C220.228 38.0357 221.587 37.7976 222.946 38.5714C224.306 39.3452 225.074 40.5952 225.428 42.0238C226.669 41.4286 228.206 40.4762 230.038 38.9881C234.292 35.5357 237.365 34.5833 239.374 35.9524C241.443 37.381 241.443 40.8333 240.674 44.1071C242.27 41.4881 244.575 39.4643 247.766 40C251.252 40.5952 251.016 43.9286 250.838 46.4286C250.72 48.2143 250.543 50.119 251.548 50.9524C252.434 51.6667 254.68 52.2024 260.648 50.5357C279.321 45.4167 298.586 32.381 298.763 32.2619C299.295 31.9048 300.063 32.0238 300.418 32.5595C300.772 33.0953 300.654 33.8691 300.122 34.2262C299.945 34.3453 280.326 47.6191 261.298 52.7976C258.461 53.5714 256.157 53.9881 254.325 53.9881ZM218.692 42.7381C216.919 43.8095 214.378 46.0119 215.264 49.2262C215.619 50.5357 216.446 51.3095 217.569 51.3691C219.105 51.4881 221.351 50.2976 222.592 47.4405C222.946 46.6071 223.183 45.8333 223.242 45.1191C221.824 45.3572 220.524 45.1191 219.519 44.1667C219.105 43.75 218.81 43.2738 218.692 42.7381ZM221.351 40.4762C220.76 41.25 220.701 42.0238 221.115 42.4405C221.41 42.7381 222.06 42.9167 223.065 42.7381C222.887 42.0238 222.533 41.4286 222.178 41.0119C221.824 40.5952 221.469 40.4762 221.351 40.4762Z" fill="#00006B"/>
<path d="M254.325 53.75C252.493 53.75 251.134 53.3333 250.188 52.5595C248.357 51.0119 248.534 48.4524 248.711 46.25C248.947 43.3333 248.77 42.381 247.411 42.1429C241.974 41.1905 239.729 52.7381 239.67 52.8572C239.611 53.1548 239.433 53.3929 239.197 53.5119C238.961 53.631 238.665 53.6905 238.37 53.5714C237.72 53.3333 235.888 51.9643 238.074 45.3572C239.256 41.7262 239.256 38.5119 238.133 37.7381C237.602 37.381 235.947 36.9643 231.397 40.6548C229.269 42.381 227.26 43.631 225.487 44.3452C225.487 45.5357 225.192 46.9048 224.601 48.3929C222.887 52.2619 219.755 53.8095 217.392 53.5714C215.323 53.3929 213.728 52.0238 213.196 49.8214C211.896 44.7619 216.387 41.3691 219.164 40.1191C219.283 39.8214 219.46 39.5833 219.637 39.2857C220.405 38.2738 221.646 38.0952 222.887 38.8095C223.892 39.4048 224.837 40.6548 225.31 42.381C226.61 41.7857 228.265 40.7738 230.215 39.1667C234.351 35.7738 237.365 34.8214 239.256 36.1905C241.62 37.8572 241.147 42.3214 239.965 46.0119C241.502 42.7381 243.984 39.5833 247.825 40.2381C251.134 40.8333 250.898 44.0476 250.72 46.4286C250.602 48.2738 250.425 50.2381 251.548 51.131C252.848 52.2024 255.98 52.0833 260.884 50.7738C279.558 45.6548 298.881 32.6191 299.059 32.5C299.472 32.2024 300.122 32.3214 300.418 32.7381C300.713 33.1548 300.595 33.8095 300.181 34.1072C300.004 34.2262 280.444 47.5 261.416 52.6786C258.402 53.3929 256.098 53.75 254.325 53.75ZM218.81 42.381C217.037 43.4524 214.082 45.7143 215.028 49.2262C215.382 50.5952 216.269 51.4286 217.51 51.5476C219.105 51.6667 221.469 50.4762 222.769 47.5C223.183 46.5476 223.419 45.6548 223.478 44.8214C221.883 45.1191 220.583 44.8214 219.637 43.9286C219.224 43.5714 218.928 43.0357 218.81 42.381ZM221.41 40.2381C221.233 40.2381 221.174 40.3572 221.174 40.3572C220.583 41.131 220.524 42.0833 221.055 42.5595C221.41 42.9167 222.178 43.1548 223.419 42.8572C223.183 41.6072 222.533 40.7143 221.883 40.3572C221.646 40.2976 221.528 40.2381 221.41 40.2381Z" fill="#00006B"/>
<path d="M254.325 53.5119C252.552 53.5119 251.252 53.1548 250.366 52.3809C248.593 50.8929 248.77 48.4524 248.947 46.25C249.184 43.4524 249.066 42.1429 247.47 41.9048C241.738 40.8929 239.493 52.6786 239.493 52.7976C239.433 53.0357 239.315 53.2143 239.138 53.3333C238.961 53.4524 238.724 53.4524 238.488 53.3928C237.897 53.1548 236.183 51.9048 238.311 45.4762C239.552 41.7857 239.493 38.4524 238.252 37.5595C237.07 36.7262 234.529 37.7976 231.219 40.4762C228.797 42.4405 226.787 43.5714 225.251 44.1667C225.251 45.4167 225.015 46.7857 224.365 48.2143C222.71 51.9643 219.637 53.4524 217.392 53.2738C215.442 53.0952 213.905 51.7857 213.373 49.7024C212.073 44.7619 216.564 41.369 219.283 40.2381C219.401 39.9405 219.578 39.6429 219.755 39.4048C220.405 38.5119 221.587 38.3333 222.71 38.9881C223.715 39.5833 224.719 40.8929 225.074 42.6786C226.492 42.0833 228.206 41.0714 230.274 39.3452C234.292 36.0714 237.247 35.0595 239.079 36.369C241.324 37.9167 240.852 42.3809 239.67 45.9524C239.197 47.4405 238.902 48.5714 238.783 49.4048C239.965 45.5357 242.684 39.6429 247.647 40.4762C250.72 41.0119 250.543 43.9881 250.366 46.4286C250.247 48.3333 250.07 50.3571 251.252 51.3095C252.611 52.4405 255.802 52.3214 260.766 51.0119C279.499 45.8929 298.822 32.7976 298.999 32.6786C299.354 32.4405 299.768 32.5595 300.004 32.8571C300.24 33.1548 300.122 33.631 299.827 33.869C299.649 33.9881 280.09 47.2024 261.121 52.3809C258.343 53.1548 256.098 53.5119 254.325 53.5119ZM218.987 42.0238C217.214 43.0357 213.787 45.4762 214.792 49.2857C215.205 50.7738 216.151 51.6667 217.51 51.7857C219.283 51.9048 221.646 50.7143 223.005 47.619C223.478 46.5476 223.715 45.5357 223.774 44.5833C221.469 45.0595 220.287 44.2262 219.874 43.8095C219.342 43.3928 219.046 42.7381 218.987 42.0238ZM221.41 40.0595C221.233 40.0595 221.114 40.119 220.996 40.2976C220.346 41.1905 220.287 42.2619 220.878 42.7976C221.292 43.2143 222.237 43.4524 223.715 43.0952C223.478 41.6667 222.769 40.6548 222.001 40.2381C221.765 40.119 221.587 40.0595 221.41 40.0595Z" fill="#00006B"/>
<path d="M254.325 53.2738C252.611 53.2738 251.37 52.9167 250.484 52.2024C248.829 50.8333 249.006 48.3929 249.184 46.25C249.361 43.5714 249.42 41.9643 247.529 41.6071C241.561 40.5952 239.315 52.5595 239.256 52.6786C239.256 52.7976 239.138 52.9762 239.02 53.0357C238.902 53.0952 238.724 53.0952 238.606 53.0357C238.252 52.8571 236.479 51.7857 238.547 45.4167C239.847 41.5476 239.788 38.2143 238.429 37.2619C237.129 36.3691 234.529 37.4405 231.101 40.1786C228.619 42.2024 226.61 43.3333 225.015 43.9286C225.074 45.1786 224.778 46.5476 224.128 48.0357C222.533 51.6667 219.578 53.0952 217.392 52.9762C215.56 52.7976 214.141 51.5476 213.61 49.5833C212.073 43.8095 218.751 40.7143 219.46 40.3572C219.578 40.0595 219.755 39.7619 219.933 39.4643C220.524 38.631 221.528 38.5119 222.533 39.1072C223.537 39.7024 224.542 41.0714 224.837 42.9167C226.315 42.3214 228.206 41.25 230.392 39.4643C234.292 36.3095 237.188 35.2976 238.902 36.4881C241.029 37.9762 240.497 42.4405 239.374 45.7738C238.429 48.631 238.311 50.3571 238.488 51.25C239.315 47.9762 241.915 39.7024 247.588 40.6548C250.484 41.131 250.247 43.8691 250.07 46.3095C249.952 48.2738 249.775 50.3571 251.016 51.4286C252.434 52.619 255.743 52.5595 260.766 51.1905C279.558 46.0714 298.881 32.9762 299.118 32.8572C299.354 32.6786 299.649 32.7381 299.768 32.9762C299.945 33.2143 299.886 33.5119 299.649 33.631C299.472 33.75 279.971 46.9643 261.002 52.1429C258.284 52.9167 256.039 53.2738 254.325 53.2738ZM219.223 41.6667C218.573 42.0238 217.569 42.6191 216.623 43.4524C214.673 45.2381 213.964 47.2619 214.555 49.4048C214.969 51.0119 216.032 51.9643 217.451 52.0833C219.283 52.2024 221.764 50.9524 223.183 47.7381C223.715 46.4881 223.951 45.2976 224.01 44.2857C221.646 44.881 220.405 44.0476 219.992 43.6905C219.46 43.1548 219.223 42.4405 219.223 41.6667ZM221.351 39.7619C221.114 39.7619 220.878 39.8214 220.701 40.1191C219.992 41.131 219.933 42.3214 220.642 42.9762C221.233 43.5119 222.296 43.75 223.892 43.3333C223.655 41.7262 222.887 40.5357 222.001 40.0595C221.883 39.881 221.646 39.7619 221.351 39.7619Z" fill="#00006B"/>
<path d="M254.325 52.9762C252.67 52.9762 251.488 52.6191 250.661 51.9643C249.125 50.6548 249.302 48.4524 249.42 46.3095C249.597 43.8691 249.775 41.7857 247.529 41.3691C241.265 40.2976 238.961 52.5595 238.902 52.6786C238.902 52.7381 238.842 52.7976 238.783 52.7976C238.724 52.7976 238.665 52.8572 238.606 52.7976C238.429 52.7381 236.656 51.8452 238.724 45.5952C239.847 42.2024 240.202 38.2738 238.488 37.0833C237.07 36.0714 234.41 37.1429 230.806 40.0595C228.324 42.0833 226.256 43.2143 224.601 43.8095C224.66 45.0595 224.424 46.4881 223.774 48.0357C222.237 51.5476 219.401 52.9762 217.333 52.7976C215.56 52.6786 214.319 51.4881 213.787 49.6429C212.251 43.8095 219.46 40.7738 219.519 40.7738H219.578C219.696 40.4762 219.874 40.1191 220.11 39.8214C220.642 39.1072 221.469 39.0476 222.355 39.5238C223.36 40.1191 224.365 41.5476 224.542 43.5119C226.137 42.9762 228.147 41.7857 230.51 39.881C234.292 36.7857 237.07 35.7738 238.665 36.9048C240.674 38.3333 240.143 42.6191 239.079 45.8333C237.542 50.4167 238.192 51.9643 238.547 52.381C238.724 51.4881 239.315 48.9286 240.438 46.4881C242.27 42.4405 244.752 40.5953 247.529 41.0714C250.129 41.5476 249.952 43.9881 249.775 46.4286C249.597 48.5119 249.479 50.6548 250.838 51.7857C252.375 53.0953 255.625 52.9762 260.825 51.6072C279.676 46.4881 299.059 33.3333 299.236 33.2143C299.295 33.1548 299.413 33.1548 299.531 33.2738C299.59 33.3333 299.59 33.5119 299.472 33.5714C299.295 33.6905 279.853 46.8452 260.943 52.0238C258.284 52.6191 256.039 52.9762 254.325 52.9762ZM219.578 41.131C218.396 41.6667 212.96 44.5238 214.26 49.4643C214.732 51.1905 215.855 52.2619 217.451 52.381C219.401 52.5595 222.001 51.1905 223.478 47.8572C224.128 46.3691 224.365 45.0595 224.306 43.8691C222.355 44.4643 220.996 44.1667 220.228 43.4524C219.578 42.8572 219.401 42.0238 219.578 41.131ZM221.351 39.4643C220.996 39.4643 220.701 39.6429 220.464 39.9405C219.637 41.0714 219.637 42.381 220.405 43.1548C221.115 43.8095 222.355 44.0476 224.187 43.5119C224.01 41.6667 223.124 40.2976 222.178 39.7619C221.942 39.5833 221.646 39.4643 221.351 39.4643Z" fill="#00006B"/>
</svg>
