<?xml version="1.0" encoding="utf-8"?>
<!-- Generator: Adobe Illustrator 25.0.1, SVG Export Plug-In . SVG Version: 6.00 Build 0)  -->
<svg version="1.1" id="FINAL" xmlns="http://www.w3.org/2000/svg" xmlns:xlink="http://www.w3.org/1999/xlink" x="0px" y="0px"
	 viewBox="0 0 862.27 236" style="enable-background:new 0 0 862.27 236;" xml:space="preserve">
<style type="text/css">
	.st0{fill:#464342;}
</style>
<g id="e-cohabiter_logo">
	<g id="Atelier_d_x27_Architecture_Ecologique">
		<path class="st0" d="M28.37,207.72c0-0.12,0.01-0.21,0.04-0.26l7.73-25.12c0.17-0.57,0.65-0.85,1.43-0.85
			c0.78,0,1.27,0.29,1.47,0.86l7.71,25.18c0,0.02,0.01,0.06,0.02,0.11c0.01,0.05,0.02,0.08,0.02,0.11c0,0.28-0.16,0.52-0.48,0.72
			c-0.32,0.2-0.65,0.3-1,0.3c-0.47,0-0.78-0.21-0.93-0.63l-1.7-5.7H32.47l-1.71,5.7c-0.1,0.42-0.42,0.62-0.97,0.62
			c-0.35,0-0.67-0.1-0.97-0.29C28.52,208.26,28.37,208.02,28.37,207.72z M33.11,200.32h8.96l-4.46-14.94L33.11,200.32z"/>
		<path class="st0" d="M53.72,182.84c0-0.29,0.08-0.55,0.24-0.78c0.16-0.23,0.39-0.35,0.68-0.35h14.84c0.3,0,0.52,0.11,0.68,0.33
			c0.16,0.22,0.24,0.47,0.24,0.76c0,0.32-0.08,0.59-0.24,0.82c-0.16,0.23-0.39,0.35-0.68,0.35H63.3v23.83c0,0.3-0.12,0.53-0.37,0.71
			c-0.25,0.17-0.53,0.26-0.85,0.26c-0.35,0-0.64-0.09-0.87-0.26c-0.23-0.17-0.35-0.41-0.35-0.71v-23.83h-6.22
			c-0.27,0-0.49-0.11-0.67-0.33C53.8,183.42,53.72,183.15,53.72,182.84z"/>
		<path class="st0" d="M81.43,207.79v-25.16c0-0.3,0.11-0.52,0.33-0.69c0.22-0.16,0.48-0.24,0.78-0.24h13.17
			c0.62,0,0.92,0.36,0.92,1.07c0,0.32-0.08,0.6-0.24,0.83c-0.16,0.23-0.39,0.35-0.68,0.35H83.87v10.17h5.81
			c0.3,0,0.52,0.11,0.68,0.32c0.16,0.21,0.24,0.48,0.24,0.8c0,0.67-0.31,1-0.92,1h-5.81v10.25h11.84c0.27,0,0.49,0.11,0.67,0.33
			c0.17,0.22,0.26,0.49,0.26,0.81c0,0.74-0.31,1.11-0.92,1.11H82.54c-0.3,0-0.55-0.09-0.78-0.26
			C81.54,208.32,81.43,208.09,81.43,207.79z"/>
		<path class="st0" d="M107.88,207.79v-25.2c0-0.59,0.41-0.89,1.22-0.89s1.22,0.3,1.22,0.89v23.9h10.54c0.54,0,0.81,0.37,0.81,1.11
			c0,0.76-0.27,1.15-0.81,1.15h-11.88c-0.3,0-0.55-0.09-0.78-0.26C107.99,208.32,107.88,208.09,107.88,207.79z"/>
		<path class="st0" d="M132.67,207.79v-25.2c0-0.59,0.41-0.89,1.22-0.89s1.22,0.3,1.22,0.89v25.2c0,0.29-0.12,0.53-0.37,0.7
			c-0.25,0.17-0.53,0.26-0.85,0.26c-0.35,0-0.64-0.09-0.87-0.26C132.79,208.32,132.67,208.09,132.67,207.79z"/>
		<path class="st0" d="M148.4,207.79v-25.16c0-0.3,0.11-0.52,0.33-0.69c0.22-0.16,0.48-0.24,0.78-0.24h13.17
			c0.62,0,0.92,0.36,0.92,1.07c0,0.32-0.08,0.6-0.24,0.83c-0.16,0.23-0.39,0.35-0.68,0.35h-11.84v10.17h5.81
			c0.3,0,0.52,0.11,0.68,0.32c0.16,0.21,0.24,0.48,0.24,0.8c0,0.67-0.31,1-0.92,1h-5.81v10.25h11.84c0.27,0,0.49,0.11,0.67,0.33
			c0.17,0.22,0.26,0.49,0.26,0.81c0,0.74-0.31,1.11-0.92,1.11h-13.17c-0.3,0-0.55-0.09-0.78-0.26
			C148.51,208.32,148.4,208.09,148.4,207.79z"/>
		<path class="st0" d="M174.85,207.79v-25.2c0-0.54,0.31-0.84,0.92-0.89h6.55c2.39,0,4.32,0.57,5.79,1.7c1.47,1.14,2.2,3,2.2,5.59
			c0,4.1-1.92,6.47-5.77,7.14l5.7,10.95c0.1,0.12,0.15,0.28,0.15,0.48c0,0.32-0.15,0.61-0.44,0.87c-0.3,0.26-0.62,0.39-0.96,0.39
			c-0.44,0-0.88-0.43-1.29-1.29l-5.7-11.1h-4.7v11.36c0,0.29-0.12,0.53-0.37,0.7c-0.25,0.17-0.53,0.26-0.85,0.26
			c-0.35,0-0.64-0.09-0.87-0.26C174.97,208.32,174.85,208.09,174.85,207.79z M177.29,194.33h5.03c3.7,0,5.55-1.74,5.55-5.22
			c0-3.43-1.85-5.14-5.55-5.14h-5.03V194.33z"/>
		<path class="st0" d="M217.14,207.83V182.6c0-0.25,0.1-0.46,0.31-0.63c0.21-0.17,0.47-0.26,0.8-0.26h6.55
			c2.34,0,4.22,0.64,5.62,1.91c1.41,1.27,2.11,3.26,2.11,5.97v11.25c0,2.74-0.7,4.74-2.11,6.01c-1.41,1.27-3.28,1.9-5.62,1.9h-6.55
			c-0.32,0-0.59-0.09-0.8-0.28C217.25,208.29,217.14,208.08,217.14,207.83z M219.58,206.5h5.22c1.68,0,2.98-0.47,3.9-1.43
			c0.92-0.95,1.39-2.36,1.39-4.24v-11.25c0-1.87-0.46-3.28-1.39-4.22s-2.23-1.41-3.9-1.41h-5.22V206.5z"/>
		<path class="st0" d="M244.04,183.04c0-0.47,0.16-0.87,0.48-1.2s0.7-0.5,1.15-0.5c0.45,0,0.83,0.17,1.15,0.5s0.48,0.73,0.48,1.2
			c0,0.54-0.47,1.94-1.42,4.18c-0.14,0.3-0.35,0.44-0.64,0.44c-0.24,0-0.44-0.07-0.62-0.22c-0.18-0.15-0.27-0.33-0.27-0.56
			c0-0.15,0.02-0.26,0.07-0.33l0.71-1.92c-0.33-0.12-0.6-0.33-0.8-0.63C244.14,183.71,244.04,183.39,244.04,183.04z"/>
		<path class="st0" d="M255.55,207.72c0-0.12,0.01-0.21,0.04-0.26l7.73-25.12c0.17-0.57,0.65-0.85,1.43-0.85
			c0.78,0,1.27,0.29,1.47,0.86l7.71,25.18c0,0.02,0.01,0.06,0.02,0.11c0.01,0.05,0.02,0.08,0.02,0.11c0,0.28-0.16,0.52-0.48,0.72
			c-0.32,0.2-0.65,0.3-1,0.3c-0.47,0-0.78-0.21-0.93-0.63l-1.7-5.7h-10.22l-1.71,5.7c-0.1,0.42-0.42,0.62-0.97,0.62
			c-0.35,0-0.67-0.1-0.97-0.29C255.7,208.26,255.55,208.02,255.55,207.72z M260.28,200.32h8.96l-4.46-14.94L260.28,200.32z"/>
		<path class="st0" d="M285.22,207.79v-25.2c0-0.54,0.31-0.84,0.92-0.89h6.55c2.39,0,4.32,0.57,5.79,1.7c1.47,1.14,2.2,3,2.2,5.59
			c0,4.1-1.92,6.47-5.77,7.14l5.7,10.95c0.1,0.12,0.15,0.28,0.15,0.48c0,0.32-0.15,0.61-0.44,0.87c-0.3,0.26-0.62,0.39-0.96,0.39
			c-0.44,0-0.88-0.43-1.29-1.29l-5.7-11.1h-4.7v11.36c0,0.29-0.12,0.53-0.37,0.7c-0.25,0.17-0.53,0.26-0.85,0.26
			c-0.35,0-0.64-0.09-0.87-0.26C285.34,208.32,285.22,208.09,285.22,207.79z M287.66,194.33h5.03c3.7,0,5.55-1.74,5.55-5.22
			c0-3.43-1.85-5.14-5.55-5.14h-5.03V194.33z"/>
		<path class="st0" d="M312.16,201.06v-11.47c0-2.69,0.72-4.67,2.16-5.96c1.44-1.28,3.31-1.92,5.61-1.92c2.34,0,4.2,0.6,5.57,1.79
			c1.37,1.2,2.05,2.66,2.05,4.38c0,0.59-0.09,0.99-0.28,1.18s-0.5,0.3-0.94,0.3c-0.76,0-1.17-0.31-1.22-0.92
			c-0.02-0.37-0.07-0.73-0.15-1.07c-0.07-0.34-0.22-0.73-0.44-1.17s-0.51-0.81-0.87-1.13c-0.36-0.32-0.86-0.59-1.5-0.79
			c-0.64-0.21-1.38-0.31-2.22-0.31c-3.55,0-5.33,1.88-5.33,5.62v11.47c0,3.77,1.83,5.66,5.48,5.66c1.04,0,1.9-0.14,2.59-0.42
			c0.69-0.28,1.2-0.7,1.52-1.24c0.32-0.54,0.54-1,0.65-1.39c0.11-0.38,0.2-0.88,0.28-1.5c0.07-0.64,0.48-0.96,1.22-0.96
			c0.44,0,0.76,0.1,0.94,0.31c0.19,0.21,0.28,0.61,0.28,1.2c0,1.75-0.7,3.23-2.09,4.44c-1.39,1.21-3.27,1.81-5.64,1.81
			c-2.27,0-4.11-0.64-5.53-1.92C312.87,205.77,312.16,203.77,312.16,201.06z"/>
		<path class="st0" d="M339.46,207.79v-25.2c0-0.59,0.41-0.89,1.22-0.89s1.22,0.3,1.22,0.89v11.06h10.69V182.6
			c0-0.59,0.41-0.89,1.22-0.89s1.22,0.3,1.22,0.89v25.2c0,0.29-0.12,0.53-0.37,0.7c-0.25,0.17-0.53,0.26-0.85,0.26
			c-0.35,0-0.64-0.09-0.87-0.26c-0.23-0.17-0.35-0.41-0.35-0.7v-12.03h-10.69v12.03c0,0.29-0.12,0.53-0.37,0.7
			c-0.25,0.17-0.53,0.26-0.85,0.26c-0.35,0-0.64-0.09-0.87-0.26C339.58,208.32,339.46,208.09,339.46,207.79z"/>
		<path class="st0" d="M368.32,207.79v-25.2c0-0.59,0.41-0.89,1.22-0.89s1.22,0.3,1.22,0.89v25.2c0,0.29-0.12,0.53-0.37,0.7
			c-0.25,0.17-0.53,0.26-0.85,0.26c-0.35,0-0.64-0.09-0.87-0.26C368.44,208.32,368.32,208.09,368.32,207.79z"/>
		<path class="st0" d="M381.79,182.84c0-0.29,0.08-0.55,0.24-0.78c0.16-0.23,0.39-0.35,0.68-0.35h14.84c0.3,0,0.52,0.11,0.68,0.33
			c0.16,0.22,0.24,0.47,0.24,0.76c0,0.32-0.08,0.59-0.24,0.82c-0.16,0.23-0.39,0.35-0.68,0.35h-6.18v23.83
			c0,0.3-0.12,0.53-0.37,0.71c-0.25,0.17-0.53,0.26-0.85,0.26c-0.35,0-0.64-0.09-0.87-0.26c-0.23-0.17-0.35-0.41-0.35-0.71v-23.83
			h-6.22c-0.27,0-0.49-0.11-0.67-0.33C381.88,183.42,381.79,183.15,381.79,182.84z"/>
		<path class="st0" d="M409.5,207.79v-25.16c0-0.3,0.11-0.52,0.33-0.69c0.22-0.16,0.48-0.24,0.78-0.24h13.17
			c0.62,0,0.92,0.36,0.92,1.07c0,0.32-0.08,0.6-0.24,0.83c-0.16,0.23-0.39,0.35-0.68,0.35h-11.84v10.17h5.81
			c0.3,0,0.52,0.11,0.68,0.32c0.16,0.21,0.24,0.48,0.24,0.8c0,0.67-0.31,1-0.92,1h-5.81v10.25h11.84c0.27,0,0.49,0.11,0.67,0.33
			c0.17,0.22,0.26,0.49,0.26,0.81c0,0.74-0.31,1.11-0.92,1.11h-13.17c-0.3,0-0.55-0.09-0.78-0.26
			C409.61,208.32,409.5,208.09,409.5,207.79z"/>
		<path class="st0" d="M435.18,201.06v-11.47c0-2.69,0.72-4.67,2.17-5.96c1.44-1.28,3.31-1.92,5.61-1.92c2.34,0,4.2,0.6,5.57,1.79
			c1.37,1.2,2.05,2.66,2.05,4.38c0,0.59-0.09,0.99-0.28,1.18c-0.18,0.2-0.5,0.3-0.94,0.3c-0.76,0-1.17-0.31-1.22-0.92
			c-0.03-0.37-0.07-0.73-0.15-1.07c-0.07-0.34-0.22-0.73-0.44-1.17c-0.22-0.43-0.51-0.81-0.87-1.13s-0.86-0.59-1.5-0.79
			c-0.64-0.21-1.38-0.31-2.22-0.31c-3.55,0-5.33,1.88-5.33,5.62v11.47c0,3.77,1.83,5.66,5.48,5.66c1.04,0,1.9-0.14,2.59-0.42
			c0.69-0.28,1.2-0.7,1.52-1.24c0.32-0.54,0.54-1,0.65-1.39c0.11-0.38,0.2-0.88,0.28-1.5c0.07-0.64,0.48-0.96,1.22-0.96
			c0.44,0,0.76,0.1,0.94,0.31c0.19,0.21,0.28,0.61,0.28,1.2c0,1.75-0.7,3.23-2.09,4.44c-1.39,1.21-3.27,1.81-5.64,1.81
			c-2.27,0-4.11-0.64-5.53-1.92C435.89,205.77,435.18,203.77,435.18,201.06z"/>
		<path class="st0" d="M460.23,182.84c0-0.29,0.08-0.55,0.24-0.78c0.16-0.23,0.39-0.35,0.68-0.35h14.84c0.3,0,0.52,0.11,0.68,0.33
			s0.24,0.47,0.24,0.76c0,0.32-0.08,0.59-0.24,0.82s-0.39,0.35-0.68,0.35h-6.18v23.83c0,0.3-0.12,0.53-0.37,0.71
			c-0.25,0.17-0.53,0.26-0.85,0.26c-0.35,0-0.64-0.09-0.87-0.26c-0.23-0.17-0.35-0.41-0.35-0.71v-23.83h-6.22
			c-0.27,0-0.49-0.11-0.67-0.33S460.23,183.15,460.23,182.84z"/>
		<path class="st0" d="M487.83,201.06V182.6c0-0.59,0.41-0.89,1.22-0.89c0.81,0,1.22,0.3,1.22,0.89v18.46
			c0,1.88,0.46,3.29,1.39,4.24c0.93,0.95,2.24,1.42,3.94,1.42c1.7,0,3.01-0.47,3.94-1.42c0.92-0.95,1.39-2.36,1.39-4.24V182.6
			c0-0.59,0.41-0.89,1.22-0.89c0.81,0,1.22,0.3,1.22,0.89v18.46c0,2.74-0.71,4.74-2.13,6.01c-1.42,1.27-3.3,1.91-5.64,1.91
			c-2.34,0-4.22-0.63-5.64-1.91C488.54,205.8,487.83,203.8,487.83,201.06z"/>
		<path class="st0" d="M516.54,207.79v-25.2c0-0.54,0.31-0.84,0.92-0.89h6.55c2.39,0,4.32,0.57,5.79,1.7c1.47,1.14,2.2,3,2.2,5.59
			c0,4.1-1.92,6.47-5.77,7.14l5.7,10.95c0.1,0.12,0.15,0.28,0.15,0.48c0,0.32-0.15,0.61-0.44,0.87c-0.3,0.26-0.62,0.39-0.96,0.39
			c-0.44,0-0.88-0.43-1.29-1.29l-5.7-11.1h-4.7v11.36c0,0.29-0.12,0.53-0.37,0.7c-0.25,0.17-0.53,0.26-0.85,0.26
			c-0.35,0-0.64-0.09-0.87-0.26C516.66,208.32,516.54,208.09,516.54,207.79z M518.99,194.33h5.03c3.7,0,5.55-1.74,5.55-5.22
			c0-3.43-1.85-5.14-5.55-5.14h-5.03V194.33z"/>
		<path class="st0" d="M543.78,207.79v-25.16c0-0.3,0.11-0.52,0.33-0.69c0.22-0.16,0.48-0.24,0.78-0.24h13.17
			c0.62,0,0.92,0.36,0.92,1.07c0,0.32-0.08,0.6-0.24,0.83c-0.16,0.23-0.39,0.35-0.68,0.35h-11.84v10.17h5.81
			c0.3,0,0.52,0.11,0.68,0.32s0.24,0.48,0.24,0.8c0,0.67-0.31,1-0.92,1h-5.81v10.25h11.84c0.27,0,0.49,0.11,0.67,0.33
			c0.17,0.22,0.26,0.49,0.26,0.81c0,0.74-0.31,1.11-0.92,1.11h-13.17c-0.3,0-0.55-0.09-0.78-0.26
			C543.89,208.32,543.78,208.09,543.78,207.79z"/>
		<path class="st0" d="M585.29,207.79v-25.16c0-0.3,0.11-0.52,0.33-0.69c0.22-0.16,0.48-0.24,0.78-0.24h13.17
			c0.62,0,0.92,0.36,0.92,1.07c0,0.32-0.08,0.6-0.24,0.83c-0.16,0.23-0.39,0.35-0.68,0.35h-11.84v10.17h5.81
			c0.3,0,0.52,0.11,0.68,0.32s0.24,0.48,0.24,0.8c0,0.67-0.31,1-0.92,1h-5.81v10.25h11.84c0.27,0,0.49,0.11,0.67,0.33
			c0.17,0.22,0.26,0.49,0.26,0.81c0,0.74-0.31,1.11-0.92,1.11H586.4c-0.3,0-0.55-0.09-0.78-0.26
			C585.4,208.32,585.29,208.09,585.29,207.79z M590.25,176.45c0-0.32,0.14-0.54,0.41-0.67l4.14-2.26c0.07-0.07,0.17-0.11,0.3-0.11
			c0.27,0,0.49,0.1,0.65,0.31c0.16,0.21,0.24,0.45,0.24,0.72c0,0.39-0.15,0.67-0.44,0.81l-3.96,2.11c-0.1,0.07-0.22,0.11-0.37,0.11
			c-0.25,0-0.47-0.1-0.67-0.31C590.35,176.97,590.25,176.73,590.25,176.45z"/>
		<path class="st0" d="M610.97,201.06v-11.47c0-2.69,0.72-4.67,2.16-5.96c1.44-1.28,3.31-1.92,5.61-1.92c2.34,0,4.2,0.6,5.57,1.79
			c1.37,1.2,2.05,2.66,2.05,4.38c0,0.59-0.09,0.99-0.28,1.18s-0.5,0.3-0.94,0.3c-0.77,0-1.17-0.31-1.22-0.92
			c-0.03-0.37-0.07-0.73-0.15-1.07c-0.07-0.34-0.22-0.73-0.44-1.17c-0.22-0.43-0.51-0.81-0.87-1.13c-0.36-0.32-0.86-0.59-1.5-0.79
			c-0.64-0.21-1.38-0.31-2.22-0.31c-3.55,0-5.33,1.88-5.33,5.62v11.47c0,3.77,1.83,5.66,5.48,5.66c1.04,0,1.9-0.14,2.59-0.42
			c0.69-0.28,1.2-0.7,1.52-1.24s0.54-1,0.65-1.39c0.11-0.38,0.2-0.88,0.28-1.5c0.07-0.64,0.48-0.96,1.22-0.96
			c0.44,0,0.76,0.1,0.94,0.31c0.19,0.21,0.28,0.61,0.28,1.2c0,1.75-0.7,3.23-2.09,4.44c-1.39,1.21-3.28,1.81-5.64,1.81
			c-2.27,0-4.11-0.64-5.53-1.92C611.68,205.77,610.97,203.77,610.97,201.06z"/>
		<path class="st0" d="M637.98,201.06v-11.47c0-2.71,0.7-4.7,2.09-5.97s3.26-1.91,5.61-1.91c2.34,0,4.21,0.64,5.61,1.91
			s2.09,3.26,2.09,5.97v11.47c0,2.74-0.7,4.74-2.09,6.01c-1.39,1.27-3.26,1.91-5.61,1.91c-2.34,0-4.21-0.63-5.61-1.91
			C638.68,205.8,637.98,203.8,637.98,201.06z M640.42,201.06c0,3.77,1.75,5.66,5.25,5.66c3.5,0,5.25-1.89,5.25-5.66v-11.47
			c0-3.75-1.75-5.62-5.25-5.62c-3.5,0-5.25,1.88-5.25,5.62V201.06z"/>
		<path class="st0" d="M666.36,207.79v-25.2c0-0.59,0.41-0.89,1.22-0.89c0.81,0,1.22,0.3,1.22,0.89v23.9h10.54
			c0.54,0,0.81,0.37,0.81,1.11c0,0.76-0.27,1.15-0.81,1.15h-11.88c-0.3,0-0.55-0.09-0.78-0.26
			C666.47,208.32,666.36,208.09,666.36,207.79z"/>
		<path class="st0" d="M690.26,201.06v-11.47c0-2.71,0.7-4.7,2.09-5.97s3.26-1.91,5.61-1.91c2.34,0,4.21,0.64,5.61,1.91
			s2.09,3.26,2.09,5.97v11.47c0,2.74-0.7,4.74-2.09,6.01c-1.39,1.27-3.26,1.91-5.61,1.91c-2.34,0-4.21-0.63-5.61-1.91
			C690.96,205.8,690.26,203.8,690.26,201.06z M692.7,201.06c0,3.77,1.75,5.66,5.25,5.66c3.5,0,5.25-1.89,5.25-5.66v-11.47
			c0-3.75-1.75-5.62-5.25-5.62c-3.5,0-5.25,1.88-5.25,5.62V201.06z"/>
		<path class="st0" d="M718.34,201.06v-11.47c0-2.71,0.7-4.7,2.09-5.97s3.25-1.91,5.57-1.91c2.34,0,4.22,0.6,5.62,1.79
			c1.41,1.2,2.11,2.73,2.11,4.61c0,0.84-0.41,1.26-1.22,1.26c-0.79,0-1.2-0.31-1.22-0.92c-0.35-2.98-2.1-4.48-5.25-4.48
			c-3.5,0-5.25,1.88-5.25,5.62v11.47c0,1.9,0.46,3.32,1.37,4.25c0.91,0.94,2.21,1.41,3.88,1.41c1.68,0,2.97-0.47,3.88-1.41
			c0.91-0.94,1.37-2.36,1.37-4.25v-4.4h-4.96c-0.27,0-0.49-0.1-0.65-0.31c-0.16-0.21-0.24-0.46-0.24-0.76
			c0-0.27,0.08-0.51,0.24-0.72s0.38-0.31,0.65-0.31h6.51c0.59,0,0.89,0.32,0.89,0.96v5.55c0,2.74-0.7,4.74-2.09,6.01
			c-1.39,1.27-3.26,1.91-5.61,1.91c-2.34,0-4.21-0.63-5.61-1.91C719.04,205.8,718.34,203.8,718.34,201.06z"/>
		<path class="st0" d="M746.31,207.79v-25.2c0-0.59,0.41-0.89,1.22-0.89c0.81,0,1.22,0.3,1.22,0.89v25.2c0,0.29-0.12,0.53-0.37,0.7
			c-0.25,0.17-0.53,0.26-0.85,0.26c-0.35,0-0.64-0.09-0.87-0.26C746.43,208.32,746.31,208.09,746.31,207.79z"/>
		<path class="st0" d="M761.74,201.06v-11.47c0-2.71,0.7-4.7,2.09-5.97s3.26-1.91,5.61-1.91c2.34,0,4.21,0.64,5.61,1.91
			s2.09,3.26,2.09,5.97v11.47c0,2.54-0.6,4.45-1.81,5.73c-1.21,1.28-2.85,2-4.92,2.15v2.98c0,0.3-0.09,0.54-0.28,0.7
			s-0.4,0.25-0.65,0.25c-0.27,0-0.5-0.08-0.68-0.25s-0.28-0.4-0.28-0.7v-2.98c-2.1-0.15-3.75-0.86-4.96-2.13
			C762.35,205.54,761.74,203.63,761.74,201.06z M764.18,201.12c0,3.39,1.44,5.25,4.33,5.57v-2.79c0-0.6,0.32-0.91,0.96-0.91
			c0.62,0,0.92,0.3,0.92,0.91v2.79c2.86-0.35,4.29-2.2,4.29-5.57v-11.51c0-3.76-1.75-5.64-5.25-5.64c-3.5,0-5.25,1.88-5.25,5.64
			V201.12z"/>
		<path class="st0" d="M790.01,201.06V182.6c0-0.59,0.41-0.89,1.22-0.89c0.81,0,1.22,0.3,1.22,0.89v18.46
			c0,1.88,0.46,3.29,1.39,4.24s2.24,1.42,3.94,1.42s3.02-0.47,3.94-1.42c0.93-0.95,1.39-2.36,1.39-4.24V182.6
			c0-0.59,0.41-0.89,1.22-0.89c0.81,0,1.22,0.3,1.22,0.89v18.46c0,2.74-0.71,4.74-2.13,6.01c-1.42,1.27-3.3,1.91-5.64,1.91
			s-4.22-0.63-5.64-1.91C790.72,205.8,790.01,203.8,790.01,201.06z"/>
		<path class="st0" d="M818.72,207.79v-25.16c0-0.3,0.11-0.52,0.33-0.69c0.22-0.16,0.48-0.24,0.78-0.24H833
			c0.62,0,0.92,0.36,0.92,1.07c0,0.32-0.08,0.6-0.24,0.83s-0.39,0.35-0.68,0.35h-11.84v10.17h5.81c0.3,0,0.52,0.11,0.68,0.32
			s0.24,0.48,0.24,0.8c0,0.67-0.31,1-0.92,1h-5.81v10.25H833c0.27,0,0.49,0.11,0.67,0.33c0.17,0.22,0.26,0.49,0.26,0.81
			c0,0.74-0.31,1.11-0.92,1.11h-13.17c-0.3,0-0.55-0.09-0.78-0.26C818.83,208.32,818.72,208.09,818.72,207.79z"/>
	</g>
	<g id="e-cohabiter">
		<path class="st0" d="M106.42,124.95c-0.99-2.51-3.44-6.26-6.03-6.53c-1.34-0.18-2.23,1.45-3.02,2.66l-2.9,4.35
			c-1.7,2.56-3.98,4.91-6.77,6.99c-2.08,1.57-4.05,2.72-5.99,3.52l-1.36,0.49c-1.08,0.38-2.18,0.7-3.68,1.02l-0.83,0.17
			c-3.01,0.51-5.56,0.51-8.09,0.22c-13.89-1.71-24.36-13.54-24.36-27.52c0-15.31,12.45-27.76,27.76-27.76
			c3.75,0,7.44,0.76,10.85,2.21l-21.38,15.28c-5.37,3.83-5.57,12.89-2.97,16.34c1.98,2.63,3.59,2.02,5.66,0.54l15.57-11.12
			c0,0,21.15-15.16,21.31-15.29c1.69-1.45,2.76-3.59,2.76-5.99c0-2.28-0.98-4.34-2.52-5.78c-0.03-0.03-0.8-0.71-0.8-0.71
			c-7.88-6.95-17.99-10.78-28.47-10.78c-23.74,0-43.05,19.32-43.05,43.06c0,20.85,15.15,38.74,35.53,42.35
			c6.87,1.19,20.08,2,33.95-8.52c2.75-2.11,5.05-4.26,7.03-6.55C107.54,134.2,108.22,129.47,106.42,124.95z"/>
		<path class="st0" d="M139.78,104.8h-21.14c-0.7,0-1.26,0.21-1.64,0.63c-0.35,0.39-0.53,0.91-0.53,1.57c0,3.01,4.14,8.8,9.8,8.8
			h21.14c0.7,0,1.26-0.21,1.64-0.63c0.35-0.39,0.53-0.91,0.53-1.57C149.58,110.59,145.44,104.8,139.78,104.8z"/>
		<path class="st0" d="M282.8,67.16c-20.78,0-37.68,15.26-45.21,40.74l-0.18,0.64c-5.12,18.71-16.55,29.43-31.38,29.43
			c-15.31,0-27.76-12.45-27.76-27.76c0-15.31,12.45-27.76,27.76-27.76c3.76,0,7.51,0.79,11.07,2.32l2.25,1.06
			c6.04,2.66,13.15-1.51,15.34-5.24c2.23-3.8,0.11-4.7-2.22-5.72l-12.57-5.34c-4.57-1.59-9.21-2.38-13.86-2.38
			c-23.75,0-43.06,19.32-43.06,43.06c0,23.74,19.31,43.06,43.06,43.06c21.94,0,39.18-15.22,46.14-40.73l0.03-0.09
			c2.65-9.02,10.93-30,30.6-30c15.31,0,27.76,12.45,27.76,27.76c0,15.31-12.45,27.76-27.76,27.76c-7.18,0-13.91-2.72-19.03-7.57
			c-0.4-0.42-0.81-0.83-1.19-1.28l-3.29-3.96c-0.91-1.1-1.66-2.45-3.03-2.16c-2.52,0.54-4.79,4.34-5.5,6.91
			c-1.29,4.63-0.04,9.11,3.18,12.13c0.5,0.47,1.05,0.9,1.63,1.3c7.93,6.41,17.42,9.92,27.23,9.92c23.75,0,43.06-19.32,43.06-43.06
			C325.86,86.48,306.55,67.16,282.8,67.16z"/>
		<path class="st0" d="M378.22,70.61c-11.39,0-22.26,4.96-29.81,13.62l-1.4,1.6V36.85c0-4.65-4.97-8.5-7.5-8.5
			c-0.75,0-0.9,0.34-0.9,0.88v112.28c0,4.65,4.97,8.5,7.5,8.5c0.75,0,0.9-0.34,0.9-0.88v-38.91c0-17.21,14-31.21,31.21-31.21
			c17.21,0,31.21,14,31.21,31.21v31.29c0,4.65,4.97,8.5,7.5,8.5c0.75,0,0.9-0.34,0.9-0.88v-38.91
			C417.83,88.38,400.06,70.61,378.22,70.61z"/>
		<path class="st0" d="M499.53,70.8c-0.75,0-0.9,0.34-0.9,0.88v14.36l-1.4-1.6c-7.55-8.67-18.43-13.63-29.83-13.63
			c-21.84,0-39.61,17.77-39.61,39.61c0,21.84,17.77,39.61,39.61,39.61c11.4,0,22.27-4.97,29.83-13.63l1.4-1.6v6.84
			c0,4.65,4.97,8.5,7.5,8.5c0.75,0,0.9-0.34,0.9-0.88V79.3C507.03,74.65,502.07,70.8,499.53,70.8z M467.41,141.62
			c-17.21,0-31.21-14-31.21-31.21c0-17.21,14-31.21,31.21-31.21s31.21,14,31.21,31.21C498.61,127.62,484.61,141.62,467.41,141.62z"
			/>
		<path class="st0" d="M559.4,70.69c-11.39,0-22.26,4.96-29.81,13.62l-1.4,1.6V57.66V36.85c0-4.65-4.97-8.5-7.5-8.5
			c-0.75,0-0.9,0.34-0.9,0.88v112.28c0,4.65,4.97,8.5,7.5,8.5c0.75,0,0.9-0.34,0.9-0.88v-14.44l1.4,1.6
			c7.55,8.65,18.42,13.62,29.81,13.62c21.84,0,39.61-17.77,39.61-39.61C599,88.46,581.24,70.69,559.4,70.69z M559.4,141.51
			c-17.21,0-31.21-14-31.21-31.21c0-17.21,14-31.21,31.21-31.21c17.21,0,31.21,14,31.21,31.21
			C590.6,127.51,576.6,141.51,559.4,141.51z"/>
		<path class="st0" d="M615.6,70.68c-0.75,0-0.9,0.34-0.9,0.88v69.94c0,4.65,4.97,8.5,7.5,8.5c0.75,0,0.9-0.34,0.9-0.88V79.18
			C623.1,74.53,618.13,70.68,615.6,70.68z"/>
		<path class="st0" d="M618.9,28.35c-2.9,0-5.25,2.36-5.25,5.25c0,2.9,2.36,5.25,5.25,5.25c2.9,0,5.25-2.36,5.25-5.25
			C624.15,30.7,621.79,28.35,618.9,28.35z"/>
		<path class="st0" d="M827.01,87.06c3.58,0,6.74-1.91,7.12-3.2c0.05-0.17,0.14-0.47-0.43-0.85l-9.15-5.96
			c-6.42-4.16-13.85-6.36-21.49-6.36c-11.39,0-22.26,4.96-29.81,13.62l-1.4,1.6v-6.72c0-4.65-4.97-8.5-7.5-8.5
			c-0.75,0-0.9,0.34-0.9,0.88v35.5c0,0-4.72,6.03-6.65,8.53c-12.86,16.71-19.94,25.91-34.9,25.91c-17.21,0-31.21-14-31.21-31.21
			c0-17.21,14-31.21,31.21-31.21c5.83,0,11.5,1.61,16.42,4.66l1.02,0.63l-27.91,19.92c-3.32,2.37-3.9,7.35-3.04,10.03
			c0.29,0.89,0.73,1.47,1.13,1.47c0.16,0,0.37-0.08,0.58-0.24l24.72-17.65l13.87-9.89c1.03-0.73,1.66-1.87,1.75-3.13
			c0.09-1.26-0.39-2.47-1.3-3.34c-7.39-7.01-17.07-10.87-27.25-10.87c-21.84,0-39.61,17.77-39.61,39.61c0,4.75,0.88,9.47,2.61,14.02
			l0.08,0.2c0,0-2.15,3.14-2.86,4.21c-4.58,6.86-8.54,12.78-19,12.78c-7.45,0-13.5-6.06-13.5-13.5V58.94h19.83
			c4.65,0,8.5-4.97,8.5-7.5c0-0.75-0.34-0.9-0.88-0.9h-27.45V36.85c0-4.65-4.97-8.5-7.5-8.5c-0.75,0-0.9,0.34-0.9,0.88v21.31h-7.99
			c-4.65,0-8.5,4.97-8.5,7.5c0,0.75,0.34,0.9,0.88,0.9h15.61V128c0,12.08,9.83,21.9,21.9,21.9c14.93,0,21.14-9.28,25.68-16.06
			l0.63-0.94l0.67,0.91c7.58,10.23,19.17,16.09,31.8,16.09c17.76,0,27-10.33,40.12-27.34l1.43-1.85v20.79c0,4.65,4.97,8.5,7.5,8.5
			c0.75,0,0.9-0.34,0.9-0.88V110.3c0-17.21,14-31.21,31.21-31.21c6.25,0,12.26,1.83,17.41,5.31l2.25,1.47
			C823.91,86.65,825.39,87.06,827.01,87.06z"/>
	</g>
</g>
</svg>
