<svg width="136" height="110" viewBox="0 0 136 110" fill="none" xmlns="http://www.w3.org/2000/svg">
<path fill-rule="evenodd" clip-rule="evenodd" d="M74.5001 0.641402C74.1489 0.994316 72.8018 3.33529 71.5058 5.84388C70.2097 8.35248 69.0132 10.5697 68.8464 10.7716C68.6302 11.0327 67.8024 11.1145 65.9617 11.0566L63.3805 10.9751L60.0248 6.05768C56.978 1.59296 56.5933 1.14027 55.8442 1.14027C55.3905 1.14027 52.8419 1.85066 50.1808 2.71897C46.5487 3.90428 45.2632 4.44677 45.0238 4.89575C44.7877 5.33817 44.7882 6.46647 45.0257 9.2322C45.2024 11.2884 45.4215 13.8868 45.513 15.0065L45.6794 17.0425L44.1573 18.2512C43.3203 18.9157 42.224 19.6568 41.7215 19.898C40.7093 20.3835 41.1976 20.536 33.2604 17.2606C31.5417 16.5516 29.8548 15.9695 29.5119 15.9675C28.8639 15.9635 28.2937 16.5718 24.7045 21.095C22.2287 24.2151 21.9 24.8605 22.3514 25.7168C22.5403 26.0754 24.0275 28.0686 25.6562 30.1459C28.5181 33.7965 28.6534 33.923 29.6863 33.923C30.2744 33.923 31.3488 34.1023 32.0741 34.3213C33.5215 34.7583 32.7323 34.9709 40.2999 32.1057L42.226 31.3765L42.8365 32.6377L43.447 33.8988L45.551 31.8934C49.2698 28.3488 54.8084 25.1655 59.3106 23.985C66.2035 22.1777 73.6546 22.6141 79.9711 25.1954C80.9748 25.6056 82.1009 25.9411 82.4736 25.9411C82.8534 25.9411 83.0745 26.0666 82.9762 26.2262C82.7486 26.5959 82.2702 26.6555 88.6685 25.5153C91.7423 24.9674 94.3767 24.5931 94.5227 24.6837C94.6685 24.7741 96.0665 24.5098 97.629 24.0962C99.1915 23.6826 100.712 23.4211 101.008 23.5155C101.303 23.6096 103.503 23.418 105.897 23.0899C112.418 22.1959 112.46 21.9488 107.052 16.3136C104.016 13.151 102.986 12.2459 102.424 12.2513C102.027 12.2548 99.5153 13.4766 96.8429 14.966C94.1705 16.4555 91.7739 17.6742 91.5171 17.6742C90.8943 17.6742 88.8128 16.6117 88.035 15.8971C87.2921 15.2146 87.1603 14.216 86.9773 7.8901C86.9017 5.27403 86.7179 3.22383 86.5398 3.00832C86.3708 2.80392 85.6915 2.49206 85.0304 2.31532C83.6046 1.9339 75.4472 0 75.2646 0C75.195 0 74.8509 0.288488 74.5001 0.641402ZM131.148 22.528C128.736 22.9756 125.84 23.548 124.712 23.7997L122.66 24.2575L122.349 26.0492C122.178 27.0347 122.039 27.9403 122.039 28.062C122.039 28.2647 122.781 28.1547 124.123 27.7536C124.575 27.6182 124.602 27.6766 124.324 28.198C123.897 28.9988 121.863 37.0927 121.614 38.983C121.506 39.806 121.397 40.4785 121.373 40.4773C121.219 40.4693 116.589 35.8829 116.675 35.8244C116.735 35.7848 117.316 35.41 117.967 34.9915C119.559 33.9686 120.535 32.6174 120.934 30.8828C121.839 26.9511 119.616 24.7943 114.673 24.8057C113.489 24.8086 111.627 25.0107 110.533 25.2553C109.439 25.4996 107.551 25.7507 106.338 25.8129C105.124 25.8753 103.906 26.0472 103.631 26.1951C103.252 26.3987 102.797 27.978 101.762 32.6878C100.255 39.5431 99.6483 41.2846 98.3994 42.3391C96.4145 44.0153 94.7659 42.6415 94.7659 39.3114C94.7659 37.6785 95.6324 33.0373 96.5835 29.5758C96.9605 28.204 97.1852 27.0803 97.0827 27.0791C96.9804 27.0777 96.0437 27.2958 95.0014 27.564L93.1065 28.0512L92.3923 30.6308C91.706 33.1086 91.0136 36.4542 90.6693 38.9565C90.5094 40.1187 90.531 40.1558 91.7958 40.8998C93.346 41.8114 94.5097 43.3508 95.3909 45.6561L96.0443 47.3663L97.1807 47.1924C99.052 46.9064 101.253 45.6687 102.205 44.3682C103.909 42.0375 104.587 39.8502 105.871 32.5245C106.322 29.9523 106.744 27.7955 106.808 27.7314C106.872 27.6672 107.142 28.273 107.408 29.0777C107.747 30.0997 108.012 30.4945 108.289 30.3879C108.803 30.1901 108.822 30.0604 107.838 33.3845C106.449 38.0785 105.096 45.9093 105.68 45.881C105.849 45.8728 106.878 45.5039 107.967 45.0615C110.231 44.1416 110.115 44.371 110.674 39.6957C110.912 37.7027 111.138 36.7737 111.385 36.7737C111.814 36.7737 116.19 41.3351 117.209 42.8445C117.6 43.4232 118.047 43.8933 118.203 43.8896C118.36 43.8859 118.999 43.5666 119.624 43.1803C121.049 42.2992 121.241 42.3003 121.019 43.1877C120.801 44.0575 120.741 44.0575 123.885 43.1783C125.291 42.7849 127.654 42.2653 129.135 42.0232C130.617 41.7812 131.862 41.5497 131.903 41.5087C132.004 41.4075 132.55 38.4949 132.55 38.0591C132.55 37.802 131.7 37.8741 129.283 38.3356C125.558 39.0471 125.823 39.2424 126.386 36.2036L126.729 34.3506L128.432 34.0257C129.369 33.8469 130.597 33.62 131.162 33.5211C132.149 33.3486 132.202 33.2774 132.512 31.7317C132.689 30.8466 132.778 30.0661 132.71 29.9974C132.641 29.9287 131.459 30.0649 130.082 30.3004C128.705 30.5356 127.535 30.6869 127.481 30.6362C127.427 30.5858 127.596 29.8107 127.856 28.9135C128.208 27.6977 128.244 27.2302 127.998 27.0771C127.582 26.8192 128.126 26.6869 132.124 26.0731C133.842 25.8092 135.295 25.5503 135.351 25.4979C135.408 25.4454 135.611 24.5617 135.804 23.5338C136.052 22.2082 136.064 21.6723 135.843 21.6896C135.673 21.7033 133.56 22.0805 131.148 22.528ZM106.982 26.6706C106.982 26.9149 106.854 27.0358 106.698 26.9389C106.541 26.842 106.414 26.6421 106.414 26.4945C106.414 26.3468 106.541 26.2262 106.698 26.2262C106.854 26.2262 106.982 26.4263 106.982 26.6706ZM86.2432 28.6604C84.2901 29.033 81.8353 29.5187 80.7881 29.74C79.331 30.0475 78.8643 30.0615 78.7995 29.7998C78.7347 29.5381 78.2961 29.5518 76.9344 29.8583C75.3592 30.2126 75.1103 30.3634 74.7751 31.1687C74.1603 32.6454 72.3671 37.951 72.0137 39.3393L71.687 40.6221L70.918 38.0565C69.7617 34.1998 68.3103 30.5022 67.9527 30.5022C67.7782 30.5022 66.8683 30.7514 65.9308 31.0561C64.9933 31.3608 63.2674 31.7471 62.0956 31.9145C60.9237 32.0818 58.1226 32.5655 55.8709 32.9897C51.8609 33.7452 51.7655 33.7802 51.2263 34.6973C50.5658 35.8207 50.4848 35.8529 50.6624 34.9208C50.768 34.366 50.6805 34.2084 50.2681 34.2098C49.1595 34.2129 47.7342 34.7905 47.3644 35.386C46.6101 36.6012 43.9669 42.0859 43.0553 44.328C42.5453 45.5823 42.0186 46.7305 41.8846 46.8794C41.7476 47.0319 41.64 45.9101 41.6385 44.3137C41.6363 41.6199 41.1695 35.065 40.9652 34.8603C40.9127 34.8073 39.8604 35.1389 38.6275 35.597C37.2312 36.1155 36.4059 36.575 36.4394 36.8153C36.8925 40.0588 37.7482 47.2847 38.0857 50.7192C38.3235 53.1366 38.5493 55.144 38.588 55.18C38.7945 55.3724 42.9891 53.4852 43.3792 53.0246C44.0002 52.2916 45.826 48.0672 48.2263 41.8106C50.1638 36.76 50.7263 35.5166 50.3357 37.1491L50.1433 37.9519L51.4112 37.7612L52.6794 37.5705L51.8521 40.1515C50.7104 43.714 48.8453 53.3148 49.2215 53.6925C49.2752 53.7461 50.3283 53.4966 51.5618 53.1383C52.7953 52.7797 54.7757 52.2851 55.9623 52.0391C57.149 51.7931 58.6106 51.3948 59.2103 51.1542C60.2217 50.748 60.3209 50.6038 60.5816 49.1613C60.7799 48.0627 60.7723 47.6063 60.5552 47.6063C60.3862 47.6063 58.9149 47.8611 57.2854 48.1727C55.6561 48.4843 54.2984 48.7086 54.268 48.6716C54.1817 48.5655 54.7567 44.3414 54.8746 44.216C54.9322 44.1544 56.1652 43.8933 57.6143 43.6356L60.249 43.1669L60.6396 41.5264C60.8544 40.6238 60.9757 39.8311 60.9089 39.7641C60.8424 39.6974 59.6717 39.8482 58.3078 40.0996C56.9436 40.3507 55.7737 40.5024 55.7078 40.4363C55.6419 40.3704 55.7851 39.6421 56.0257 38.8182C56.3496 37.7104 56.3814 37.2207 56.1487 36.9391C55.8922 36.6292 56.4291 36.4701 59.0356 36.083C64.1126 35.3293 63.8001 35.4444 63.8001 34.3281C63.8001 33.173 64.2774 33.0328 64.5464 34.1083C64.6748 34.6215 64.4027 35.8792 63.699 38.028C62.6302 41.2909 61.4316 46.3272 61.0956 48.9672L60.9041 50.4703L62.4231 49.8617C63.2586 49.5268 64.2939 49.1263 64.7234 48.9717C65.3098 48.7608 65.5041 48.5022 65.5027 47.9347C65.5004 47.0404 66.9029 41.2955 67.2052 40.9611C67.3203 40.8339 67.774 42.0526 68.2134 43.6692C68.6529 45.2858 69.1095 46.7217 69.2279 46.86C69.3904 47.0498 74.4123 45.3029 74.8092 44.9189C74.8484 44.8807 75.1427 43.3853 75.4631 41.5956C75.7836 39.806 76.2913 37.4436 76.591 36.3461C76.891 35.2486 77.2793 33.4205 77.454 32.2839C77.6873 30.7671 77.8864 30.2172 78.2026 30.2172C78.4395 30.2172 78.5745 30.3777 78.5026 30.5735C77.8964 32.2218 77.4032 33.9846 77.5165 34.0986C77.5927 34.1748 78.7072 33.9675 79.9932 33.638C81.2793 33.3084 82.3748 33.0821 82.4273 33.1345C82.4799 33.1873 82.1651 34.3806 81.7282 35.786C80.7032 39.0836 79.8858 42.4625 80.0691 42.6461C80.1481 42.7254 81.1446 42.4306 82.2838 41.9913L84.3549 41.1923L84.981 38.199C85.3253 36.5528 85.7395 34.7252 85.9017 34.138C86.1446 33.2594 86.1191 33.0265 85.7583 32.8238C85.2154 32.5191 85.8415 32.3392 88.4551 32.0496C90.4798 31.8252 90.6233 31.673 90.9247 29.4332C91.1671 27.6322 91.4173 27.6735 86.2432 28.6604ZM116.689 28.9785C117.422 29.6436 117.335 30.5832 116.459 31.4618C115.445 32.4792 111.811 33.5524 111.811 32.8346C111.811 32.7061 112.013 31.9184 112.26 31.0838C112.626 29.8477 112.641 29.5239 112.338 29.3363C111.777 28.9885 113.103 28.5464 114.772 28.5247C115.695 28.513 116.347 28.667 116.689 28.9785ZM63.9941 32.5513C63.9035 32.7785 63.8362 32.7109 63.8225 32.3788C63.8103 32.0784 63.8774 31.9102 63.9717 32.0048C64.066 32.0995 64.0762 32.3455 63.9941 32.5513ZM26.1582 36.6779C25.0406 36.8142 20.0503 37.9294 20.0503 38.0431C20.0503 38.217 21.5213 42.05 21.6301 42.1595C21.6912 42.2208 21.9599 42.0925 22.2272 41.8744C22.6625 41.5189 22.6895 41.5372 22.4841 42.0475C21.8389 43.651 21.3281 45.7231 20.2005 51.3122C19.5204 54.6831 19.0068 57.4847 19.0594 57.538C19.3738 57.8584 24.1775 56.2609 25.9977 55.231C28.9639 53.5522 32.2766 50.2526 33.3866 47.8714C34.384 45.7314 34.9903 42.3074 34.707 40.412C34.2602 37.4231 31.159 36.0685 26.1582 36.6779ZM13.9423 38.3082C13.0048 38.4944 12.0844 38.7421 11.8969 38.8584C11.1173 39.3427 6.68127 47.3645 4.69491 51.8823C3.55429 54.4764 -0.177512 65.3178 0.00657779 65.5025C0.151748 65.6485 5.39292 63.5156 5.73127 63.173C5.90258 62.9994 6.20514 62.0877 6.404 61.147C6.60258 60.2063 7.00371 58.7932 7.29519 58.007L7.8253 56.5774L10.2668 56.1329L12.7085 55.6882L12.5136 56.7073C11.6497 61.2234 11.3511 63.285 11.5614 63.285C11.7608 63.285 16.89 61.3206 17.1378 61.1496C17.4244 60.9511 17.6881 50.3113 17.4733 47.6063C17.1977 44.1344 16.1361 37.8949 15.8292 37.9419C15.729 37.9573 14.8798 38.1221 13.9423 38.3082ZM30.0488 40.7684C30.7479 41.6264 30.9792 43.6863 30.5494 45.2271C30.1116 46.7964 28.4502 49.0895 26.7974 50.4056C25.5369 51.4094 24.0451 52.28 23.8764 52.1106C23.7849 52.0188 25.7929 43.06 26.1775 41.8436C26.3042 41.4437 26.1903 41.2524 25.7576 41.139C24.8363 40.8972 25.0508 40.5891 26.3713 40.2567C28.0017 39.8465 29.4636 40.0497 30.0488 40.7684ZM121.974 41.9508C121.365 42.3391 121.186 42.2216 121.186 41.4331C121.186 40.6914 121.198 40.6868 121.761 41.1982C122.2 41.5971 122.251 41.7749 121.974 41.9508ZM112.799 44.3021L112.602 46.4138L111.283 46.7459C110.558 46.9287 108.298 47.7742 106.261 48.6251C104.225 49.4757 102.461 50.1719 102.342 50.1719C102.224 50.1719 102.214 49.7064 102.32 49.1377C102.432 48.5404 102.403 48.1488 102.252 48.2112C99.4284 49.3783 99.2906 49.4675 99.4395 50.0294C99.5227 50.3429 99.6736 52.0747 99.775 53.8778L99.9596 57.156L104.048 67.5559C106.297 73.2757 108.228 78.0452 108.34 78.155C108.57 78.3793 113.577 78.9686 115.602 79.0093C117.221 79.0421 117.632 78.722 118.16 77.017C118.387 76.2846 119.165 74.0332 119.888 72.0135C121.096 68.6403 121.169 68.2894 120.784 67.7004C120.554 67.3478 118.548 65.7403 116.327 64.1285C114.106 62.5167 112.053 60.962 111.766 60.6735C110.972 59.8767 111.014 55.9579 111.827 54.92C112.181 54.4687 114.244 53.2857 117.054 51.9225C120.005 50.4906 121.852 49.4239 122.123 48.9946C122.674 48.122 122.454 46.3543 121.825 46.5966C120.427 47.1351 118.797 47.3968 118.698 47.0986C118.62 46.8662 118.397 46.8697 117.869 47.1108C117.251 47.3933 117.09 47.3603 116.757 46.8822C115.039 44.4221 113.342 42.1923 113.185 42.1911C113.081 42.1906 112.907 43.1404 112.799 44.3021ZM87.9477 43.6073C87.1162 43.8676 40.8902 62.2052 39.2553 62.9232C38.0232 63.4643 37.0982 64.74 37.0968 65.9008C37.0962 66.3204 40.2942 74.7869 44.2036 84.7152C51.9229 104.32 51.9303 104.335 54.0163 104.335C54.6652 104.335 63.6564 100.906 79.5089 94.6142C92.9784 89.268 104.221 84.7742 104.493 84.6283C105.135 84.2839 105.845 82.8928 105.845 81.9817C105.845 81.2482 92.2065 46.2667 91.4719 45.1159C90.6918 43.8941 89.146 43.2322 87.9477 43.6073ZM13.2099 49.3167L13.2295 52.3099L11.1236 52.3595L9.01791 52.4091L9.39774 51.5043C9.95114 50.1859 11.8026 45.9158 12.3236 44.7556L12.7719 43.7579L12.981 45.0407C13.096 45.7462 13.1989 47.6704 13.2099 49.3167ZM93.723 65.0436C97.7437 75.2613 100.934 83.7072 100.812 83.8127C100.508 84.0747 59.42 100.344 59.0621 100.344C58.8194 100.344 44.6442 64.7665 44.4181 63.5906C44.3618 63.2973 50.1771 60.8542 65.2206 54.8513C76.7049 50.2685 86.1713 46.5071 86.2568 46.4925C86.3426 46.478 89.7023 54.8259 93.723 65.0436ZM34.8343 50.742C33.5761 53.0468 30.096 56.0665 26.3772 58.0799C25.0198 58.8148 24.419 59.2878 24.6051 59.4745C24.9605 59.8311 25.7321 63.8238 25.7321 65.3058C25.7321 66.3167 25.5525 66.5884 23.8159 68.2027C18.6201 73.0332 17.2094 74.5186 17.2094 75.1603C17.2094 75.7898 20.4173 82.2522 21.538 83.8811C21.8528 84.3384 22.3403 84.6651 22.7082 84.6651C23.0551 84.6651 25.2272 84.2229 27.5352 83.6821C29.8431 83.1417 32.3147 82.6117 33.0275 82.5045L34.3238 82.3093L36.7374 84.8201L39.1508 87.3307L38.9809 88.7772C38.8877 89.5728 38.3647 91.8257 37.8187 93.7832C36.3403 99.0858 36.3022 99.551 37.2829 100.321C38.8323 101.537 45.0456 104.905 45.7397 104.905C46.1243 104.905 46.7902 104.602 47.2192 104.231L47.9996 103.558L40.9331 85.6306C35.8806 72.8122 33.832 67.2862 33.7442 66.2389C33.592 64.4218 34.0238 63.0624 35.2752 61.4169C36.5181 59.7832 36.5533 59.1803 35.3911 59.4366C34.3599 59.6638 34.3425 59.5184 35.1107 57.0594C35.6905 55.203 35.8016 53.1754 35.4329 51.1696L35.2232 50.0294L34.8343 50.742ZM83.9037 54.0474C83.3935 54.7834 82.7716 55.646 82.5216 55.9642L82.0671 56.5426L81.0677 55.9228C80.518 55.5819 79.858 55.3031 79.6009 55.3031C79.1768 55.3031 79.1719 55.396 79.5489 56.3008C79.7773 56.8496 79.8429 57.2986 79.6947 57.2986C79.5464 57.2986 79.425 57.491 79.425 57.7262C79.425 57.9614 79.6168 58.1538 79.8512 58.1538C80.0856 58.1538 80.2773 58.0098 80.2773 57.8339C80.2773 57.6104 80.404 57.6193 80.6969 57.8633C81.06 58.1655 81.0023 58.3793 80.2708 59.446C79.8057 60.1245 79.425 60.8705 79.425 61.1037C79.425 61.7317 79.7353 62.4298 80.0145 62.4298C80.1944 62.4298 82.3466 59.7507 82.7114 59.0731C82.7344 59.0301 83.5705 59.3827 84.5694 59.8571C86.8151 60.9229 87.0955 60.9295 87.0955 59.9166C87.0955 59.2174 86.8781 59.0095 85.41 58.3054L83.7242 57.497L84.7026 55.9625C85.4196 54.8373 85.6338 54.2395 85.5043 53.7224C85.2157 52.5684 84.8816 52.6363 83.9037 54.0474ZM74.7771 57.2113C74.4572 57.5323 74.5825 57.8687 75.0217 57.8687C75.256 57.8687 75.4478 57.7481 75.4478 57.6005C75.4478 57.241 75.004 56.9836 74.7771 57.2113ZM76.3001 57.4243C76.3001 57.6686 76.4279 57.8687 76.5842 57.8687C76.7404 57.8687 76.8682 57.7481 76.8682 57.6005C76.8682 57.4528 76.7404 57.253 76.5842 57.156C76.4279 57.0591 76.3001 57.18 76.3001 57.4243ZM71.4705 57.7025C71.4705 57.9505 71.6731 58.1538 71.9202 58.1538C72.422 58.1538 72.3347 57.54 71.808 57.3639C71.6222 57.3017 71.4705 57.4542 71.4705 57.7025ZM72.956 57.6372C73.1316 58.1657 73.7433 58.2533 73.7433 57.7498C73.7433 57.5018 73.541 57.2986 73.2935 57.2986C73.0461 57.2986 72.8941 57.4508 72.956 57.6372ZM77.7856 57.6372C77.9611 58.1657 78.5728 58.2533 78.5728 57.7498C78.5728 57.5018 78.3705 57.2986 78.1231 57.2986C77.8756 57.2986 77.7236 57.4508 77.7856 57.6372ZM69.766 58.0112C69.766 58.2464 69.9578 58.4388 70.1921 58.4388C70.4265 58.4388 70.6183 58.2464 70.6183 58.0112C70.6183 57.7761 70.4265 57.5836 70.1921 57.5836C69.9578 57.5836 69.766 57.7761 69.766 58.0112ZM68.2586 58.0509C68.0316 58.2786 68.2882 58.7239 68.6464 58.7239C68.7936 58.7239 68.9137 58.5315 68.9137 58.2963C68.9137 57.8556 68.5785 57.7299 68.2586 58.0509ZM66.6955 58.7453C66.7515 58.9138 66.9188 59.0517 67.0671 59.0517C67.2154 59.0517 67.3828 58.9138 67.4387 58.7453C67.4947 58.5768 67.3277 58.4388 67.0671 58.4388C66.8066 58.4388 66.6396 58.5768 66.6955 58.7453ZM65.2206 59.4366C65.2206 59.698 65.3581 59.8656 65.5259 59.8094C65.6938 59.7533 65.8313 59.5854 65.8313 59.4366C65.8313 59.2878 65.6938 59.1199 65.5259 59.0637C65.3581 59.0076 65.2206 59.1752 65.2206 59.4366ZM63.9422 59.8642C63.8288 60.0483 63.8637 60.3271 64.02 60.4839C64.2095 60.6741 64.3728 60.6575 64.5103 60.4343C64.6237 60.2502 64.5887 59.9714 64.4325 59.8146C64.243 59.6244 64.0797 59.641 63.9422 59.8642ZM62.5217 60.7194C62.4083 60.9035 62.4433 61.1823 62.5995 61.3391C62.789 61.5293 62.9524 61.5127 63.0899 61.2895C63.2032 61.1054 63.1683 60.8266 63.012 60.6698C62.8226 60.4796 62.6592 60.4962 62.5217 60.7194ZM61.3853 61.8597C61.272 62.0438 61.3069 62.3226 61.4632 62.4794C61.6527 62.6695 61.816 62.653 61.9535 62.4298C62.0669 62.2456 62.0319 61.9668 61.8757 61.8101C61.6862 61.6199 61.5228 61.6364 61.3853 61.8597ZM60.5726 63.1978C60.2527 63.5187 60.378 63.8551 60.8172 63.8551C61.0515 63.8551 61.2433 63.7345 61.2433 63.5869C61.2433 63.2274 60.7995 62.97 60.5726 63.1978ZM97.3227 63.8551C97.3227 64.1687 97.1386 64.4253 96.9133 64.4253C96.4114 64.4253 96.0906 63.956 96.3284 63.5701C96.6372 63.0683 97.3227 63.265 97.3227 63.8551ZM59.8774 65.0168C59.9334 65.1852 60.1007 65.3232 60.249 65.3232C60.3973 65.3232 60.5646 65.1852 60.6206 65.0168C60.6765 64.8483 60.5095 64.7103 60.249 64.7103C59.9885 64.7103 59.8214 64.8483 59.8774 65.0168ZM59.7359 66.3178C59.5089 66.5456 59.7655 66.9909 60.1237 66.9909C60.2709 66.9909 60.391 66.7984 60.391 66.5633C60.391 66.1226 60.0558 65.9968 59.7359 66.3178ZM60.1069 68.2737C60.1069 68.5351 60.2444 68.7027 60.4123 68.6465C60.5802 68.5904 60.7177 68.4225 60.7177 68.2737C60.7177 68.1249 60.5802 67.957 60.4123 67.9008C60.2444 67.8447 60.1069 68.0123 60.1069 68.2737ZM61.0427 69.2195C60.8248 69.3546 60.7961 69.577 60.9623 69.8467C61.1672 70.1794 61.2916 70.1922 61.5723 69.9105C61.9961 69.4852 61.551 68.9045 61.0427 69.2195ZM71.4705 70.2691C71.4705 70.5043 71.6623 70.6967 71.8967 70.6967C72.131 70.6967 72.3228 70.5043 72.3228 70.2691C72.3228 70.034 72.131 69.8415 71.8967 69.8415C71.6623 69.8415 71.4705 70.034 71.4705 70.2691ZM72.956 70.1802C73.1316 70.7087 73.7433 70.7962 73.7433 70.2928C73.7433 70.0448 73.541 69.8415 73.2935 69.8415C73.0461 69.8415 72.8941 69.9938 72.956 70.1802ZM74.6501 70.148C74.706 70.3165 74.8734 70.4544 75.0217 70.4544C75.17 70.4544 75.3373 70.3165 75.3932 70.148C75.4492 69.9795 75.2822 69.8415 75.0217 69.8415C74.7611 69.8415 74.5941 69.9795 74.6501 70.148ZM76.3001 70.2691C76.3001 70.5306 76.4376 70.6982 76.6055 70.642C76.7734 70.5859 76.9109 70.418 76.9109 70.2691C76.9109 70.1203 76.7734 69.9524 76.6055 69.8963C76.4376 69.8401 76.3001 70.0077 76.3001 70.2691ZM62.0956 70.5306C62.0956 70.7786 62.2981 70.9818 62.5453 70.9818C63.047 70.9818 62.9598 70.3681 62.4331 70.1919C62.2473 70.1297 62.0956 70.2823 62.0956 70.5306ZM69.766 70.5542C69.766 70.7894 69.9578 70.9818 70.1921 70.9818C70.4265 70.9818 70.6183 70.7894 70.6183 70.5542C70.6183 70.319 70.4265 70.1266 70.1921 70.1266C69.9578 70.1266 69.766 70.319 69.766 70.5542ZM77.91 70.3168C77.583 70.6446 77.7029 70.9818 78.1466 70.9818C78.381 70.9818 78.5728 70.7894 78.5728 70.5542C78.5728 70.1089 78.2367 69.9886 77.91 70.3168ZM68.5271 70.6095C68.2072 70.9305 68.3325 71.2669 68.7717 71.2669C69.0061 71.2669 69.1978 71.1463 69.1978 70.9986C69.1978 70.6392 68.7541 70.3817 68.5271 70.6095ZM79.425 70.8156C79.425 71.0636 79.6273 71.2669 79.8748 71.2669C80.3765 71.2669 80.2892 70.6531 79.7625 70.477C79.5768 70.4148 79.425 70.5673 79.425 70.8156ZM63.6976 70.8946C63.3777 71.2156 63.5029 71.5519 63.9422 71.5519C64.1765 71.5519 64.3683 71.4314 64.3683 71.2837C64.3683 70.9242 63.9245 70.6668 63.6976 70.8946ZM65.2206 71.3858C65.2206 71.6338 65.4231 71.837 65.6703 71.837C66.172 71.837 66.0848 71.2233 65.5581 71.0471C65.3723 70.985 65.2206 71.1375 65.2206 71.3858ZM66.7061 71.3205C66.8816 71.849 67.4933 71.9365 67.4933 71.4331C67.4933 71.1851 67.2907 70.9818 67.0436 70.9818C66.7961 70.9818 66.6441 71.134 66.7061 71.3205ZM81.035 71.172C80.708 71.4998 80.8279 71.837 81.2716 71.837C81.506 71.837 81.6978 71.6446 81.6978 71.4094C81.6978 70.9641 81.3617 70.8438 81.035 71.172ZM82.3964 71.8561C82.135 72.2806 82.4381 72.5112 82.9818 72.302C83.233 72.2053 83.3588 71.9969 83.2614 71.839C83.0313 71.4653 82.6321 71.473 82.3964 71.8561ZM83.8407 72.6725C83.6304 73.0138 84.1648 73.3516 84.5432 73.117C84.8611 72.92 84.6523 72.4072 84.2546 72.4072C84.1168 72.4072 83.9304 72.5266 83.8407 72.6725ZM85.2884 73.4602C84.9685 73.7812 85.0938 74.1176 85.533 74.1176C85.7674 74.1176 85.9591 73.997 85.9591 73.8493C85.9591 73.4898 85.5154 73.2324 85.2884 73.4602ZM86.4327 74.5928C86.1057 74.9206 86.2256 75.2578 86.6693 75.2578C86.9037 75.2578 87.0955 75.0654 87.0955 74.8302C87.0955 74.3849 86.7594 74.2646 86.4327 74.5928ZM87.15 76.1344C87.206 76.3029 87.3733 76.4409 87.5216 76.4409C87.6699 76.4409 87.8372 76.3029 87.8932 76.1344C87.9492 75.9659 87.7821 75.828 87.5216 75.828C87.2611 75.828 87.0941 75.9659 87.15 76.1344ZM87.6637 77.6809C87.6637 77.9161 87.8554 78.1085 88.0898 78.1085C88.3242 78.1085 88.5159 77.9161 88.5159 77.6809C88.5159 77.4457 88.3242 77.2533 88.0898 77.2533C87.8554 77.2533 87.6637 77.4457 87.6637 77.6809ZM87.7182 79.2702C87.7742 79.4386 87.9415 79.5766 88.0898 79.5766C88.2381 79.5766 88.4054 79.4386 88.4614 79.2702C88.5173 79.1017 88.3503 78.9637 88.0898 78.9637C87.8293 78.9637 87.6622 79.1017 87.7182 79.2702ZM70.4762 80.6741C70.3629 80.8583 70.3978 81.1371 70.5541 81.2939C70.7435 81.484 70.9069 81.4675 71.0444 81.2442C71.1578 81.0601 71.1228 80.7813 70.9666 80.6245C70.7771 80.4344 70.6137 80.4509 70.4762 80.6741ZM72.0387 80.8403C72.0387 81.0886 72.1904 81.2411 72.3762 81.179C72.9029 81.0028 72.9901 80.389 72.4884 80.389C72.2413 80.389 72.0387 80.592 72.0387 80.8403ZM87.0955 80.8166C87.0955 81.0518 87.2872 81.2442 87.5216 81.2442C87.756 81.2442 87.9477 81.0518 87.9477 80.8166C87.9477 80.5815 87.756 80.389 87.5216 80.389C87.2872 80.389 87.0955 80.5815 87.0955 80.8166ZM73.4592 81.078C73.4592 81.3263 73.6614 81.5293 73.9089 81.5293C74.4106 81.5293 74.3234 80.9156 73.7967 80.7394C73.6109 80.6772 73.4592 80.8298 73.4592 81.078ZM60.9592 81.6978C60.2561 82.1 59.4618 82.6271 59.1942 82.8691C58.9265 83.1109 58.5112 83.2332 58.2709 83.1408C57.8001 82.9595 57.6606 83.3837 58.1013 83.6568C58.2586 83.7546 58.1922 84.2452 57.9388 84.8535C57.0334 87.028 57.5842 90.1902 59.1552 91.8362C59.7052 92.4123 59.8277 92.7527 59.6674 93.2593C59.4808 93.8494 59.5092 93.8816 59.9169 93.5421C60.3044 93.2197 60.589 93.2313 61.7132 93.6156C64.1066 94.4338 66.2001 94.0589 68.2532 92.4443C68.8509 91.9742 69.5316 91.6509 69.766 91.7262C70.0788 91.8265 70.1103 91.7752 69.8845 91.5329C69.662 91.294 69.7274 90.7538 70.1208 89.5847C70.9345 87.1665 70.3225 84.3481 68.6558 82.8355C68.2396 82.4578 68.1112 82.1063 68.2404 81.6975C68.3992 81.1958 68.3629 81.1602 67.9998 81.4623C67.6558 81.7488 67.3723 81.7346 66.5475 81.3888C64.9061 80.7006 62.4657 80.8355 60.9592 81.6978ZM75.0245 81.5248C74.8151 81.8648 75.081 82.3845 75.4646 82.3845C75.8103 82.3845 75.8126 81.6128 75.4674 81.399C75.3219 81.3087 75.1228 81.3654 75.0245 81.5248ZM49.4374 82.163C49.6805 82.5114 49.8797 83.0302 49.8797 83.3161C49.8797 84.0673 48.6033 85.2352 47.7825 85.2352C46.9982 85.2352 45.9024 84.0499 45.9024 83.2012C45.9024 81.6815 48.5573 80.9019 49.4374 82.163ZM69.068 81.7947C68.8578 82.1359 69.3921 82.4737 69.7705 82.2391C70.0884 82.0421 69.8796 81.5293 69.4819 81.5293C69.3441 81.5293 69.1578 81.6488 69.068 81.7947ZM86.3853 81.8144C86.2719 81.9985 86.3068 82.2773 86.4631 82.4341C86.6526 82.6243 86.8159 82.6077 86.9534 82.3845C87.0668 82.2004 87.0318 81.9216 86.8756 81.7648C86.6861 81.5746 86.5228 81.5912 86.3853 81.8144ZM65.3626 82.1291C67.8137 82.8007 69.4629 84.9359 69.4757 87.4536C69.4842 89.1272 68.9271 90.3182 67.5538 91.5617C64.0833 94.704 58.5782 92.2347 58.5544 87.5251C58.5407 84.8646 59.7791 83.1285 62.347 82.2078C63.6257 81.7491 63.9461 81.7408 65.3626 82.1291ZM76.4816 82.2973C76.1617 82.6183 76.287 82.9547 76.7262 82.9547C76.9606 82.9547 77.1523 82.8341 77.1523 82.6864C77.1523 82.3269 76.7086 82.0695 76.4816 82.2973ZM85.2489 82.9547C85.1355 83.1388 85.1705 83.4176 85.3267 83.5744C85.5162 83.7645 85.6796 83.748 85.8171 83.5248C85.9304 83.3406 85.8955 83.0618 85.7392 82.905C85.5498 82.7149 85.3864 82.7314 85.2489 82.9547ZM77.91 83.1448C77.583 83.4726 77.7029 83.8099 78.1466 83.8099C78.381 83.8099 78.5728 83.6174 78.5728 83.3823C78.5728 82.937 78.2367 82.8167 77.91 83.1448ZM79.2859 83.8053C79.0765 84.1454 79.3424 84.6651 79.7259 84.6651C80.0716 84.6651 80.0739 83.8934 79.7287 83.6796C79.5833 83.5892 79.3841 83.6459 79.2859 83.8053ZM64.7456 85.4672C63.7873 86.3586 62.9387 87.2805 62.8598 87.5157C62.7808 87.7509 62.3819 88.6911 61.9734 89.6047L61.2308 91.2664L62.9706 89.7472C64.3393 88.5522 64.9169 87.7786 65.6794 86.1178C66.2123 84.957 66.6123 83.9712 66.568 83.9267C66.524 83.8825 65.7038 84.5755 64.7456 85.4672ZM83.8407 84.0752C83.6304 84.4165 84.1648 84.7543 84.5432 84.5197C84.8611 84.3227 84.6523 83.8099 84.2546 83.8099C84.1168 83.8099 83.9304 83.9293 83.8407 84.0752ZM80.7449 84.5168C80.6637 84.7292 80.7705 84.9695 80.9819 85.051C81.1935 85.1326 81.433 85.0254 81.5143 84.8133C81.5955 84.6009 81.4887 84.3606 81.2773 84.2791C81.0657 84.1975 80.8262 84.3047 80.7449 84.5168ZM60.3013 84.7739C60.0311 85.4803 60.0495 85.5245 60.5362 85.337C60.851 85.2158 60.9157 85.3019 60.7791 85.6594C60.6135 86.0927 60.6603 86.1044 61.2021 85.7648C61.5373 85.555 61.8115 85.2782 61.8115 85.1497C61.8115 85.0214 61.6836 84.9957 61.5274 85.0927C61.3711 85.1896 61.2433 85.1254 61.2433 84.9501C61.2433 84.7748 61.1263 84.7038 60.9834 84.7925C60.8405 84.8811 60.6723 84.799 60.6095 84.61C60.5393 84.3988 60.4203 84.4621 60.3013 84.7739ZM82.266 84.8076C82.266 85.0428 82.4577 85.2352 82.6921 85.2352C82.9265 85.2352 83.1182 85.0428 83.1182 84.8076C83.1182 84.5724 82.9265 84.38 82.6921 84.38C82.4577 84.38 82.266 84.5724 82.266 84.8076ZM65.0365 86.5992C64.6291 87.64 64.5086 87.7438 64.0152 87.4787C63.4808 87.1916 63.4978 87.1343 64.3896 86.211C64.9035 85.679 65.3632 85.2831 65.4112 85.3316C65.4592 85.3797 65.2907 85.9501 65.0365 86.5992ZM95.1236 91.9813L87.6691 94.9702L91.2884 97.964C93.2793 99.6106 95.2597 101.143 95.6892 101.371C96.6972 101.904 96.9639 101.757 101.584 98.124C104.278 96.0059 105.156 95.1547 105.221 94.5982C105.33 93.6758 103.465 89.0996 102.956 89.038C102.749 89.0129 99.2238 90.3373 95.1236 91.9813ZM66.9353 89.6412C66.5771 90.0742 66.7526 90.6515 67.2427 90.6515C67.399 90.6515 67.4561 90.5366 67.3697 90.3963C67.2831 90.2558 67.4115 90.0645 67.6549 89.9707C67.8984 89.8769 68.018 89.6711 67.9205 89.5132C67.6734 89.1118 67.3373 89.1554 66.9353 89.6412ZM72.0387 101.133C67.8981 102.787 64.4583 104.184 64.3944 104.236C64.1714 104.417 65.516 108.475 66.0331 109.181C66.7015 110.093 67.4342 110.171 71.6126 109.769C76.6685 109.282 77.1276 109.189 77.4452 108.594C77.6023 108.299 78.1165 106.162 78.5876 103.845C79.0586 101.527 79.5197 99.2782 79.6123 98.8472C79.7046 98.4161 79.7322 98.0769 79.6736 98.0934C79.6151 98.11 76.1793 99.4774 72.0387 101.133Z" fill="#161616"/>
</svg>
