<svg width="66" height="68" viewBox="0 0 66 68" fill="none" xmlns="http://www.w3.org/2000/svg">
<path d="M11.7775 32.3937C16.8079 32.3937 20.9099 28.6564 20.9099 24.0731C20.9099 19.4897 16.8079 15.7631 11.7775 15.7631C6.74703 15.7631 2.65686 19.4897 2.65686 24.0731C2.65686 28.6564 6.74703 32.3937 11.7775 32.3937Z" fill="black"/>
<path d="M46.0034 56.3489C45.7918 56.1776 45.4862 56.1133 45.2041 56.1669L36.7887 57.998C36.4596 58.0624 36.2128 58.2979 36.1306 58.5871C36.06 58.8869 36.1658 59.1867 36.4126 59.3902L46.356 67.0897C48.1138 68.445 50.8283 68.2803 52.362 66.64C53.8782 65.0123 53.6549 62.5492 51.8918 61.1785L46.0034 56.3489Z" fill="black"/>
<path d="M50.1759 46.2185C49.0593 45.3618 47.5666 45.0726 46.168 45.469L36.5655 48.1783C36.3421 47.6856 36.0483 47.2143 35.6957 46.7754L29.9248 39.4185L32.6281 38.7975C33.3215 38.6368 33.9679 38.3048 34.5086 37.855L44.0759 29.5665C45.9985 27.9034 45.8189 24.9993 43.594 23.5804C41.9486 22.5095 39.6448 22.6916 38.1052 24.0194L32.2167 29.1275C30.4067 30.6909 28.1618 31.8261 25.7405 32.383C23.9658 32.8005 22.0853 32.9184 20.3222 32.9933C13.816 33.2489 10.4141 40.0299 14.2575 44.9014L22.4849 55.3959C24.0128 57.3341 26.4928 58.4906 29.1021 58.4906C30.63 58.4906 33.11 57.3983 33.874 57.0344L46.4384 53.5219L56.0056 60.9322C57.7593 62.2842 60.4453 62.1576 62.0116 60.4825C62.0233 60.4825 62.0233 60.4825 62.0233 60.4825C63.5278 58.8548 63.3162 56.4024 61.5297 55.0103L50.1759 46.2185Z" fill="black"/>
<path d="M64.8911 19.2649L47.0142 12.4478V7.34599C47.0142 5.71826 45.5803 4.40111 43.8055 4.40111C42.0308 4.40111 40.5851 5.71826 40.5851 7.34599V9.99623L38.1639 9.07282V2.94488C38.1639 1.31714 36.7182 0 34.9435 0C33.1687 0 31.7348 1.31714 31.7348 2.94488V6.62128L14.5396 0.0641878C14.0929 -0.107183 13.5758 0.0856265 13.3877 0.503275C13.1997 0.910076 13.4112 1.38133 13.8578 1.5527L38.493 10.9416V21.8456C39.0454 21.5993 39.6448 21.4281 40.256 21.353V11.6135C59.0405 18.7726 45.8923 13.7616 64.2095 20.7425C64.7011 20.9219 65.1873 20.6975 65.3613 20.3143C65.5493 19.9072 65.3378 19.4361 64.8911 19.2649Z" fill="black"/>
<path d="M40.256 45.4582V35.0922L38.493 36.6236V45.9508L40.256 45.4582Z" fill="black"/>
<path d="M11.2576 47.7848C11.5847 47.7848 11.898 47.6196 12.0507 47.3341C12.2642 46.9356 12.0828 46.4546 11.6455 46.2601L1.26832 41.643C0.832162 41.4495 0.304176 41.6148 0.0895348 42.0122C-0.123954 42.4106 0.0574008 42.8917 0.49471 43.0862L10.8719 47.7032C10.9959 47.7587 11.1279 47.7848 11.2576 47.7848Z" fill="black"/>
<path d="M15.3701 54.6409L4.99177 50.0238C4.55102 49.8282 4.02763 49.9945 3.81298 50.393C3.5995 50.7914 3.78085 51.2724 4.21816 51.467L14.5965 56.084C14.7216 56.1394 14.8525 56.1656 14.9822 56.1656C15.3093 56.1656 15.6227 56.0004 15.7753 55.7149C15.9888 55.3164 15.8074 54.8354 15.3701 54.6409Z" fill="black"/>
</svg>
